<svg width="442" height="210" viewBox="0 0 442 210" fill="none" xmlns="http://www.w3.org/2000/svg">
<path d="M237.277 109.46C237.279 122.664 234.541 135.739 229.218 147.938C223.895 160.138 216.091 171.222 206.253 180.559C196.415 189.895 184.735 197.301 171.88 202.352C159.026 207.404 145.248 210.003 131.335 210C72.826 210 25.3936 164.986 25.3936 109.46C25.3835 98.6598 27.2079 87.9283 30.7966 77.6787C37.8424 57.6614 51.3406 40.2525 69.3824 27.9138C87.4242 15.575 109.097 8.93089 131.335 8.92084C150.514 8.91452 169.336 13.851 185.789 23.2034C202.243 32.5557 215.712 45.9728 224.758 62.0224C227.001 65.9823 228.957 70.0822 230.614 74.2939C230.844 74.8803 231.067 75.4668 231.285 76.0589V76.0645C232.256 78.6673 233.112 81.3186 233.851 84.0183C236.133 92.3254 237.284 100.876 237.277 109.46Z" fill="#F8F9FA"/>
<path d="M119.744 41.6276C114.983 39.1843 109.697 37.805 104.289 37.595C98.8813 37.3851 93.4941 38.3499 88.5387 40.416C84.1756 42.218 79.5815 45.4505 78.126 51.288C84.0127 47.991 91.6329 53.2002 93.1477 61.5569L92.7941 61.6494C91.994 67.4376 93.7801 73.7393 97.2379 77.3284C97.6919 73.6004 100.275 71.0631 102.815 69.4782C105.356 67.8932 108.167 66.7419 110.106 64.0176C112.405 60.7878 112.988 56.0676 113.902 51.7616C114.815 47.4556 116.548 42.8274 119.744 41.6276Z" fill="#1A2D6D"/>
<path d="M86.7928 90.883C85.1625 93.2065 82.9848 94.6644 81.0308 96.4797C79.0827 98.3006 77.2286 100.758 76.8402 103.914C76.593 105.936 76.9756 107.991 76.9226 110.036C76.8697 112.08 76.1516 114.381 74.6861 114.89C72.373 115.683 70.6073 111.605 68.2295 111.32C66.3402 111.097 64.6393 113.918 65.1866 116.364C65.734 118.811 68.3061 119.894 69.7834 118.297C71.1194 120.425 70.1777 124.284 68.1707 124.938C67.9587 126.278 67.7469 127.613 67.5409 128.954C62.4675 125.586 57.3411 122.162 53.0269 117.23C48.2288 111.791 45.2529 105.116 44.481 98.0604C43.9219 92.391 44.7517 85.9063 42.0091 81.544C39.8136 78.0531 36.0468 77.2822 32.6567 77.5001C32.0387 77.5392 31.4149 77.6062 30.7969 77.6788C32.7962 71.9802 35.3354 66.4652 38.3834 61.2015C39.0732 60.9205 39.7141 60.5419 40.2844 60.0788C43.4392 57.5374 44.84 52.3931 47.4002 48.8351C47.5651 48.606 47.7357 48.3826 47.9123 48.1648C50.5314 44.9196 54.0393 43.2495 57.4294 41.6967C64.9336 38.2393 72.6555 34.7372 80.5776 35.2175L78.3234 35.4242C75.6926 42.4173 73.0597 49.4104 70.4249 56.4035C70.0246 57.4759 69.6205 58.5501 69.2125 59.6263C67.7175 63.6032 66.1755 67.8371 66.405 72.2887C66.5404 74.925 67.5056 77.7402 69.3419 78.6451C71.0546 79.4829 72.9263 78.4552 74.5801 77.4386C75.2805 77.014 75.9751 76.5895 76.6754 76.1594C79.1886 74.6234 81.9725 73.0483 84.6269 74.0761C87.0577 75.0145 88.8528 78.1479 89.1942 81.5272C89.5072 84.8121 88.6626 88.1027 86.7928 90.883Z" fill="#1A2D6D"/>
<path d="M101.74 138.626C94.4 134.338 87.06 130.049 79.72 125.76L79.8446 125.455C75.281 127.105 73.3863 134.803 74.1405 141.099C74.8947 147.395 77.4521 153.023 78.744 159.157C80.486 167.552 79.8285 176.236 76.8398 184.308C86.4914 174.031 95.033 162.861 102.336 150.966C103.357 149.467 104.134 147.831 104.643 146.113C105.109 144.285 105.037 142.088 104.104 140.622C103.503 139.781 102.69 139.095 101.74 138.626Z" fill="#1A2D6D"/>
<path d="M72.7712 60.5991C71.9919 62.2622 71.692 64.4797 72.3993 66.2005C73.1216 67.9579 74.6486 68.7521 76.0546 69.4133L80.1102 71.3211C81.4595 71.9558 82.9138 72.5969 84.2892 72.0747C85.9482 71.4448 87.0985 68.9766 86.8009 66.6852C86.4842 64.2469 84.8647 62.5697 83.3668 61.1414C81.2707 59.1426 79.1746 57.1438 77.0785 55.145L75.8972 56.5181C74.6195 57.7009 73.5625 59.0808 72.7712 60.5991Z" fill="#1A2D6D"/>
<path d="M215.535 86.6658C217.359 87.0735 219.184 87.4813 221.009 87.889C220.691 93.7371 217.636 99.1495 213.54 101.11C211.833 101.925 209.932 102.227 208.519 103.752C207.242 105.137 206.595 107.293 206 109.354C204.958 112.951 203.917 116.548 202.875 120.145C201.757 124.022 200.321 128.328 197.413 129.725C194.918 130.926 192.063 129.457 190.144 126.993C188.226 124.53 187.054 121.218 185.918 117.989C185.989 121.508 184.265 124.96 181.822 126.183C179.374 127.407 176.395 126.301 174.759 123.569C173.582 121.609 173.094 119.023 171.94 117.034C170.786 115.046 168.367 113.906 167.108 115.772C166.278 117.012 166.384 118.911 165.972 120.486C165.33 122.933 163.388 124.469 161.464 124.603C159.545 124.737 157.673 123.687 156.066 122.262C152.753 119.313 150.31 114.633 149.363 109.432C148.945 107.114 148.827 104.59 149.551 102.417C150.275 100.244 152.023 98.5686 153.759 98.9819C154.901 96.6918 152.647 93.6533 150.616 93.9214C148.58 94.1895 146.985 96.2617 145.313 97.8536C143.648 99.4455 141.317 100.602 139.64 99.021C139.651 100.49 138.392 101.462 137.303 101.339C136.22 101.222 135.255 100.395 134.26 99.8085C130.417 97.5352 125.538 99.0433 122.807 103.344C124.513 96.4516 127.015 88.5425 132.259 86.9227C134.401 86.258 136.738 86.8054 138.763 85.6547C142.347 83.6161 143.071 75.9136 139.975 72.7355C140.369 75.7404 140.293 79.2481 138.621 81.3036C136.95 83.3591 133.442 82.0185 133.654 78.98C133.171 81.0746 130.77 81.393 129.663 79.7843C128.551 78.1758 128.645 75.545 129.434 73.6235C130.223 71.7021 131.564 70.3225 132.865 68.9987C135.661 66.1557 138.498 63.2791 141.735 61.4917C144.978 59.7044 148.721 59.1011 151.97 60.8774C153.683 61.8157 155.189 63.3797 156.937 64.2063C158.686 65.0385 160.904 64.9325 162.064 62.9887C163.365 60.8215 162.752 57.6042 163.235 54.8952C164.1 50.1084 169.144 47.8686 171.94 51.03C169.851 50.5218 167.691 52.8677 167.432 55.7108C167.167 58.5538 168.679 61.4248 170.704 62.2849C174.106 63.7148 177.437 60.1177 180.009 56.7887C182.693 53.3034 185.381 49.8199 188.072 46.3382C188.502 45.7454 188.985 45.1886 189.514 44.6737C190.357 43.8939 191.481 43.4474 192.658 43.4246C193.835 43.4018 194.977 43.8044 195.853 44.5509C198.572 46.6566 199.85 50.9742 202.08 53.9457C205.317 58.2633 210.161 59.3134 214.67 60.1512C218.03 60.7712 221.393 61.3949 224.758 62.0224C227.001 65.9822 228.957 70.0821 230.614 74.2938C224.917 76.5895 219.661 80.8848 215.535 86.6658Z" fill="#1A2D6D"/>
<path d="M226.4 153.871C223.878 158.73 220.946 163.387 217.63 167.796C215.512 166.936 213.234 168.472 211.25 169.913C209.179 171.421 206.689 172.89 204.564 171.516C202.393 170.108 201.692 166.17 202.381 163.048C203.069 159.931 204.788 157.451 206.454 155.094C208.219 152.592 210.109 149.995 212.563 149.023C215.023 148.051 218.184 149.425 218.902 152.743L220.644 152.687C219.667 151.413 220.179 148.777 221.491 148.313C223.004 147.772 224.317 149.743 225.211 151.486C225.611 152.274 226.017 153.067 226.4 153.871Z" fill="#1A2D6D"/>
<path d="M159.677 130.278C155.933 130.502 152.967 126.127 150.996 121.823C149.024 117.519 147.226 112.597 143.847 110.407C141.917 109.155 139.716 108.983 137.621 108.377C135.527 107.77 133.336 106.515 132.334 103.959L129.959 103.049C126.822 104.723 123.644 106.427 120.94 109.151C117.909 112.208 116.02 116.125 115.567 120.301C115.113 124.813 116.788 129.844 119.919 131.539C122.393 132.879 125.273 132.034 127.779 133.26C130.91 134.792 132.769 139.242 133.472 143.636C134.176 148.03 133.998 152.596 134.501 157.04C135.005 161.484 136.392 166.108 139.263 168.385C142.856 171.235 148.128 168.867 149.74 163.679C150.531 161.135 150.504 158.263 151.095 155.622C152.137 150.971 154.947 147.52 157.176 143.704C159.405 139.888 161.16 134.706 159.677 130.278Z" fill="#1A2D6D"/>
<path d="M122.675 84.571C123.024 84.876 123.35 85.2043 123.65 85.5534C123.961 86.0615 124.119 86.6404 124.109 87.2278C124.098 87.8151 123.919 88.3886 123.59 88.8864C124.041 88.862 124.482 88.7491 124.885 88.5549C125.288 88.3606 125.644 88.0892 125.93 87.7578C126.614 87.0191 127.215 86.2154 127.724 85.3594C128.106 84.7684 128.512 83.9693 128.253 83.2673C128.076 82.7882 127.658 82.5838 127.365 82.2235C126.9 81.6524 126.785 80.7453 126.544 79.9614C126.025 78.2684 124.78 77.0235 123.429 76.8455L123.616 76.8796C123.052 77.0631 122.658 77.9137 122.783 78.679C122.896 79.3761 123.368 79.9547 123.321 80.6656C123.254 81.6878 122.177 82.1675 122.111 83.1899C122.1 83.7027 122.303 84.1989 122.675 84.571Z" fill="#1A2D6D"/>
<path d="M116.259 67.1997C116.264 67.1983 116.27 67.198 116.276 67.1966C116.391 67.097 116.498 66.989 116.595 66.8737L116.259 67.1997Z" fill="#E6E6E6"/>
<path d="M117.381 71.998C118.209 71.4928 118.672 70.0954 118.398 68.9259C118.126 67.7635 117.163 66.9821 116.275 67.1967C116.017 67.4446 115.697 67.6262 115.346 67.7245C114.994 67.8229 114.621 67.8347 114.263 67.7588C113.714 67.6247 113.111 67.2792 112.635 67.6718C112.363 67.965 112.172 68.3182 112.081 68.6993C111.904 69.2128 111.728 69.7263 111.552 70.2396C111.468 70.4235 111.446 70.6273 111.489 70.8234C111.523 70.9019 111.578 70.9709 111.648 71.0237C111.717 71.0765 111.801 71.1113 111.889 71.1248C112.946 71.4207 114.004 71.7166 115.061 72.0124C115.832 72.228 116.664 72.4357 117.381 71.998Z" fill="#1A2D6D"/>
<path d="M197.215 138.242C196.726 137.482 196.237 136.723 195.748 135.963C195.268 135.084 194.612 134.302 193.816 133.661C193.641 133.521 193.438 133.417 193.22 133.353C193.002 133.289 192.772 133.268 192.545 133.289C192.318 133.311 192.098 133.375 191.897 133.479C191.697 133.583 191.52 133.723 191.378 133.892L191.437 134.326C192.552 135.653 193.731 137.127 194.013 139.095C194.125 139.872 194.086 140.675 194.184 141.455C194.281 142.234 194.559 143.043 195.089 143.379C195.859 143.867 196.763 143.147 197.311 142.269C197.8 141.548 198.02 140.691 197.934 139.837C197.812 139.264 197.567 138.721 197.215 138.242Z" fill="#1A2D6D"/>
<path d="M218.972 109.235C219.113 108.355 219.254 107.475 219.396 106.596C219.625 105.629 219.654 104.63 219.48 103.653C219.44 103.44 219.356 103.236 219.233 103.054C219.109 102.872 218.948 102.715 218.76 102.593C218.571 102.47 218.359 102.385 218.136 102.342C217.912 102.298 217.681 102.298 217.458 102.34L217.209 102.709C217.161 104.405 217.063 106.253 215.943 107.932C215.502 108.594 214.927 109.184 214.473 109.841C214.018 110.497 213.682 111.285 213.86 111.866C214.118 112.71 215.297 112.712 216.312 112.375C217.176 112.122 217.926 111.601 218.439 110.896C218.735 110.383 218.916 109.817 218.972 109.235Z" fill="#E6E6E6"/>
<path d="M204.884 139.23C205.123 138.578 204.778 137.83 204.705 137.11C204.67 136.179 204.93 135.26 205.451 134.471C205.969 133.726 206.362 132.91 206.614 132.051C206.721 131.659 206.701 131.247 206.559 130.866C206.397 130.521 206.005 130.363 205.78 130.637L206.261 130.931C205.611 130.821 204.944 130.851 204.309 131.02C203.946 131.152 203.623 131.365 203.365 131.64C203.107 131.916 202.924 132.246 202.829 132.603C202.75 133.16 202.62 133.71 202.441 134.246C202.154 134.805 201.599 134.992 201.249 135.483C201.011 135.919 200.891 136.404 200.9 136.894C200.908 137.385 201.045 137.866 201.299 138.293C201.737 138.993 202.434 139.513 203.254 139.753C203.841 139.953 204.615 139.963 204.884 139.23Z" fill="#1A2D6D"/>
<path d="M218.54 143.14C218.752 143.665 219.037 144.16 219.386 144.614C220.04 145.239 220.928 144.855 221.721 144.703C222.441 144.595 223.178 144.674 223.855 144.932C224.531 145.189 225.121 145.615 225.563 146.165C225.255 144.71 224.584 143.345 223.605 142.187C222.627 141.028 221.37 140.109 219.939 139.507C218.07 138.784 216.101 138.714 214.156 138.649L213.82 138.731C214.676 141.095 217.363 141.042 218.54 143.14Z" fill="#1A2D6D"/>
<path d="M160.701 147.977L160.706 147.988C160.739 147.928 160.772 147.868 160.805 147.808L160.701 147.977Z" fill="#E6E6E6"/>
<path d="M158.63 151.781C158.178 152.56 157.79 153.37 157.468 154.204C157.042 155.556 156.759 156.945 156.625 158.35C156.52 159.149 156.488 160.17 157.015 160.559C157.167 160.654 157.35 160.694 157.53 160.671C157.71 160.648 157.875 160.563 157.994 160.433C158.287 160.139 158.527 159.8 158.704 159.432C159.74 157.737 160.545 155.924 161.099 154.037C161.604 152.048 161.599 149.708 160.707 147.986C160.015 149.251 159.322 150.516 158.63 151.781Z" fill="#1A2D6D"/>
<path d="M138.643 50.3952C138.972 50.7004 139.388 50.9077 139.84 50.9913C140.292 51.075 140.759 51.0314 141.185 50.866C142.067 50.5001 142.876 49.9929 143.577 49.3667C144.157 48.9593 144.649 48.4497 145.027 47.8657C145.235 47.5168 145.368 47.1323 145.419 46.7343C145.47 46.3364 145.437 45.9328 145.323 45.5468C144.996 44.6377 144.165 44.3329 143.431 44.1266C142.258 43.7963 141.084 43.4659 139.91 43.1356L140.759 42.4093C139.886 41.9644 138.919 42.7902 138.373 43.8125C138.023 44.4801 137.779 45.1932 137.649 45.9286C137.356 47.5332 137.642 49.4441 138.643 50.3952Z" fill="#E6E6E6"/>
<path d="M159.367 43.793C159.698 44.1391 160.155 44.3528 160.646 44.3907C161.137 44.4286 161.625 44.2878 162.01 43.997C162.342 43.7605 162.617 43.4604 162.819 43.1162C163.02 42.7719 163.143 42.3913 163.179 41.999C163.262 41.1228 162.806 40.1489 162.154 40.0733L162.303 39.2529C161.047 39.0376 159.501 38.9945 158.828 40.442C158.601 40.9965 158.531 41.5978 158.626 42.1858C158.721 42.7739 158.976 43.3281 159.367 43.793Z" fill="#E6E6E6"/>
<path d="M156.599 0.167188C149.236 -0.621054 141.844 1.39893 136.05 5.78276C130.256 10.1666 126.534 16.5552 125.704 23.5431C123.974 38.0946 132.052 69.6938 146.78 82.7745C153.715 57.7129 178.015 42.8478 181.231 29.4872C184.667 15.211 171.932 1.80862 156.599 0.167188Z" fill="#FFC800"/>
<path d="M151.507 32.5168C156.539 32.5168 160.619 28.6453 160.619 23.8694C160.619 19.0936 156.539 15.222 151.507 15.222C146.474 15.222 142.395 19.0936 142.395 23.8694C142.395 28.6453 146.474 32.5168 151.507 32.5168Z" fill="#1A2D6D"/>
<path d="M141.925 95.2429C145.221 95.2429 147.893 92.7071 147.893 89.579C147.893 86.4509 145.221 83.9151 141.925 83.9151C138.629 83.9151 135.957 86.4509 135.957 89.579C135.957 92.7071 138.629 95.2429 141.925 95.2429Z" fill="#FFC800"/>
<path opacity="0.2" d="M159.046 17.674C160.071 18.2589 160.965 19.0298 161.677 19.9426C162.389 20.8555 162.904 21.8924 163.194 22.9943C163.483 24.0961 163.541 25.2413 163.364 26.3644C163.187 27.4875 162.779 28.5665 162.163 29.5399C161.546 30.5133 160.734 31.3619 159.772 32.0373C158.81 32.7128 157.718 33.2018 156.557 33.4765C154.212 34.0313 151.731 33.6793 149.659 32.4981C151.771 32.944 153.981 32.662 155.894 31.7026C157.807 30.7432 159.298 29.1691 160.1 27.2619C160.901 25.3548 160.962 23.2391 160.27 21.2936C159.578 19.3481 158.179 17.6998 156.324 16.6436C157.284 16.8455 158.203 17.1934 159.046 17.674Z" fill="#231F20"/>
<path opacity="0.2" d="M181.266 29.5152C178.051 42.8757 153.75 57.7409 146.816 82.8025C145.43 81.5605 144.144 80.2229 142.967 78.8008C150.759 55.2436 173.547 40.9295 176.654 28.0208C179.435 16.4672 171.624 5.48716 160.417 0.848846C173.983 4.08529 184.415 16.4324 181.266 29.5152Z" fill="#231F20"/>
<path d="M71.2088 33.9081C65.6792 33.3162 60.1282 34.8331 55.7771 38.1252C51.426 41.4174 48.6312 46.2149 48.0074 51.4626C46.7086 62.3903 52.775 86.1202 63.8352 95.9434C69.0429 77.123 87.2918 65.9598 89.7065 55.9265C92.2866 45.2055 82.7237 35.1408 71.2088 33.9081Z" fill="#FFC800"/>
<path d="M67.3858 58.2017C71.165 58.2017 74.2287 55.2943 74.2287 51.7078C74.2287 48.1213 71.165 45.2138 67.3858 45.2138C63.6066 45.2138 60.543 48.1213 60.543 51.7078C60.543 55.2943 63.6066 58.2017 67.3858 58.2017Z" fill="#1A2D6D"/>
<path d="M60.1899 105.307C62.6652 105.307 64.6718 103.402 64.6718 101.053C64.6718 98.7043 62.6652 96.8 60.1899 96.8C57.7146 96.8 55.708 98.7043 55.708 101.053C55.708 103.402 57.7146 105.307 60.1899 105.307Z" fill="#FFC800"/>
<path opacity="0.2" d="M73.0478 47.0552C73.8181 47.4944 74.4896 48.0733 75.0241 48.7588C75.5586 49.4444 75.9455 50.2231 76.1629 51.0505C76.3803 51.878 76.4238 52.738 76.291 53.5814C76.1581 54.4248 75.8515 55.2351 75.3887 55.9661C74.9259 56.697 74.3158 57.3343 73.5935 57.8416C72.8711 58.3488 72.0506 58.716 71.1787 58.9223C70.3068 59.1286 69.4006 59.1699 68.5118 59.0438C67.6231 58.9178 66.7693 58.6268 65.999 58.1876C67.5851 58.5224 69.2449 58.3106 70.6814 57.5902C72.1179 56.8697 73.2374 55.6876 73.8395 54.2554C74.4415 52.8232 74.4868 51.2344 73.9673 49.7734C73.4478 48.3124 72.3973 47.0746 71.004 46.2814C71.7248 46.433 72.415 46.6943 73.0478 47.0552Z" fill="#231F20"/>
<path opacity="0.2" d="M89.7342 55.9475C87.3196 65.9808 69.0707 77.144 63.863 95.9644C62.8228 95.0317 61.8567 94.0273 60.9727 92.9593C66.8247 75.2687 83.9377 64.5192 86.2707 54.8252C88.3588 46.1489 82.4933 37.9033 74.077 34.42C84.265 36.8505 92.0987 46.1228 89.7342 55.9475Z" fill="#231F20"/>
<path d="M241.602 30.0069C239.63 29.2638 237.522 28.8966 235.4 28.9265C233.278 28.9563 231.182 29.3826 229.234 30.1809C227.285 30.9792 225.521 32.134 224.043 33.5792C222.564 35.0245 221.4 36.7319 220.617 38.604C217.324 46.4774 216.778 65.2797 222.907 74.7032C230.787 61.713 246.729 56.9164 250.661 49.9219C254.863 42.448 249.899 33.1323 241.602 30.0069Z" fill="#FFC800"/>
<path d="M234.968 47.506C237.879 47.506 240.239 45.2664 240.239 42.5037C240.239 39.741 237.879 37.5014 234.968 37.5014C232.057 37.5014 229.697 39.741 229.697 42.5037C229.697 45.2664 232.057 47.506 234.968 47.506Z" fill="#1A2D6D"/>
<path d="M219.109 81.0783C221.015 81.0783 222.561 79.6114 222.561 77.8019C222.561 75.9924 221.015 74.5255 219.109 74.5255C217.202 74.5255 215.656 75.9924 215.656 77.8019C215.656 79.6114 217.202 81.0783 219.109 81.0783Z" fill="#FFC800"/>
<path opacity="0.2" d="M240.167 40.1316C241.133 41.0897 241.658 42.3724 241.628 43.6979C241.598 45.0233 241.014 46.2832 240.006 47.2005C238.997 48.1179 237.646 48.6178 236.249 48.5903C234.852 48.5628 233.524 48.0102 232.557 47.054C233.664 47.6071 234.943 47.7682 236.164 47.5082C237.386 47.2483 238.469 46.5844 239.222 45.6354C239.975 44.6863 240.347 43.5141 240.272 42.3285C240.197 41.1428 239.68 40.0212 238.813 39.1643C239.317 39.4153 239.774 39.7419 240.167 40.1316Z" fill="#231F20"/>
<path opacity="0.2" d="M250.677 49.9426C246.745 56.9372 230.802 61.7337 222.922 74.7239C222.348 73.831 221.844 72.8991 221.414 71.9357C229.532 59.9089 244.542 55.2019 248.341 48.444C251.742 42.3954 249.138 35.1412 243.625 30.9374C250.68 34.6986 254.527 43.0935 250.677 49.9426Z" fill="#231F20"/>
<path d="M233.602 173.694C229.405 173.694 224.805 173.468 219.801 173.016C193.922 170.675 160.401 162.534 125.413 150.095C90.4244 137.656 58.1488 122.403 34.5317 107.147C23.0271 99.7158 14.1974 92.6812 8.28817 86.2386C2.03179 79.4182 -0.704839 73.473 0.153986 68.5691C1.82738 59.0154 16.6444 56.9252 28.7798 56.8542L28.7839 58.2436C12.1189 58.341 2.28734 62.1277 1.10028 68.9056C-0.411835 77.5383 11.9203 91.0155 34.9344 105.882C58.4996 121.104 90.7159 136.327 125.649 148.747C160.582 161.167 194.041 169.293 219.863 171.629C245.081 173.912 260.412 170.269 261.924 161.636C263.179 154.468 254.903 143.91 238.621 131.904L239.069 130.67C250.9 139.394 264.633 151.905 262.87 161.973C262.011 166.876 257.635 170.292 249.863 172.126C245.433 173.17 239.991 173.694 233.602 173.694Z" fill="#FFC800"/>
<path d="M296.34 121.8C304.58 121.8 311.136 123.484 316.009 126.852C320.881 130.148 323.317 135.092 323.317 141.684C323.317 146.556 322.099 150.641 319.663 153.937C317.298 157.161 314.038 159.597 309.882 161.245C305.798 162.822 301.105 163.61 295.802 163.61L293.33 155.226C299.851 155.226 305.619 156.122 310.635 157.913C315.722 159.705 319.735 162.284 322.672 165.652C325.61 168.948 327.079 172.925 327.079 177.582C327.079 181.882 326.291 185.536 324.715 188.545C323.21 191.483 321.132 193.884 318.481 195.747C315.901 197.538 312.963 198.863 309.667 199.723C306.371 200.511 302.968 200.906 299.457 200.906H273.124V121.8H296.34ZM298.167 154.152C301.248 154.152 303.505 153.22 304.938 151.357C306.443 149.494 307.195 147.38 307.195 145.016C307.195 142.293 306.264 140.251 304.401 138.889C302.609 137.528 300.173 136.847 297.092 136.847H288.709V154.152H298.167ZM298.704 186.396C300.997 186.396 303.075 186.109 304.938 185.536C306.801 184.891 308.27 183.924 309.345 182.634C310.42 181.272 310.957 179.589 310.957 177.582C310.957 175.289 310.312 173.57 309.022 172.423C307.733 171.205 306.049 170.381 303.971 169.951C301.965 169.45 299.851 169.199 297.63 169.199H288.709V186.396H298.704Z" fill="#F8F9FA"/>
<path d="M413.543 204.13L353.569 149.96L358.191 152.539L358.513 200.906H342.713V118.683H343.358L402.042 172.638L398.603 171.134L398.281 121.8H413.973V204.13H413.543Z" fill="#F8F9FA"/>
<path d="M425.746 193.167C425.746 190.946 426.534 189.083 428.111 187.578C429.759 186.073 431.55 185.321 433.485 185.321C435.276 185.321 436.96 186.073 438.536 187.578C440.184 189.083 441.008 190.946 441.008 193.167C441.008 195.532 440.184 197.43 438.536 198.863C436.96 200.225 435.276 200.906 433.485 200.906C431.55 200.906 429.759 200.225 428.111 198.863C426.534 197.43 425.746 195.532 425.746 193.167Z" fill="#F8F9FA"/>
</svg>
