<svg width="261" height="169" viewBox="0 0 261 169" fill="none" xmlns="http://www.w3.org/2000/svg">
<g clip-path="url(#clip0_58_785)">
<path d="M19.3278 156.128C15.7993 155.148 14.2936 160.534 17.8132 161.546C21.3415 162.525 22.8472 157.139 19.3278 156.128Z" fill="#3F3D56"/>
<path d="M38.8913 163.06C35.3628 162.081 33.857 167.467 37.3766 168.478C40.905 169.458 42.4107 164.071 38.8913 163.06Z" fill="#3F3D56"/>
<path d="M46.8091 106.253L46.7545 106.238L37.666 131.041L36.4678 130.703L45.6215 105.722C45.6413 105.337 45.7915 104.97 46.0472 104.683C46.3029 104.395 46.6487 104.204 47.0271 104.142C51.5723 103.419 53.4147 107.475 53.4147 107.475L53.3965 107.502L44.1045 132.86L42.9063 132.522L51.9248 107.91C49.1793 105.18 46.8091 106.253 46.8091 106.253Z" fill="#3F3D56"/>
<path d="M36.3039 164.455C30.9468 164.373 24.322 161.463 19.805 159.282C18.6085 158.705 17.653 157.722 17.1071 156.507C16.5611 155.291 16.4598 153.92 16.8211 152.637L22.6751 131.701C22.9363 130.774 23.3825 129.909 23.9866 129.16C24.5906 128.411 25.3399 127.793 26.1888 127.344C27.0125 126.904 27.9178 126.639 28.848 126.567C29.7781 126.495 30.7131 126.617 31.5943 126.925C31.8034 127.019 37.4904 128.619 41.2538 129.678C43.4676 130.3 45.0672 130.751 45.1743 130.787C45.263 130.816 49.2415 132.19 48.5355 137.022C47.9932 140.733 43.9004 154.407 42.1659 160.114C41.789 161.362 41.0258 162.455 39.9874 163.236C38.949 164.017 37.6897 164.444 36.3929 164.456C36.3635 164.456 36.3335 164.455 36.3039 164.455Z" fill="#F9A826"/>
<path d="M19.6748 155.828L27.2642 130.006L45.1113 135.076L45.2179 134.697L26.998 129.521L26.9431 129.708L19.2988 155.716L19.6748 155.828Z" fill="#3F3D56"/>
<path d="M260.718 4.30823H104.387V78.8763H260.718V4.30823Z" fill="#E5E5E5"/>
<path d="M256.433 10.7025H109.042V72.917H256.433V10.7025Z" fill="white"/>
<path d="M260.651 0H104.32V6.67599H260.651V0Z" fill="#F9A826"/>
<path d="M109.255 4.563C109.935 4.563 110.486 4.00901 110.486 3.32563C110.486 2.64225 109.935 2.08826 109.255 2.08826C108.576 2.08826 108.024 2.64225 108.024 3.32563C108.024 4.00901 108.576 4.563 109.255 4.563Z" fill="white"/>
<path d="M113.928 4.563C114.608 4.563 115.159 4.00901 115.159 3.32563C115.159 2.64225 114.608 2.08826 113.928 2.08826C113.248 2.08826 112.697 2.64225 112.697 3.32563C112.697 4.00901 113.248 4.563 113.928 4.563Z" fill="white"/>
<path d="M118.6 4.563C119.28 4.563 119.831 4.00901 119.831 3.32563C119.831 2.64225 119.28 2.08826 118.6 2.08826C117.92 2.08826 117.369 2.64225 117.369 3.32563C117.369 4.00901 117.92 4.563 118.6 4.563Z" fill="white"/>
<path d="M178.616 40.9465C178.62 43.7613 178.121 46.5538 177.142 49.1912C176.698 50.3992 176.153 51.5673 175.513 52.6831C173.456 56.2917 170.487 59.2903 166.907 61.3757C163.327 63.4611 159.263 64.5593 155.125 64.5593C150.987 64.5593 146.923 63.4611 143.343 61.3757C139.763 59.2903 136.794 56.2917 134.737 52.6831C134.529 52.3202 134.331 51.9519 134.144 51.5781C132.547 48.3939 131.689 44.8876 131.632 41.3222C131.576 37.7568 132.324 34.2248 133.819 30.9913C135.315 27.7578 137.519 24.9067 140.267 22.652C143.016 20.3972 146.236 18.7972 149.687 17.9722C153.138 17.1472 156.731 17.1185 160.194 17.8882C163.658 18.6579 166.904 20.2062 169.687 22.4167C172.471 24.6273 174.72 27.4427 176.266 30.6519C177.813 33.8611 178.616 37.3807 178.616 40.9465V40.9465Z" fill="#F1F1F1"/>
<path d="M156.347 44.9331C158.827 44.9331 160.838 42.9119 160.838 40.4186C160.838 37.9253 158.827 35.9041 156.347 35.9041C153.866 35.9041 151.855 37.9253 151.855 40.4186C151.855 42.9119 153.866 44.9331 156.347 44.9331Z" fill="#F9A826"/>
<path d="M134.145 51.5781C136.123 49.4285 138.769 46.0157 141.25 48.4817C142.495 49.6448 144.443 52.5272 146.309 50.6429L160.875 36.0006C161.149 35.7285 161.475 35.5142 161.833 35.3703C162.19 35.2264 162.573 35.1559 162.958 35.1628C163.344 35.1698 163.724 35.254 164.076 35.4107C164.429 35.5673 164.746 35.7932 165.011 36.0751L177.142 49.1912C176.698 50.3992 176.153 51.5673 175.513 52.6831H134.737L134.145 51.5781Z" fill="white"/>
<path d="M226.588 36.3201C226.427 36.3201 226.273 36.3843 226.159 36.4988C226.045 36.6132 225.981 36.7683 225.981 36.9301C225.981 37.0919 226.045 37.2471 226.159 37.3615C226.273 37.4759 226.427 37.5402 226.588 37.5402H232.956C233.117 37.5402 233.272 37.4759 233.385 37.3615C233.499 37.2471 233.563 37.0919 233.563 36.9301C233.563 36.7683 233.499 36.6132 233.385 36.4988C233.272 36.3843 233.117 36.3201 232.956 36.3201H226.588Z" fill="#F9A826"/>
<path d="M197.896 27.3596C197.816 27.3594 197.737 27.3751 197.664 27.4057C197.59 27.4363 197.523 27.4812 197.466 27.5378C197.41 27.5945 197.365 27.6618 197.334 27.7359C197.304 27.81 197.288 27.8894 197.288 27.9697C197.288 28.0499 197.304 28.1293 197.334 28.2034C197.365 28.2775 197.41 28.3448 197.466 28.4015C197.523 28.4582 197.59 28.5031 197.664 28.5337C197.737 28.5642 197.816 28.5799 197.896 28.5797H233.235C233.396 28.5794 233.55 28.515 233.663 28.4006C233.777 28.2862 233.841 28.1312 233.841 27.9697C233.841 27.8081 233.777 27.6531 233.663 27.5388C233.55 27.4244 233.396 27.36 233.235 27.3596H197.896Z" fill="#E5E5E5"/>
<path d="M197.896 31.8398C197.816 31.8397 197.737 31.8553 197.664 31.8859C197.59 31.9165 197.523 31.9614 197.466 32.0181C197.41 32.0747 197.365 32.142 197.334 32.2161C197.304 32.2902 197.288 32.3697 197.288 32.4499C197.288 32.5301 197.304 32.6096 197.334 32.6837C197.365 32.7578 197.41 32.8251 197.466 32.8817C197.523 32.9384 197.59 32.9833 197.664 33.0139C197.737 33.0445 197.816 33.0601 197.896 33.06H233.235C233.396 33.0596 233.55 32.9952 233.663 32.8808C233.777 32.7664 233.841 32.6115 233.841 32.4499C233.841 32.2883 233.777 32.1334 233.663 32.019C233.55 31.9046 233.396 31.8402 233.235 31.8398H197.896Z" fill="#E5E5E5"/>
<path d="M226.588 65.0681C226.427 65.0685 226.273 65.1329 226.16 65.2473C226.046 65.3616 225.982 65.5166 225.982 65.6782C225.982 65.8397 226.046 65.9947 226.16 66.1091C226.273 66.2235 226.427 66.2879 226.588 66.2882H232.957C233.036 66.2884 233.115 66.2727 233.189 66.2422C233.263 66.2116 233.33 66.1667 233.387 66.11C233.443 66.0533 233.488 65.986 233.518 65.9119C233.549 65.8378 233.565 65.7584 233.565 65.6782C233.565 65.5979 233.549 65.5185 233.518 65.4444C233.488 65.3703 233.443 65.303 233.387 65.2463C233.33 65.1897 233.263 65.1448 233.189 65.1142C233.115 65.0836 233.036 65.0679 232.957 65.0681H226.588Z" fill="#F9A826"/>
<path d="M197.896 56.1077C197.735 56.1077 197.581 56.1719 197.467 56.2864C197.353 56.4008 197.289 56.5559 197.289 56.7177C197.289 56.8795 197.353 57.0347 197.467 57.1491C197.581 57.2635 197.735 57.3278 197.896 57.3278H233.235C233.396 57.3278 233.55 57.2635 233.664 57.1491C233.778 57.0347 233.842 56.8795 233.842 56.7177C233.842 56.5559 233.778 56.4008 233.664 56.2864C233.55 56.1719 233.396 56.1077 233.235 56.1077H197.896Z" fill="#E5E5E5"/>
<path d="M197.896 60.5879C197.816 60.5877 197.737 60.6034 197.664 60.634C197.59 60.6645 197.523 60.7094 197.466 60.7661C197.41 60.8228 197.365 60.8901 197.334 60.9642C197.304 61.0383 197.288 61.1177 197.288 61.1979C197.288 61.2782 197.304 61.3576 197.334 61.4317C197.365 61.5058 197.41 61.5731 197.466 61.6298C197.523 61.6864 197.59 61.7313 197.664 61.7619C197.737 61.7925 197.816 61.8082 197.896 61.808H233.235C233.396 61.808 233.55 61.7437 233.664 61.6293C233.778 61.5149 233.842 61.3597 233.842 61.1979C233.842 61.0361 233.778 60.881 233.664 60.7666C233.55 60.6522 233.396 60.5879 233.235 60.5879H197.896Z" fill="#E5E5E5"/>
<path d="M219.11 20.5245H217.196L215.553 18.1582H214.858L215.683 20.5245H213.811L213.042 19.752H212.392L212.717 21.1811L212.392 22.4303H213.042L213.811 21.6578L213.823 21.6375H215.705L214.858 24.0661H215.553L217.203 21.69L217.222 21.6375H219.11C219.256 21.6375 219.397 21.5788 219.501 21.4745C219.605 21.3701 219.663 21.2286 219.663 21.081C219.663 20.9334 219.605 20.7918 219.501 20.6875C219.397 20.5831 219.256 20.5245 219.11 20.5245L219.11 20.5245Z" fill="#E5E5E5"/>
<path d="M217.487 51.3994H214.463C214.193 51.3991 213.933 51.2909 213.741 51.0984C213.55 50.9059 213.442 50.6449 213.442 50.3727V47.6076C213.441 47.4237 213.5 47.2446 213.611 47.0981C213.721 46.9517 213.877 46.846 214.053 46.7975C215.311 46.4627 216.633 46.4637 217.889 46.8002C218.068 46.8476 218.225 46.9531 218.337 47.1002C218.449 47.2473 218.509 47.4276 218.509 47.6128V50.3727C218.508 50.6449 218.401 50.9059 218.209 51.0984C218.018 51.2909 217.758 51.3991 217.487 51.3994V51.3994Z" fill="#E5E5E5"/>
<path d="M217.928 47.708H214.023V49.1799H217.928V47.708Z" fill="white"/>
<path d="M214.511 50.6519C214.781 50.6519 214.999 50.4323 214.999 50.1613C214.999 49.8903 214.781 49.6707 214.511 49.6707C214.241 49.6707 214.023 49.8903 214.023 50.1613C214.023 50.4323 214.241 50.6519 214.511 50.6519Z" fill="white"/>
<path d="M217.44 50.6519C217.709 50.6519 217.928 50.4323 217.928 50.1613C217.928 49.8903 217.709 49.6707 217.44 49.6707C217.17 49.6707 216.952 49.8903 216.952 50.1613C216.952 50.4323 217.17 50.6519 217.44 50.6519Z" fill="white"/>
<path d="M218.305 52.7993H213.593L214.707 51.866H217.191L218.305 52.7993ZM214.326 52.5327H217.572L217.095 52.1326H214.803L214.326 52.5327Z" fill="#E5E5E5"/>
<path d="M218.549 51.5862H213.349C213.275 51.5862 213.204 51.5567 213.152 51.5041C213.1 51.4516 213.07 51.3804 213.07 51.3061C213.07 51.2319 213.1 51.1607 213.152 51.1081C213.204 51.0556 213.275 51.0261 213.349 51.0261H218.549C218.623 51.0261 218.693 51.0556 218.746 51.1081C218.798 51.1607 218.827 51.2319 218.827 51.3061C218.827 51.3804 218.798 51.4516 218.746 51.5041C218.693 51.5567 218.623 51.5862 218.549 51.5862V51.5862Z" fill="#E5E5E5"/>
<path d="M51.2614 108.349C51.4254 108.014 51.5141 107.646 51.5214 107.272C51.5287 106.898 51.4543 106.527 51.3036 106.185C51.1528 105.844 50.9293 105.539 50.6488 105.293C50.3683 105.048 50.0376 104.867 49.6801 104.764L49.1909 95.6868L45.4136 98.4968L46.4572 106.686C46.3244 107.301 46.4207 107.944 46.7279 108.492C47.0351 109.041 47.5319 109.457 48.1241 109.662C48.7163 109.868 49.3627 109.847 49.9409 109.605C50.5192 109.363 50.989 108.916 51.2614 108.349V108.349Z" fill="#FFB7B7"/>
<path d="M80.5242 110.038C80.3107 109.732 80.1666 109.383 80.1021 109.014C80.0375 108.646 80.0541 108.268 80.1506 107.907C80.2472 107.546 80.4213 107.21 80.6607 106.924C80.9002 106.638 81.1992 106.408 81.5366 106.25L80.6279 97.2063L84.791 99.3974L85.0157 107.65C85.2413 108.237 85.2448 108.887 85.0254 109.477C84.806 110.067 84.379 110.555 83.8254 110.85C83.2717 111.144 82.6299 111.224 82.0214 111.075C81.413 110.925 80.8803 110.556 80.5242 110.038H80.5242Z" fill="#FFB7B7"/>
<path d="M58.3072 165.64L61.2814 165.64L62.6966 154.107H58.3066L58.3072 165.64Z" fill="#FFB7B7"/>
<path d="M57.5483 164.664L63.406 164.664H63.4063C64.3963 164.664 65.3457 165.059 66.0458 165.763C66.7459 166.466 67.1392 167.421 67.1392 168.416V168.538L57.5485 168.538L57.5483 164.664Z" fill="#2F2E41"/>
<path d="M73.3296 163.844L76.2381 164.471L80.0257 153.492L75.7332 152.568L73.3296 163.844Z" fill="#FFB7B7"/>
<path d="M72.7909 162.73L78.5186 163.964L78.5188 163.964C79.4868 164.172 80.3328 164.759 80.8706 165.594C81.4084 166.43 81.5941 167.446 81.3867 168.419L81.3613 168.538L71.9834 166.518L72.7909 162.73Z" fill="#2F2E41"/>
<path d="M52.9441 99.6428C52.9441 99.6428 49.7796 109.474 52.8787 120.591L56.033 133.908L56.8158 163.374L63.2033 161.313L65.8056 116.368L77.7919 136.82L71.4833 161.313L78.7382 161.551L86.5724 135.062L79.6845 110.344L78.4228 104.32L52.9441 99.6428Z" fill="#2F2E41"/>
<path d="M78.8052 66.994L72.4519 63.3537L61.4606 62.7151L53.8367 66.7385L56.935 88.1055C56.935 88.1055 51.0257 96.6307 53.1802 102.311C55.8393 109.321 79.0918 112.979 78.6369 106.137C77.9192 95.34 76.8108 96.0846 75.9981 90.7901C75.1064 84.9806 81.3465 77.5315 81.3465 77.5315L78.8052 66.994Z" fill="#CBCBCB"/>
<path d="M56.1873 68.8461L55.479 65.7607C55.479 65.7607 52.4577 66.1539 50.3639 72.0327C48.27 77.9116 44.548 90.3044 44.548 90.3044L44.7424 94.8066C44.7424 94.8066 43.308 96.4725 44.2977 97.2334C45.2873 97.9943 42.51 99.0259 43.9165 100.107C44.534 100.583 45.0016 101.228 45.2631 101.964C45.5246 102.701 45.5688 103.497 45.3904 104.258L49.7106 102.917L49.393 95.8284L51.1046 90.2405L55.679 76.2543L56.1873 68.8461Z" fill="#CBCBCB"/>
<path d="M76.4788 69.3719L77.4412 66.3799C77.4412 66.3799 79.2135 65.6508 80.5217 69.7591C81.83 73.8674 82.4509 84.2638 82.4509 84.2638L84.9923 96.6563C84.9923 96.6563 85.9419 98.2346 85.437 98.687C84.9321 99.1394 87.6546 99.7755 86.0723 100.614C84.49 101.452 86.2088 100.433 85.6176 102.344C85.2293 103.599 85.6276 104.258 85.6276 104.258L80.7355 103.269L79.4013 96.9166L76.375 85.106L76.4788 69.3719Z" fill="#CBCBCB"/>
<path d="M66.9803 60.0282C71.6401 60.0282 75.4176 56.231 75.4176 51.547C75.4176 46.8629 71.6401 43.0657 66.9803 43.0657C62.3205 43.0657 58.543 46.8629 58.543 51.547C58.543 56.231 62.3205 60.0282 66.9803 60.0282Z" fill="#2F2E41"/>
<path d="M66.1133 46.2689C64.2977 44.4182 62.1007 42.99 59.6768 42.0849C58.1209 41.5055 56.4273 41.1475 54.8007 41.4766C53.174 41.8056 51.6357 42.9368 51.1819 44.5411C50.8109 45.853 51.194 47.2654 51.7699 48.5003C52.3458 49.7353 53.1146 50.8804 53.5803 52.1614C54.0555 53.4685 54.1984 54.8741 53.996 56.2508C53.7937 57.6275 53.2525 58.9315 52.4216 60.0446C51.5907 61.1577 50.4964 62.0446 49.238 62.6247C47.9797 63.2048 46.5971 63.4599 45.2158 63.3667C46.8141 63.5821 48.2874 64.3371 49.8496 64.7389C51.4118 65.1408 53.2556 65.1135 54.4165 63.9885C55.6448 62.7982 55.6694 60.8629 55.61 59.1489C55.5218 56.601 55.4335 54.0531 55.3452 51.5052C55.3001 50.2058 55.2617 48.8647 55.7279 47.6519C56.1941 46.4391 57.302 45.3771 58.5954 45.3882C59.5756 45.3965 60.4433 45.9935 61.2293 46.5822C62.0155 47.1709 62.8476 47.7989 63.824 47.8865C64.8004 47.9741 65.9153 47.2477 65.8422 46.2651L66.1133 46.2689Z" fill="#2F2E41"/>
<path d="M73.2785 57.6588C74.9238 54.6333 73.8176 50.84 70.8078 49.1861C67.798 47.5322 64.0243 48.6441 62.379 51.6696C60.7337 54.6951 61.8398 58.4884 64.8496 60.1423C67.8594 61.7962 71.6331 60.6843 73.2785 57.6588Z" fill="#FFB7B7"/>
<path d="M76.5637 54.1922H67.5954L67.5034 52.898L67.0435 54.1922H65.6626L65.4804 51.627L64.569 54.1922H61.897V54.0651C61.899 52.2793 62.6056 50.5671 63.8619 49.3043C65.1181 48.0414 66.8214 47.3311 68.5981 47.3291H69.8625C71.6392 47.3311 73.3424 48.0414 74.5987 49.3043C75.855 50.5671 76.5617 52.2792 76.5637 54.0651V54.1922Z" fill="#2F2E41"/>
<path d="M63.2515 58.8445L59.9766 55.549L59.4243 48.2537H66.6533L66.4744 48.4333C63.9842 50.9331 61.2959 54.6016 63.2515 58.8445Z" fill="#2F2E41"/>
<path d="M106.38 169H0.278482C0.204624 169 0.133791 168.971 0.0815652 168.918C0.0293397 168.866 0 168.794 0 168.72C0 168.646 0.0293397 168.575 0.0815652 168.522C0.133791 168.47 0.204624 168.44 0.278482 168.44H106.38C106.454 168.44 106.525 168.47 106.577 168.522C106.629 168.575 106.658 168.646 106.658 168.72C106.658 168.794 106.629 168.866 106.577 168.918C106.525 168.971 106.454 169 106.38 169Z" fill="#CBCBCB"/>
</g>
<defs>
<clipPath id="clip0_58_785">
<rect width="260.717" height="169" fill="white"/>
</clipPath>
</defs>
</svg>
