<svg width="539" height="275" viewBox="0 0 539 275" fill="none" xmlns="http://www.w3.org/2000/svg">
<path d="M286.991 132.395C286.995 148.365 283.683 164.18 277.244 178.935C270.806 193.69 261.367 207.097 249.468 218.39C237.569 229.683 223.441 238.64 207.893 244.75C192.345 250.86 175.681 254.003 158.853 254C88.0845 254 30.7139 199.555 30.7139 132.395C30.7017 119.331 32.9084 106.351 37.249 93.9543C45.771 69.7428 62.0974 48.6864 83.9194 33.7624C105.741 18.8384 131.955 10.8021 158.853 10.79C182.051 10.7823 204.815 16.7531 224.716 28.065C244.618 39.3769 260.908 55.6052 271.85 75.0176C274.563 79.8071 276.929 84.7661 278.933 89.8603C279.211 90.5696 279.481 91.2789 279.744 91.995V92.0018C280.919 95.15 281.954 98.3567 282.848 101.622C285.608 111.67 287 122.012 286.991 132.395Z" fill="#00095E"/>
<path d="M144.833 50.3496C139.075 47.3943 132.681 45.7261 126.14 45.4721C119.599 45.2181 113.083 46.3851 107.09 48.8841C101.812 51.0636 96.2556 54.9735 94.4951 62.0341C101.615 58.0463 110.832 64.347 112.664 74.4546L112.237 74.5664C111.269 81.5674 113.429 89.1895 117.611 93.5306C118.161 89.0215 121.285 85.9526 124.358 84.0355C127.431 82.1185 130.83 80.7259 133.175 77.4308C135.956 73.5243 136.662 67.8151 137.767 62.6069C138.871 57.3987 140.967 51.8008 144.833 50.3496Z" fill="white"/>
<path d="M104.977 109.925C103.005 112.735 100.372 114.499 98.0081 116.694C95.6519 118.897 93.4093 121.869 92.9395 125.686C92.6405 128.132 93.1033 130.618 93.0391 133.091C92.9752 135.563 92.1066 138.347 90.334 138.962C87.5363 139.921 85.4006 134.989 82.5247 134.645C80.2395 134.374 78.1823 137.786 78.8443 140.745C79.5063 143.704 82.6173 145.015 84.4041 143.083C86.0201 145.657 84.881 150.325 82.4535 151.115C82.1972 152.737 81.941 154.351 81.6918 155.973C75.5554 151.899 69.3549 147.758 64.1368 141.792C58.3334 135.214 54.7339 127.14 53.8003 118.606C53.124 111.749 54.1277 103.906 50.8104 98.6294C48.155 94.407 43.5989 93.4746 39.4985 93.7382C38.7511 93.7854 37.9965 93.8665 37.249 93.9543C39.6672 87.0617 42.7385 80.3912 46.4251 74.0246C47.2594 73.6847 48.0347 73.2269 48.7245 72.6666C52.5402 69.5928 54.2345 63.3706 57.3312 59.0671C57.5305 58.7901 57.737 58.5199 57.9505 58.2565C61.1185 54.3313 65.3612 52.3113 69.4617 50.4331C78.5382 46.2513 87.878 42.0154 97.46 42.5964L94.7335 42.8464C91.5514 51.3047 88.3669 59.763 85.18 68.2213C84.6959 69.5184 84.2071 70.8178 83.7136 72.1194C81.9054 76.9295 80.0403 82.0505 80.3179 87.4349C80.4816 90.6236 81.649 94.0286 83.8702 95.123C85.9417 96.1364 88.2055 94.8933 90.2059 93.6637C91.053 93.1503 91.8931 92.6368 92.7402 92.1166C95.78 90.2588 99.1471 88.3536 102.358 89.5967C105.298 90.7317 107.469 94.5217 107.882 98.609C108.261 102.582 107.239 106.562 104.977 109.925Z" fill="white"/>
<path d="M123.056 167.672C114.179 162.485 105.301 157.297 96.4228 152.11L96.5735 151.741C91.0537 153.736 88.762 163.048 89.6742 170.663C90.5864 178.278 93.6796 185.085 95.2422 192.505C97.3493 202.658 96.554 213.162 92.939 222.925C104.613 210.495 114.944 196.984 123.778 182.597C125.012 180.784 125.952 178.805 126.567 176.727C127.131 174.516 127.045 171.858 125.915 170.086C125.189 169.068 124.206 168.238 123.056 167.672Z" fill="white"/>
<path d="M88.0188 73.2962C87.0761 75.3077 86.7134 77.9898 87.5689 80.0711C88.4425 82.1967 90.2895 83.1573 91.99 83.9571L96.8954 86.2647C98.5274 87.0323 100.286 87.8077 101.95 87.1761C103.957 86.4143 105.348 83.4289 104.988 80.6575C104.605 77.7082 102.646 75.6796 100.834 73.952C98.2991 71.5344 95.7638 69.1168 93.2285 66.6993L91.7997 68.3601C90.2542 69.7906 88.9758 71.4597 88.0188 73.2962Z" fill="white"/>
<path d="M260.695 104.824C262.902 105.318 265.109 105.811 267.316 106.304C266.931 113.377 263.237 119.924 258.282 122.295C256.217 123.281 253.918 123.646 252.209 125.491C250.665 127.166 249.882 129.774 249.163 132.267C247.903 136.617 246.643 140.968 245.382 145.319C244.03 150.007 242.293 155.216 238.776 156.905C235.758 158.358 232.305 156.581 229.985 153.601C227.664 150.622 226.247 146.616 224.873 142.711C224.959 146.967 222.873 151.142 219.919 152.622C216.957 154.101 213.355 152.764 211.376 149.46C209.952 147.089 209.361 143.961 207.966 141.556C206.571 139.151 203.645 137.773 202.121 140.029C201.118 141.529 201.246 143.826 200.747 145.731C199.972 148.69 197.622 150.548 195.295 150.71C192.974 150.872 190.71 149.602 188.767 147.879C184.759 144.312 181.804 138.651 180.658 132.361C180.153 129.557 180.01 126.504 180.886 123.876C181.762 121.248 183.876 119.221 185.976 119.721C187.357 116.951 184.631 113.276 182.174 113.6C179.711 113.924 177.782 116.431 175.76 118.356C173.746 120.282 170.927 121.68 168.898 119.768C168.912 121.545 167.389 122.721 166.072 122.572C164.762 122.43 163.594 121.43 162.391 120.721C157.743 117.971 151.841 119.795 148.538 124.997C150.603 116.661 153.628 107.094 159.971 105.135C162.562 104.331 165.388 104.993 167.837 103.601C172.173 101.136 173.048 91.8194 169.304 87.9753C169.781 91.6099 169.688 95.8525 167.666 98.3387C165.645 100.825 161.402 99.2034 161.658 95.5283C161.074 98.0617 158.17 98.4468 156.832 96.5011C155.486 94.5555 155.6 91.3735 156.554 89.0495C157.508 86.7254 159.131 85.0567 160.704 83.4556C164.086 80.0169 167.517 76.5376 171.432 74.3757C175.355 72.2139 179.882 71.4843 183.812 73.6327C185.883 74.7676 187.706 76.6593 189.82 77.6591C191.934 78.6657 194.618 78.5374 196.021 76.1863C197.594 73.5651 196.854 69.6737 197.437 66.3971C198.484 60.6074 204.585 57.8983 207.966 61.722C205.439 61.1073 202.826 63.9447 202.513 67.3835C202.193 70.8222 204.022 74.2947 206.471 75.3352C210.586 77.0646 214.615 72.7138 217.726 68.6874C220.972 64.4717 224.223 60.2583 227.479 56.0472C227.999 55.3302 228.582 54.6567 229.223 54.034C230.242 53.0908 231.602 52.5507 233.025 52.5231C234.449 52.4955 235.83 52.9825 236.89 53.8854C240.179 56.4323 241.723 61.6546 244.422 65.2487C248.337 70.4709 254.196 71.741 259.649 72.7544C263.713 73.5043 267.781 74.2587 271.85 75.0176C274.563 79.8071 276.93 84.766 278.934 89.8602C272.042 92.6368 265.685 97.8321 260.695 104.824Z" fill="white"/>
<path d="M273.837 186.111C270.787 191.988 267.239 197.62 263.23 202.953C260.667 201.912 257.912 203.77 255.513 205.513C253.007 207.337 249.996 209.114 247.426 207.452C244.799 205.75 243.952 200.987 244.785 197.21C245.618 193.441 247.696 190.441 249.711 187.59C251.847 184.564 254.132 181.422 257.1 180.247C260.076 179.071 263.899 180.733 264.767 184.746L266.874 184.678C265.693 183.138 266.312 179.949 267.9 179.389C269.729 178.733 271.317 181.118 272.399 183.226C272.883 184.178 273.374 185.138 273.837 186.111Z" fill="white"/>
<path d="M193.133 157.575C188.604 157.845 185.016 152.553 182.632 147.348C180.248 142.142 178.073 136.189 173.986 133.54C171.651 132.026 168.989 131.818 166.456 131.084C163.923 130.351 161.272 128.833 160.061 125.741L157.188 124.64C153.394 126.664 149.549 128.726 146.28 132.021C142.613 135.718 140.329 140.456 139.78 145.507C139.231 150.964 141.258 157.05 145.045 159.1C148.037 160.72 151.521 159.699 154.552 161.182C158.339 163.035 160.587 168.417 161.438 173.732C162.289 179.046 162.073 184.569 162.682 189.944C163.291 195.318 164.969 200.911 168.442 203.666C172.788 207.112 179.164 204.248 181.114 197.974C182.071 194.896 182.038 191.423 182.753 188.229C184.013 182.603 187.412 178.429 190.108 173.813C192.804 169.198 194.926 162.93 193.133 157.575Z" fill="white"/>
<path d="M148.377 102.291C148.8 102.66 149.194 103.057 149.557 103.479C149.932 104.093 150.124 104.794 150.111 105.504C150.099 106.214 149.882 106.908 149.484 107.51C150.03 107.481 150.563 107.344 151.05 107.109C151.537 106.874 151.968 106.546 152.315 106.145C153.141 105.252 153.868 104.279 154.485 103.244C154.947 102.529 155.438 101.563 155.124 100.714C154.91 100.134 154.404 99.887 154.05 99.4513C153.487 98.7605 153.348 97.6633 153.057 96.7152C152.429 94.6674 150.923 93.1617 149.289 92.9464L149.516 92.9876C148.833 93.2096 148.356 94.2384 148.507 95.1641C148.645 96.0072 149.216 96.7071 149.159 97.5669C149.077 98.8033 147.775 99.3835 147.695 100.62C147.682 101.24 147.927 101.84 148.377 102.291Z" fill="white"/>
<path d="M140.617 81.2797C140.624 81.278 140.631 81.2776 140.637 81.276C140.777 81.1555 140.906 81.0249 141.024 80.8853L140.617 81.2797Z" fill="#E6E6E6"/>
<path d="M141.976 87.0833C142.977 86.4722 143.536 84.7821 143.205 83.3675C142.876 81.9616 141.712 81.0164 140.638 81.276C140.326 81.5758 139.939 81.7955 139.513 81.9144C139.088 82.0334 138.637 82.0476 138.204 81.9559C137.54 81.7936 136.811 81.3758 136.235 81.8506C135.906 82.2052 135.675 82.6325 135.564 83.0935C135.351 83.7146 135.138 84.3356 134.925 84.9565C134.824 85.1789 134.797 85.4254 134.849 85.6625C134.89 85.7576 134.956 85.841 135.041 85.9049C135.125 85.9687 135.226 86.0108 135.333 86.0272C136.612 86.385 137.891 86.7429 139.17 87.1007C140.102 87.3615 141.108 87.6127 141.976 87.0833Z" fill="white"/>
<path d="M238.536 167.207C237.945 166.288 237.354 165.369 236.762 164.451C236.182 163.387 235.388 162.441 234.425 161.666C234.213 161.497 233.968 161.371 233.705 161.294C233.441 161.217 233.163 161.19 232.889 161.217C232.614 161.243 232.347 161.321 232.105 161.446C231.862 161.571 231.649 161.741 231.477 161.946L231.549 162.471C232.896 164.075 234.322 165.858 234.664 168.239C234.799 169.178 234.752 170.15 234.87 171.093C234.988 172.036 235.324 173.013 235.966 173.42C236.897 174.01 237.99 173.14 238.652 172.078C239.245 171.206 239.51 170.17 239.407 169.137C239.259 168.444 238.963 167.787 238.536 167.207Z" fill="white"/>
<path d="M264.851 132.122C265.022 131.058 265.193 129.994 265.364 128.93C265.641 127.761 265.676 126.552 265.465 125.371C265.418 125.113 265.316 124.866 265.166 124.646C265.017 124.426 264.822 124.236 264.595 124.088C264.367 123.94 264.11 123.837 263.839 123.785C263.569 123.732 263.29 123.732 263.019 123.783L262.718 124.229C262.661 126.28 262.542 128.515 261.187 130.546C260.654 131.346 259.958 132.061 259.409 132.855C258.86 133.648 258.453 134.602 258.668 135.305C258.98 136.325 260.406 136.328 261.634 135.92C262.679 135.615 263.585 134.984 264.207 134.131C264.564 133.51 264.783 132.827 264.851 132.122Z" fill="#E6E6E6"/>
<path d="M247.811 168.402C248.1 167.614 247.683 166.709 247.595 165.837C247.553 164.712 247.867 163.6 248.498 162.645C249.124 161.745 249.599 160.758 249.905 159.719C250.033 159.245 250.01 158.746 249.837 158.285C249.641 157.868 249.167 157.678 248.895 158.008L249.477 158.364C248.692 158.231 247.884 158.268 247.116 158.472C246.677 158.631 246.286 158.889 245.974 159.222C245.663 159.555 245.44 159.955 245.326 160.387C245.23 161.061 245.073 161.725 244.857 162.373C244.51 163.05 243.838 163.276 243.416 163.87C243.128 164.397 242.982 164.983 242.993 165.577C243.003 166.17 243.169 166.752 243.475 167.269C244.005 168.116 244.848 168.745 245.84 169.034C246.551 169.276 247.486 169.289 247.811 168.402Z" fill="white"/>
<path d="M264.329 173.132C264.586 173.766 264.93 174.365 265.353 174.914C266.144 175.67 267.218 175.206 268.178 175.022C269.048 174.891 269.94 174.987 270.758 175.298C271.576 175.61 272.29 176.125 272.824 176.79C272.452 175.03 271.64 173.379 270.456 171.978C269.273 170.577 267.752 169.465 266.022 168.737C263.761 167.863 261.379 167.778 259.027 167.699L258.621 167.798C259.656 170.658 262.907 170.594 264.329 173.132Z" fill="white"/>
<path d="M194.372 178.982L194.378 178.994C194.418 178.922 194.458 178.849 194.498 178.777L194.372 178.982Z" fill="#E6E6E6"/>
<path d="M191.866 183.583C191.32 184.525 190.85 185.504 190.46 186.514C189.945 188.149 189.603 189.829 189.441 191.528C189.314 192.495 189.275 193.729 189.913 194.2C190.096 194.315 190.317 194.364 190.535 194.336C190.753 194.307 190.953 194.205 191.097 194.047C191.451 193.692 191.741 193.282 191.955 192.837C193.209 190.787 194.183 188.594 194.852 186.311C195.463 183.906 195.457 181.075 194.378 178.993C193.541 180.523 192.703 182.053 191.866 183.583Z" fill="white"/>
<path d="M167.693 60.9541C168.091 61.3233 168.594 61.574 169.14 61.6752C169.687 61.7764 170.252 61.7237 170.767 61.5236C171.834 61.081 172.813 60.4676 173.66 59.7102C174.362 59.2174 174.957 58.601 175.414 57.8947C175.665 57.4726 175.826 57.0076 175.888 56.5263C175.949 56.0449 175.91 55.5568 175.772 55.0899C175.376 53.9903 174.371 53.6217 173.484 53.3722C172.065 52.9726 170.645 52.5731 169.225 52.1736L170.252 51.2951C169.195 50.7569 168.026 51.7557 167.366 52.9923C166.942 53.7997 166.647 54.6622 166.49 55.5517C166.136 57.4926 166.482 59.8038 167.693 60.9541Z" fill="#E6E6E6"/>
<path d="M192.759 52.9686C193.159 53.3872 193.712 53.6457 194.306 53.6915C194.899 53.7374 195.489 53.5671 195.955 53.2154C196.357 52.9294 196.69 52.5663 196.933 52.15C197.177 51.7336 197.325 51.2732 197.369 50.7987C197.47 49.7389 196.917 48.561 196.129 48.4695L196.309 47.4773C194.79 47.2169 192.921 47.1647 192.107 48.9155C191.832 49.5862 191.748 50.3135 191.862 51.0247C191.977 51.736 192.286 52.4063 192.759 52.9686Z" fill="#E6E6E6"/>
<path d="M189.41 0.202218C180.504 -0.751179 171.563 1.69204 164.555 6.99438C157.547 12.2967 153.046 20.0239 152.041 28.4759C149.949 46.0764 159.72 84.2963 177.534 100.118C185.921 69.8051 215.313 51.8254 219.203 35.6655C223.358 18.398 207.956 2.18757 189.41 0.202218Z" fill="#FFC800"/>
<path d="M183.251 39.3299C189.338 39.3299 194.272 34.6471 194.272 28.8706C194.272 23.0941 189.338 18.4113 183.251 18.4113C177.164 18.4113 172.229 23.0941 172.229 28.8706C172.229 34.6471 177.164 39.3299 183.251 39.3299Z" fill="white"/>
<path d="M171.662 115.199C175.649 115.199 178.881 112.131 178.881 108.348C178.881 104.564 175.649 101.497 171.662 101.497C167.675 101.497 164.443 104.564 164.443 108.348C164.443 112.131 167.675 115.199 171.662 115.199Z" fill="#FFC800"/>
<path opacity="0.2" d="M192.37 21.3771C193.61 22.0845 194.692 23.0169 195.553 24.121C196.413 25.2252 197.037 26.4794 197.387 27.8121C197.737 29.1448 197.807 30.5299 197.593 31.8883C197.379 33.2467 196.885 34.5519 196.14 35.7292C195.394 36.9065 194.412 37.9329 193.248 38.7499C192.085 39.5669 190.763 40.1584 189.359 40.4906C186.523 41.1616 183.522 40.7359 181.017 39.3072C183.571 39.8465 186.245 39.5054 188.558 38.345C190.872 37.1846 192.675 35.2807 193.645 32.974C194.614 30.6672 194.687 28.1083 193.851 25.7551C193.014 23.402 191.322 21.4083 189.078 20.1308C190.239 20.375 191.35 20.7959 192.37 21.3771Z" fill="#231F20"/>
<path opacity="0.2" d="M219.246 35.6993C215.357 51.8592 185.965 69.839 177.577 100.152C175.902 98.6493 174.346 97.0315 172.922 95.3115C182.347 66.8185 209.91 49.5052 213.668 33.8918C217.031 19.9175 207.584 6.63683 194.028 1.02667C210.437 4.94123 223.054 19.8753 219.246 35.6993Z" fill="#231F20"/>
<path d="M86.1298 41.0127C79.4416 40.2967 72.7276 42.1315 67.4649 46.1134C62.2021 50.0953 58.8217 55.8981 58.0672 62.2453C56.4962 75.4626 63.8336 104.164 77.2113 116.046C83.5102 93.2821 105.583 79.7799 108.503 67.6444C111.624 54.6771 100.057 42.5036 86.1298 41.0127Z" fill="#FFC800"/>
<path d="M81.5041 70.3963C86.0751 70.3963 89.7807 66.8797 89.7807 62.5417C89.7807 58.2038 86.0751 54.6872 81.5041 54.6872C76.9331 54.6872 73.2275 58.2038 73.2275 62.5417C73.2275 66.8797 76.9331 70.3963 81.5041 70.3963Z" fill="white"/>
<path d="M72.8018 127.371C75.7958 127.371 78.2228 125.068 78.2228 122.226C78.2228 119.385 75.7958 117.082 72.8018 117.082C69.8079 117.082 67.3809 119.385 67.3809 122.226C67.3809 125.068 69.8079 127.371 72.8018 127.371Z" fill="#FFC800"/>
<path opacity="0.2" d="M88.3519 56.9143C89.2835 57.4456 90.0957 58.1458 90.7422 58.9749C91.3887 59.8041 91.8567 60.746 92.1196 61.7468C92.3826 62.7476 92.4352 63.7878 92.2745 64.8079C92.1138 65.828 91.743 66.8081 91.1832 67.6922C90.6234 68.5763 89.8856 69.3472 89.0119 69.9607C88.1381 70.5742 87.1457 71.0184 86.0911 71.2679C85.0365 71.5174 83.9404 71.5673 82.8655 71.4149C81.7905 71.2624 80.7578 70.9105 79.8262 70.3792C81.7445 70.7842 83.7521 70.528 85.4896 69.6566C87.2272 68.7852 88.5812 67.3554 89.3094 65.6231C90.0376 63.8908 90.0924 61.9692 89.464 60.2021C88.8356 58.435 87.5651 56.9377 85.8798 55.9784C86.7516 56.1618 87.5864 56.4778 88.3519 56.9143Z" fill="#231F20"/>
<path opacity="0.2" d="M108.536 67.6698C105.615 79.8054 83.5428 93.3075 77.244 116.071C75.9858 114.943 74.8173 113.728 73.748 112.437C80.8262 91.0393 101.525 78.0375 104.347 66.3124C106.872 55.8182 99.7778 45.8449 89.5981 41.6318C101.921 44.5715 111.396 55.7865 108.536 67.6698Z" fill="#231F20"/>
<path d="M292.224 36.2941C289.838 35.3952 287.289 34.9512 284.722 34.9873C282.155 35.0234 279.621 35.539 277.264 36.5045C274.907 37.4701 272.773 38.8668 270.985 40.6149C269.197 42.3629 267.789 44.4281 266.842 46.6925C262.859 56.2155 262.199 78.9573 269.611 90.3552C279.142 74.6434 298.425 68.8418 303.181 60.3817C308.263 51.3418 302.259 40.0742 292.224 36.2941Z" fill="#FFC800"/>
<path d="M284.2 57.4595C287.721 57.4595 290.575 54.7507 290.575 51.4091C290.575 48.0676 287.721 45.3588 284.2 45.3588C280.679 45.3588 277.824 48.0676 277.824 51.4091C277.824 54.7507 280.679 57.4595 284.2 57.4595Z" fill="white"/>
<path d="M265.018 98.0661C267.324 98.0661 269.193 96.2919 269.193 94.1033C269.193 91.9146 267.324 90.1404 265.018 90.1404C262.711 90.1404 260.842 91.9146 260.842 94.1033C260.842 96.2919 262.711 98.0661 265.018 98.0661Z" fill="#FFC800"/>
<path opacity="0.2" d="M290.489 48.5401C291.657 49.6989 292.292 51.2504 292.255 52.8536C292.219 54.4568 291.513 55.9806 290.293 57.0901C289.073 58.1997 287.439 58.8043 285.749 58.7711C284.06 58.7378 282.454 58.0695 281.283 56.9129C282.623 57.5819 284.17 57.7767 285.647 57.4623C287.124 57.148 288.435 56.3449 289.345 55.1971C290.255 54.0492 290.706 52.6313 290.615 51.1973C290.524 49.7632 289.899 48.4066 288.85 47.3702C289.459 47.6737 290.013 48.0688 290.489 48.5401Z" fill="#231F20"/>
<path opacity="0.2" d="M303.2 60.4068C298.444 68.8669 279.161 74.6684 269.63 90.3803C268.935 89.3004 268.325 88.1732 267.806 87.0079C277.625 72.4613 295.78 66.7681 300.375 58.5942C304.488 51.2783 301.339 42.5041 294.67 37.4196C303.203 41.9687 307.857 52.1226 303.2 60.4068Z" fill="#231F20"/>
<path d="M282.547 210.087C277.471 210.087 271.907 209.814 265.855 209.267C234.554 206.435 194.009 196.589 151.69 181.544C109.37 166.498 70.3323 148.049 41.7669 129.597C27.8519 120.609 17.1721 112.1 10.0247 104.308C2.45749 96.0582 -0.852519 88.8674 0.18625 82.936C2.21026 71.3805 20.1318 68.8524 34.8098 68.7665L34.8148 70.447C14.6581 70.5649 2.76659 75.1449 1.33081 83.343C-0.498124 93.7845 14.4179 110.085 42.254 128.067C70.7566 146.478 109.723 164.891 151.975 179.913C194.228 194.935 234.698 204.764 265.93 207.59C296.431 210.35 314.974 205.944 316.803 195.503C318.321 186.833 308.311 174.062 288.617 159.541L289.159 158.049C303.469 168.6 320.08 183.733 317.948 195.91C316.909 201.841 311.616 205.973 302.215 208.19C296.857 209.454 290.275 210.087 282.547 210.087Z" fill="#FFC800"/>
<path d="M358.43 147.32C368.397 147.32 376.327 149.357 382.22 153.43C388.113 157.417 391.06 163.397 391.06 171.37C391.06 177.263 389.587 182.203 386.64 186.19C383.78 190.09 379.837 193.037 374.81 195.03C369.87 196.937 364.193 197.89 357.78 197.89L354.79 187.75C362.677 187.75 369.653 188.833 375.72 191C381.873 193.167 386.727 196.287 390.28 200.36C393.833 204.347 395.61 209.157 395.61 214.79C395.61 219.99 394.657 224.41 392.75 228.05C390.93 231.603 388.417 234.507 385.21 236.76C382.09 238.927 378.537 240.53 374.55 241.57C370.563 242.523 366.447 243 362.2 243H330.35V147.32H358.43ZM360.64 186.45C364.367 186.45 367.097 185.323 368.83 183.07C370.65 180.817 371.56 178.26 371.56 175.4C371.56 172.107 370.433 169.637 368.18 167.99C366.013 166.343 363.067 165.52 359.34 165.52H349.2V186.45H360.64ZM361.29 225.45C364.063 225.45 366.577 225.103 368.83 224.41C371.083 223.63 372.86 222.46 374.16 220.9C375.46 219.253 376.11 217.217 376.11 214.79C376.11 212.017 375.33 209.937 373.77 208.55C372.21 207.077 370.173 206.08 367.66 205.56C365.233 204.953 362.677 204.65 359.99 204.65H349.2V225.45H361.29ZM500.19 246.9L427.65 181.38L433.24 184.5L433.63 243H414.52V143.55H415.3L486.28 208.81L482.12 206.99L481.73 147.32H500.71V246.9H500.19Z" fill="#00095E"/>
<path d="M517.95 233.64C517.95 230.953 518.903 228.7 520.81 226.88C522.803 225.06 524.97 224.15 527.31 224.15C529.477 224.15 531.513 225.06 533.42 226.88C535.413 228.7 536.41 230.953 536.41 233.64C536.41 236.5 535.413 238.797 533.42 240.53C531.513 242.177 529.477 243 527.31 243C524.97 243 522.803 242.177 520.81 240.53C518.903 238.797 517.95 236.5 517.95 233.64Z" fill="#FFC800"/>
</svg>
