<svg width="261" height="169" viewBox="0 0 261 169" fill="none" xmlns="http://www.w3.org/2000/svg">
<g clip-path="url(#clip0_58_835)">
<path d="M25.7557 156.604C25.8683 160.545 26.572 164.452 27.8462 168.21C27.8745 168.297 27.9058 168.383 27.9363 168.47H35.7371C35.7289 168.392 35.7204 168.304 35.7122 168.21C35.1921 162.599 38.1635 128.861 41.749 123.022C41.4349 123.496 25.1509 138.778 25.7557 156.604Z" fill="#E6E6E6"/>
<path d="M26.3409 168.21C26.4062 168.297 26.474 168.384 26.5435 168.47H32.3958C32.3515 168.396 32.3 168.308 32.2404 168.21C31.2737 166.573 28.4122 161.678 25.7562 156.604C22.9029 151.151 20.2829 145.492 20.5036 143.444C20.4352 143.905 18.46 157.989 26.3409 168.21Z" fill="#E6E6E6"/>
<path d="M121.199 162.442C121.256 164.444 121.614 166.429 122.261 168.338C122.276 168.382 122.292 168.426 122.307 168.47H126.27C126.266 168.43 126.262 168.386 126.258 168.338C125.994 165.487 127.503 148.347 129.325 145.38C129.165 145.621 120.892 153.385 121.199 162.442Z" fill="#E6E6E6"/>
<path d="M121.496 168.338C121.529 168.382 121.564 168.426 121.599 168.47H124.573C124.55 168.432 124.524 168.388 124.494 168.338C124.002 167.506 122.549 165.019 121.199 162.441C119.75 159.671 118.418 156.796 118.531 155.755C118.496 155.99 117.492 163.145 121.496 168.338Z" fill="#E6E6E6"/>
<path d="M97.7356 48.2815L87.6475 55.0139L93.9247 55.6447L102.668 48.7029L97.7356 48.2815Z" fill="#3F3D56"/>
<path d="M58.2672 163.233L64.3348 163.232L67.2215 141.274L58.2661 141.274L58.2672 163.233Z" fill="#9F616A"/>
<path d="M56.7192 161.374L68.6686 161.374H68.6691C70.6887 161.374 72.6255 162.126 74.0536 163.466C75.4817 164.806 76.284 166.623 76.2842 168.518V168.75L56.7196 168.751L56.7192 161.374Z" fill="#2F2E41"/>
<path d="M54.4525 84.8027C54.4525 84.8027 51.8229 87.5917 56.1772 98.4633L55.4102 158.075L69.5212 157.816L72.623 128.738L78.2704 86.3054L54.4525 84.8027Z" fill="#2F2E41"/>
<path d="M40.3635 75.3926C39.5298 75.3905 38.7298 75.0836 38.1333 74.5372C37.5368 73.9907 37.1907 73.2477 37.1685 72.4658L36.5063 49.0514L47.8371 28.8827C48.0944 28.4285 48.4709 28.0434 48.9309 27.7637C49.391 27.484 49.9195 27.319 50.4664 27.2843L59.1015 26.7642L58.3559 73.9611L40.6444 75.3814C40.5504 75.389 40.4567 75.3927 40.3635 75.3926Z" fill="#F9A826"/>
<path d="M83.1099 93.0445L82.9554 93.0224C64.9035 90.4393 51.2813 87.9629 51.1458 87.9382L50.9766 87.9074L55.7087 77.1085C55.6713 75.9801 54.647 44.2926 56.6079 35.1885C58.5062 26.3751 67.4542 24.9308 68.4739 24.7949L69.4977 21.6121L82.4328 27.9272L84.6887 35.2119L85.147 55.1776L83.1099 93.0445Z" fill="#3F3D56"/>
<path d="M65.3336 62.818C56.9998 62.818 50.2197 54.3164 50.2197 43.8666C50.2197 33.4167 56.9998 24.9152 65.3336 24.9152C73.6674 24.9152 80.4475 33.4167 80.4475 43.8666C80.4475 54.3164 73.6674 62.818 65.3336 62.818ZM65.3336 26.7705C58.0902 26.7705 52.1972 34.4398 52.1972 43.8666C52.1972 53.2934 58.0902 60.9626 65.3336 60.9626C72.577 60.9626 78.47 53.2934 78.47 43.8666C78.47 34.4398 72.577 26.7705 65.3336 26.7705Z" fill="#F9A826"/>
<path d="M90.9004 51.9507C90.3179 51.9506 89.7416 52.0635 89.2079 52.2825C88.6743 52.5015 88.1947 52.8218 87.7993 53.2231H66.0576L58.0938 54.8136L59.4013 64.2757L87.731 58.5594C88.2001 59.0563 88.7943 59.4352 89.4595 59.6613C90.1247 59.8874 90.8397 59.9535 91.5392 59.8537C92.2387 59.7538 92.9003 59.4912 93.4638 59.0898C94.0273 58.6883 94.4746 58.1608 94.7649 57.5555C95.0552 56.9501 95.1793 56.2861 95.1258 55.6242C95.0723 54.9623 94.8429 54.3235 94.4586 53.7662C94.0743 53.2088 93.5473 52.7507 92.9257 52.4335C92.3042 52.1164 91.6079 51.9504 90.9004 51.9507Z" fill="#9F616A"/>
<path d="M89.304 20.2713C93.3961 16.432 93.3961 10.2072 89.304 6.36791C85.212 2.52861 78.5775 2.52861 74.4855 6.36791C70.3934 10.2072 70.3934 16.4319 74.4855 20.2712C78.5775 24.1105 85.212 24.1106 89.304 20.2713Z" fill="#9F616A"/>
<path d="M72.0398 5.4601L71.5318 4.50083L74.0879 3.3093C74.0879 3.3093 76.9076 -0.995324 82.01 0.214371C87.1124 1.42407 89.408 2.14805 89.408 2.14805L91.9576 3.35167L90.678 4.54622L92.9736 5.27022L91.44 5.98513L93.2244 6.94742L92.2638 11.8805C92.2638 11.8805 90.6683 8.13894 87.6011 9.56876C84.5339 10.9986 78.9234 8.82964 78.9234 8.82964L74.0492 17.6802C74.0492 17.6802 73.0436 14.5776 71.2508 15.4049C71.2508 15.4049 66.6705 8.56107 72.0398 5.4601Z" fill="#2F2E41"/>
<path d="M163.087 65.9849L162.639 58.1039L158.119 54.6582L155.5 61.9561L140.855 80.2829C140.162 80.387 139.516 80.675 138.993 81.1128C138.469 81.5506 138.09 82.12 137.901 82.7535C137.712 83.387 137.72 84.0581 137.924 84.6875C138.129 85.3169 138.521 85.8781 139.055 86.3048C139.588 86.7315 140.241 87.0059 140.936 87.0954C141.631 87.1849 142.338 87.0858 142.975 86.8099C143.611 86.5339 144.15 86.0926 144.528 85.5383C144.906 84.9839 145.106 84.3396 145.106 83.6817C145.106 83.6353 145.1 83.5903 145.099 83.5444L163.087 65.9849Z" fill="#FFB7B7"/>
<path d="M171.791 165.311L168.328 165.311L166.68 152.777L171.791 152.777L171.791 165.311Z" fill="#FFB7B7"/>
<path d="M172.674 168.461L161.506 168.46V168.328C161.506 167.246 161.964 166.209 162.78 165.444C163.595 164.68 164.7 164.25 165.853 164.25H165.853L172.674 164.25L172.674 168.461Z" fill="#2F2E41"/>
<path d="M187.893 165.311L184.43 165.311L182.782 152.777L187.894 152.777L187.893 165.311Z" fill="#FFB7B7"/>
<path d="M188.777 168.461L177.609 168.46V168.328C177.609 167.246 178.067 166.209 178.883 165.444C179.698 164.68 180.803 164.25 181.956 164.25H181.956L188.777 164.25L188.777 168.461Z" fill="#2F2E41"/>
<path d="M184.233 33.0619C185.699 27.3814 186.942 20.9745 184.176 15.7427C182.257 12.1126 175.159 10.8902 171.09 12.1979C167.021 13.5057 164.079 17.0538 162.786 20.9223C161.492 24.7908 161.642 28.9595 162.206 32.9811C169.689 32.8462 177.173 32.7113 184.233 33.0619Z" fill="#2F2E41"/>
<path d="M175.79 32.0571C180.019 29.8881 181.573 24.9134 179.262 20.9457C176.95 16.978 171.648 15.5198 167.419 17.6888C163.19 19.8577 161.636 24.8324 163.947 28.8001C166.259 32.7678 171.561 34.226 175.79 32.0571Z" fill="#FFB8B8"/>
<path d="M182.272 23.1863C182.3 21.8083 182.032 20.4391 181.485 19.1601C180.937 17.8811 180.122 16.7184 179.086 15.7411C178.05 14.7637 176.815 13.9917 175.455 13.4709C174.095 12.95 172.638 12.691 171.169 12.7091C169.7 12.7273 168.25 13.0223 166.905 13.5766C165.56 14.1309 164.348 14.9332 163.34 15.9358C162.332 16.9385 161.549 18.1209 161.038 19.413C160.527 20.7051 160.297 22.0804 160.364 23.4572C167.833 23.4721 175.302 23.487 182.272 23.1863Z" fill="#2F2E41"/>
<path d="M157.591 74.2007C157.591 74.2007 156.171 93.5527 156.942 99.4559C157.712 105.359 166.103 156.968 166.103 156.968L172.432 156.958L174.311 96.1397L181.796 157.549L188.341 156.91L192.055 96.8409C192.055 96.8409 191.472 74.352 186.74 72.0969L157.591 74.2007Z" fill="#2F2E41"/>
<path d="M167.519 93.3838C162.87 93.3823 158.289 92.3414 154.154 90.3472L154.063 90.3038L157.562 68.5238L157.335 42.566C157.329 41.8535 157.474 41.1471 157.762 40.4878C158.05 39.8285 158.475 39.2295 159.012 38.726C159.549 38.2224 160.188 37.8243 160.891 37.5548C161.594 37.2854 162.347 37.1499 163.106 37.1565L181.879 37.3181C182.71 37.3253 183.531 37.4928 184.29 37.8104C185.049 38.1279 185.73 38.5886 186.292 39.1638C186.853 39.739 187.282 40.4164 187.552 41.1539C187.822 41.8914 187.928 42.6732 187.862 43.4506L186.106 64.2601L191.915 81.1504L190.906 82.4099C188.183 85.8171 184.652 88.5826 180.593 90.4874C176.534 92.3921 172.058 93.3838 167.519 93.3838Z" fill="#3F3D56"/>
<path d="M155.449 59.5507L157.416 40.718L158.048 39.8739C158.481 39.2958 159.032 38.8036 159.668 38.4257C160.304 38.0477 161.014 37.7914 161.756 37.6714C162.498 37.5514 163.259 37.5702 163.993 37.7266C164.728 37.8829 165.422 38.1739 166.036 38.5827L166.578 38.9434L166.043 58.0287L155.449 59.5507Z" fill="#3F3D56"/>
<path d="M236.053 151.56C241.139 150.242 243.309 157.487 238.236 158.847C233.151 160.165 230.981 152.92 236.053 151.56Z" fill="#3F3D56"/>
<path d="M207.858 160.885C212.943 159.567 215.113 166.813 210.041 168.173C204.956 169.491 202.785 162.245 207.858 160.885Z" fill="#3F3D56"/>
<path d="M196.446 84.468L196.525 84.4473L209.624 117.813L211.351 117.357L198.158 83.7525C198.13 83.2346 197.913 82.7414 197.545 82.3549C197.176 81.9683 196.678 81.7116 196.132 81.6274C189.582 80.6556 186.926 86.1114 186.926 86.1114L186.952 86.1476L200.344 120.26L202.071 119.805L189.074 86.6959C193.031 83.0239 196.446 84.468 196.446 84.468Z" fill="#3F3D56"/>
<path d="M211.459 162.762C209.59 162.747 207.775 162.172 206.278 161.122C204.782 160.071 203.682 158.6 203.138 156.922C200.639 149.245 194.74 130.85 193.958 125.858C192.941 119.358 198.675 117.51 198.803 117.47C198.957 117.421 201.262 116.816 204.453 115.978C209.877 114.554 218.073 112.402 218.375 112.275C219.645 111.86 220.992 111.697 222.333 111.794C223.673 111.891 224.978 112.247 226.165 112.839C227.389 113.443 228.469 114.274 229.339 115.282C230.21 116.289 230.853 117.453 231.229 118.701L239.666 146.863C240.187 148.59 240.041 150.433 239.254 152.069C238.467 153.704 237.09 155.026 235.366 155.802C228.856 158.736 219.308 162.651 211.587 162.761C211.544 162.762 211.501 162.762 211.459 162.762Z" fill="#F9A826"/>
<path d="M195.053 83.3139L190.812 60.0692L190.339 52.2244L183.482 54.3316L189.265 84.769C189.031 85.3613 188.976 86.0025 189.105 86.6224C189.234 87.2423 189.542 87.817 189.995 88.2837C190.449 88.7504 191.03 89.0911 191.676 89.2686C192.322 89.4462 193.008 89.4536 193.658 89.2901C194.308 89.1267 194.898 88.7987 195.363 88.3419C195.828 87.8852 196.15 87.3173 196.294 86.7004C196.438 86.0835 196.398 85.4413 196.179 84.844C195.961 84.2467 195.571 83.7174 195.053 83.3139V83.3139Z" fill="#FFB7B7"/>
<path d="M191.972 58.6113L181.27 58.0652L178.756 39.1194L179.001 38.9203C179.603 38.4298 180.303 38.0559 181.06 37.8199C181.817 37.5839 182.617 37.4906 183.412 37.5452C184.208 37.5998 184.984 37.8013 185.697 38.1381C186.409 38.4749 187.043 38.9405 187.564 39.508L188.059 40.0482L188.066 40.0823L191.972 58.6113Z" fill="#3F3D56"/>
<path d="M235.554 151.156L224.615 116.42L198.893 123.24L198.74 122.73L224.999 115.768L225.078 116.019L236.095 151.006L235.554 151.156Z" fill="#3F3D56"/>
<path d="M41.1799 72.9021L40.0151 49.0735L51.9458 27.1921L52.4486 27.4336L40.5866 49.1895L41.7443 72.8778L41.1799 72.9021Z" fill="#3F3D56"/>
<path d="M260.467 169H0.282503C0.207578 169 0.135722 168.972 0.0827429 168.922C0.0297634 168.873 0 168.805 0 168.735C0 168.665 0.0297634 168.597 0.0827429 168.548C0.135722 168.498 0.207578 168.47 0.282503 168.47H260.467C260.542 168.47 260.614 168.498 260.667 168.548C260.72 168.597 260.75 168.665 260.75 168.735C260.75 168.805 260.72 168.873 260.667 168.922C260.614 168.972 260.542 169 260.467 169Z" fill="#CCCCCC"/>
<path d="M59.5404 66.0494L57.0541 59.1103L56.4526 35.9794L57.512 32.6975C57.8933 31.5163 58.5249 30.4195 59.3688 29.4728C60.2128 28.5261 61.2517 27.749 62.4235 27.188C63.5952 26.6271 64.8756 26.2939 66.1878 26.2083C67.5001 26.1228 68.8173 26.2867 70.0604 26.6902C71.3036 27.0938 72.4471 27.7286 73.4225 28.5567C74.3978 29.3848 75.185 30.3892 75.7367 31.5096C76.2885 32.63 76.5935 33.8433 76.6334 35.0769C76.6734 36.3106 76.4474 37.5391 75.9692 38.6888L70.291 52.3407L70.5797 52.8663L82.8815 52.7728L87.2513 60.1527L59.5404 66.0494Z" fill="#3F3D56"/>
<path d="M137.908 115.429L137.9 115.431L124.265 117.992L112.536 122.424C112.384 122.481 112.222 122.51 112.058 122.508C111.895 122.507 111.733 122.475 111.583 122.415C111.432 122.355 111.296 122.268 111.182 122.158C111.067 122.049 110.977 121.919 110.916 121.777C110.901 121.743 110.889 121.709 110.878 121.675L102.309 94.755C102.219 94.4762 102.244 94.1757 102.379 93.9132C102.513 93.6507 102.748 93.4452 103.037 93.3374L114.981 88.8246L114.989 88.823L128.624 86.2619L140.353 81.8302C140.66 81.7144 141.002 81.7176 141.306 81.839C141.61 81.9603 141.85 82.1899 141.973 82.4772C141.988 82.5107 142 82.5447 142.011 82.5793L150.58 109.499C150.67 109.778 150.645 110.078 150.51 110.341C150.376 110.603 150.141 110.809 149.852 110.916L137.908 115.429Z" fill="#E5E5E5"/>
<path d="M123.277 97.347C120.15 96.3117 116.919 95.4048 113.672 94.6516L113.51 94.6138L115.158 99.7917L123.555 97.4389L123.277 97.347ZM115.286 99.5681L113.789 94.8641C116.879 95.5857 119.954 96.4466 122.936 97.4248L115.286 99.5681ZM139.661 104.346C138.206 103.574 136.729 102.835 135.232 102.128C134.819 101.933 134.405 101.741 133.99 101.551C131.454 100.394 128.88 99.339 126.267 98.3862L126.237 98.3751L115.651 101.341L118.542 110.423L139.857 104.45L139.661 104.346ZM118.67 110.2L115.889 101.462L126.229 98.5649C128.748 99.4842 131.239 100.503 133.701 101.62C134.129 101.814 134.555 102.011 134.979 102.21C136.462 102.907 137.926 103.637 139.371 104.399L118.67 110.2ZM139.661 104.346C138.206 103.574 136.729 102.835 135.232 102.128C134.819 101.933 134.405 101.741 133.99 101.551C131.454 100.394 128.88 99.339 126.267 98.3862L126.237 98.3751L115.651 101.341L118.542 110.423L139.857 104.45L139.661 104.346ZM118.67 110.2L115.889 101.462L126.229 98.5649C128.748 99.4842 131.239 100.503 133.701 101.62C134.129 101.814 134.555 102.011 134.979 102.21C136.462 102.907 137.926 103.637 139.371 104.399L118.67 110.2ZM123.277 97.347C120.15 96.3117 116.919 95.4048 113.672 94.6516L113.51 94.6138L115.158 99.7917L123.555 97.4389L123.277 97.347ZM115.286 99.5681L113.789 94.8641C116.879 95.5857 119.954 96.4466 122.936 97.4248L115.286 99.5681ZM123.277 97.347C120.15 96.3117 116.919 95.4048 113.672 94.6516L113.51 94.6138L115.158 99.7917L123.555 97.4389L123.277 97.347ZM115.286 99.5681L113.789 94.8641C116.879 95.5857 119.954 96.4466 122.936 97.4248L115.286 99.5681ZM139.661 104.346C138.206 103.574 136.729 102.835 135.232 102.128C134.819 101.933 134.405 101.741 133.99 101.551C131.454 100.394 128.88 99.339 126.267 98.3862L126.237 98.3751L115.651 101.341L118.542 110.423L139.857 104.45L139.661 104.346ZM118.67 110.2L115.889 101.462L126.229 98.5649C128.748 99.4842 131.239 100.503 133.701 101.62C134.129 101.814 134.555 102.011 134.979 102.21C136.462 102.907 137.926 103.637 139.371 104.399L118.67 110.2ZM109.953 114.517L110.007 114.69L117.255 112.659L118.049 115.155L110.802 117.186L110.857 117.358L118.288 115.276L117.383 112.435L109.953 114.517ZM120.432 116.363L120.988 118.107L121.166 118.04L120.671 116.484L148.93 108.565L148.875 108.393L120.432 116.363ZM147.532 104.175L147.478 104.003L119.035 111.973L119.939 114.813L148.382 106.844L148.327 106.672L120.068 114.59L119.273 112.093L147.532 104.175ZM126.409 96.4516C122.077 94.8901 117.628 93.6335 113.098 92.6922L112.543 90.949L112.364 91.0163L112.924 92.773L113.111 92.8792C117.624 93.8194 122.056 95.0732 126.371 96.6301L126.401 96.6413L143.6 91.8221L143.546 91.6499L126.409 96.4516ZM113.268 100.134L106.021 102.164L106.075 102.337L113.506 100.254L110.759 91.6228L110.58 91.6902L113.268 100.134ZM144.094 93.3716L128.974 97.6082L129.22 97.7052C131.539 98.6207 133.852 99.6328 136.159 100.742C136.487 100.899 136.814 101.059 137.142 101.22C138.77 102.023 140.386 102.87 141.989 103.762L142.167 103.803L146.984 102.453L146.93 102.281L142.124 103.628C140.538 102.745 138.937 101.904 137.321 101.106C136.998 100.946 136.674 100.788 136.35 100.632C134.092 99.5438 131.822 98.5455 129.539 97.6372L144.148 93.5438L144.094 93.3716ZM111.35 118.908L111.405 119.08L118.652 117.049L119.203 118.781L119.382 118.714L118.781 116.826L111.35 118.908ZM106.569 103.886L106.623 104.058L113.871 102.028L116.652 110.765L109.405 112.796L109.459 112.968L116.89 110.886L113.999 101.804L106.569 103.886ZM123.277 97.347C120.15 96.3117 116.919 95.4048 113.672 94.6516L113.51 94.6138L115.158 99.7917L123.555 97.4389L123.277 97.347ZM115.286 99.5681L113.789 94.8641C116.879 95.5857 119.954 96.4466 122.936 97.4248L115.286 99.5681ZM139.661 104.346C138.206 103.574 136.729 102.835 135.232 102.128C134.819 101.933 134.405 101.741 133.99 101.551C131.454 100.394 128.88 99.339 126.267 98.3862L126.237 98.3751L115.651 101.341L118.542 110.423L139.857 104.45L139.661 104.346ZM118.67 110.2L115.889 101.462L126.229 98.5649C128.748 99.4842 131.239 100.503 133.701 101.62C134.129 101.814 134.555 102.011 134.979 102.21C136.462 102.907 137.926 103.637 139.371 104.399L118.67 110.2ZM123.277 97.347C120.15 96.3117 116.919 95.4048 113.672 94.6516L113.51 94.6138L115.158 99.7917L123.555 97.4389L123.277 97.347ZM115.286 99.5681L113.789 94.8641C116.879 95.5857 119.954 96.4466 122.936 97.4248L115.286 99.5681ZM139.661 104.346C138.206 103.574 136.729 102.835 135.232 102.128C134.819 101.933 134.405 101.741 133.99 101.551C131.454 100.394 128.88 99.339 126.267 98.3862L126.237 98.3751L115.651 101.341L118.542 110.423L139.857 104.45L139.661 104.346ZM118.67 110.2L115.889 101.462L126.229 98.5649C128.748 99.4842 131.239 100.503 133.701 101.62C134.129 101.814 134.555 102.011 134.979 102.21C136.462 102.907 137.926 103.637 139.371 104.399L118.67 110.2Z" fill="#F8F9FA"/>
<path d="M125.712 98.158C126.406 100.338 123.744 106.374 123.744 106.374C123.744 106.374 117.991 102.696 117.297 100.516C116.964 99.4688 117.087 98.3406 117.641 97.3792C118.194 96.4178 119.132 95.702 120.248 95.3893C121.364 95.0767 122.566 95.1927 123.591 95.7119C124.616 96.2311 125.378 97.111 125.712 98.158H125.712Z" fill="#F9A826"/>
<path d="M123.373 98.6264C123.487 98.9833 123.485 99.3638 123.368 99.7198C123.251 100.076 123.024 100.391 122.716 100.626C122.408 100.861 122.033 101.005 121.638 101.04C121.243 101.075 120.845 100.999 120.496 100.822C120.147 100.645 119.861 100.375 119.675 100.046C119.49 99.7167 119.412 99.3432 119.453 98.9726C119.494 98.6021 119.65 98.2512 119.904 97.9643C120.157 97.6773 120.495 97.4673 120.875 97.3607C121.128 97.2898 121.393 97.2663 121.655 97.2916C121.917 97.3168 122.172 97.3903 122.404 97.5079C122.636 97.6254 122.841 97.7847 123.007 97.9766C123.173 98.1685 123.298 98.3893 123.373 98.6264Z" fill="#F8F9FA"/>
<path d="M124.312 109.269C124.966 109.269 125.496 108.772 125.496 108.159C125.496 107.545 124.966 107.048 124.312 107.048C123.658 107.048 123.128 107.545 123.128 108.159C123.128 108.772 123.658 109.269 124.312 109.269Z" fill="#F9A826"/>
<path d="M137.228 93.5569L129.002 95.8618C128.991 95.8649 128.981 95.867 128.97 95.8682L130.848 88.4551C130.859 88.4091 130.883 88.3667 130.918 88.3322C130.952 88.2977 130.996 88.2725 131.044 88.259C131.092 88.2454 131.143 88.2442 131.192 88.2553C131.241 88.2664 131.286 88.2895 131.322 88.3223L135.284 91.8338L135.474 92.0018L137.228 93.5569Z" fill="#F8F9FA"/>
<path opacity="0.2" d="M137.228 93.5569L134.419 94.3438L135.2 92.0786L135.256 91.9154L135.284 91.8337L135.474 92.0018L137.228 93.5569Z" fill="black"/>
<path d="M141.808 92.2736L134.693 94.2672L135.474 92.0019L135.53 91.8388L136.547 88.8867C136.567 88.8403 136.597 88.7985 136.635 88.7638C136.674 88.729 136.719 88.7023 136.769 88.6851C136.819 88.668 136.872 88.661 136.926 88.6644C136.979 88.6679 137.03 88.6818 137.077 88.7052C137.09 88.7121 137.102 88.7198 137.113 88.7282L141.808 92.2736Z" fill="#F8F9FA"/>
</g>
<defs>
<clipPath id="clip0_58_835">
<rect width="260.75" height="169" fill="white"/>
</clipPath>
</defs>
</svg>
