<svg width="131" height="62" viewBox="0 0 131 62" fill="none" xmlns="http://www.w3.org/2000/svg">
<path d="M70.053 32.3169C70.0539 36.2152 69.2454 40.0754 67.6738 43.6771C66.1022 47.2787 63.7984 50.5513 60.8938 53.3078C57.9892 56.0643 54.5408 58.2507 50.7456 59.7421C46.9504 61.2336 42.8828 62.0008 38.7751 62C21.5009 62 7.49708 48.7102 7.49708 32.3169C7.4941 29.1282 8.03274 25.9598 9.09227 22.9337C11.1724 17.0239 15.1576 11.8841 20.4842 8.24123C25.8109 4.59837 32.2094 2.63676 38.7751 2.63379C44.4375 2.63192 49.9942 4.08936 54.852 6.85053C59.7098 9.6117 63.6863 13.5729 66.357 18.3114C67.0192 19.4805 67.5969 20.691 68.086 21.9344C68.1537 22.1075 68.2198 22.2807 68.2841 22.4555V22.4572C68.5708 23.2256 68.8234 24.0084 69.0417 24.8054C69.7153 27.258 70.0552 29.7824 70.053 32.3169Z" fill="#F8F9FA"/>
<path d="M35.3532 12.29C33.9476 11.5686 32.387 11.1614 30.7903 11.0994C29.1937 11.0374 27.6032 11.3223 26.1402 11.9322C24.852 12.4643 23.4956 13.4186 23.0659 15.1421C24.8039 14.1687 27.0537 15.7066 27.5009 18.1739L27.3965 18.2012C27.1603 19.91 27.6876 21.7706 28.7085 22.8302C28.8425 21.7295 29.6051 20.9804 30.3552 20.5125C31.1053 20.0446 31.9351 19.7047 32.5076 18.9003C33.1863 17.9468 33.3586 16.5532 33.6283 15.2819C33.8979 14.0106 34.4094 12.6442 35.3532 12.29Z" fill="#1A2D6D"/>
<path d="M25.6244 26.8322C25.1431 27.5182 24.5002 27.9486 23.9233 28.4845C23.3481 29.0221 22.8007 29.7477 22.686 30.6794C22.613 31.2764 22.726 31.8832 22.7103 32.4868C22.6947 33.0904 22.4827 33.7698 22.05 33.9198C21.3671 34.154 20.8458 32.9502 20.1438 32.8661C19.586 32.8001 19.0839 33.6329 19.2455 34.3552C19.4071 35.0775 20.1664 35.3974 20.6026 34.9258C20.997 35.5541 20.719 36.6936 20.1265 36.8865C20.0639 37.2823 20.0014 37.6764 19.9405 38.0722C18.4427 37.0778 16.9291 36.0669 15.6554 34.6108C14.2389 33.0051 13.3602 31.0342 13.1324 28.9512C12.9673 27.2774 13.2123 25.3629 12.4025 24.075C11.7544 23.0443 10.6423 22.8167 9.64137 22.881C9.45893 22.8926 9.27474 22.9124 9.09229 22.9338C9.68255 21.2514 10.4322 19.6231 11.3321 18.0691C11.5358 17.9861 11.725 17.8744 11.8934 17.7376C12.8248 16.9873 13.2384 15.4685 13.9942 14.418C14.0429 14.3504 14.0933 14.2845 14.1454 14.2202C14.9187 13.262 15.9543 12.769 16.9552 12.3105C19.1707 11.2898 21.4505 10.2558 23.7895 10.3976L23.1239 10.4586C22.3472 12.5233 21.5699 14.5879 20.792 16.6525C20.6738 16.9691 20.5545 17.2863 20.434 17.604C19.9927 18.7781 19.5374 20.0282 19.6052 21.3424C19.6451 22.1208 19.9301 22.9519 20.4723 23.2191C20.9779 23.4664 21.5305 23.163 22.0188 22.8629C22.2256 22.7375 22.4306 22.6122 22.6374 22.4852C23.3794 22.0317 24.2013 21.5667 24.985 21.8701C25.7026 22.1472 26.2326 23.0723 26.3334 24.07C26.4258 25.0398 26.1764 26.0113 25.6244 26.8322Z" fill="#1A2D6D"/>
<path d="M30.0373 40.9279C27.8702 39.6617 25.7032 38.3955 23.5361 37.1292L23.5729 37.0393C22.2256 37.5263 21.6662 39.7992 21.8888 41.6579C22.1115 43.5167 22.8665 45.1783 23.248 46.9894C23.7623 49.4679 23.5682 52.0318 22.6858 54.415C25.5353 51.3807 28.0571 48.0829 30.2134 44.5711C30.5146 44.1285 30.7441 43.6455 30.8943 43.1383C31.0319 42.5986 31.0108 41.9498 30.7351 41.5171C30.5577 41.2687 30.3178 41.0662 30.0373 40.9279Z" fill="#1A2D6D"/>
<path d="M21.485 17.8913C21.2549 18.3823 21.1664 19.037 21.3752 19.545C21.5885 20.0638 22.0393 20.2983 22.4544 20.4936L23.6518 21.0568C24.0501 21.2442 24.4795 21.4335 24.8856 21.2793C25.3754 21.0933 25.715 20.3646 25.6271 19.6881C25.5336 18.9682 25.0555 18.473 24.6132 18.0514C23.9944 17.4612 23.3755 16.8711 22.7567 16.281L22.4079 16.6864C22.0307 17.0356 21.7186 17.443 21.485 17.8913Z" fill="#1A2D6D"/>
<path d="M63.6342 25.587C64.1729 25.7074 64.7116 25.8278 65.2503 25.9482C65.1564 27.6748 64.2546 29.2727 63.0452 29.8515C62.5412 30.0923 61.98 30.1813 61.5629 30.6315C61.1859 31.0405 60.9947 31.677 60.8192 32.2855C60.5116 33.3475 60.2041 34.4095 59.8965 35.4715C59.5664 36.616 59.1424 37.8874 58.284 38.2997C57.5472 38.6542 56.7044 38.2205 56.1379 37.4933C55.5715 36.766 55.2257 35.7881 54.8903 34.835C54.9111 35.8739 54.402 36.893 53.6809 37.2541C52.958 37.6153 52.0788 37.2888 51.5957 36.4824C51.2482 35.9036 51.1039 35.14 50.7633 34.553C50.4228 33.9659 49.7086 33.6295 49.3367 34.1803C49.0917 34.5464 49.123 35.1071 49.0013 35.5721C48.8119 36.2944 48.2385 36.7479 47.6703 36.7875C47.1038 36.827 46.5513 36.517 46.0769 36.0965C45.0986 35.2258 44.3774 33.8439 44.0977 32.3086C43.9743 31.6243 43.9396 30.8789 44.1533 30.2374C44.367 29.5959 44.8831 29.1012 45.3957 29.2232C45.7328 28.5471 45.0673 27.65 44.4678 27.7292C43.8665 27.8083 43.3956 28.4201 42.9022 28.8901C42.4104 29.3601 41.7223 29.7014 41.227 29.2348C41.2305 29.6685 40.8587 29.9554 40.5372 29.9191C40.2174 29.8845 39.9325 29.6404 39.6388 29.4673C38.5041 28.7961 37.0636 29.2414 36.2573 30.5111C36.7613 28.4762 37.4998 26.1411 39.048 25.6629C39.6805 25.4667 40.3704 25.6283 40.9681 25.2885C42.0264 24.6867 42.2401 22.4126 41.3261 21.4743C41.4425 22.3615 41.42 23.3971 40.9264 24.0039C40.4329 24.6108 39.3973 24.215 39.4598 23.3179C39.3173 23.9363 38.6084 24.0303 38.2817 23.5554C37.9533 23.0805 37.9811 22.3038 38.2139 21.7365C38.4468 21.1692 38.843 20.7619 39.227 20.371C40.0524 19.5317 40.8899 18.6824 41.8457 18.1547C42.8031 17.627 43.9083 17.4489 44.8674 17.9733C45.3731 18.2503 45.818 18.7121 46.334 18.9562C46.8501 19.2019 47.5052 19.1705 47.8476 18.5966C48.2316 17.9568 48.0509 17.0069 48.1934 16.2072C48.4488 14.7939 49.938 14.1326 50.7633 15.066C50.1465 14.9159 49.5088 15.6085 49.4323 16.4479C49.3541 17.2873 49.8007 18.1349 50.3984 18.3889C51.4028 18.811 52.3863 17.749 53.1457 16.7662C53.9381 15.7372 54.7316 14.7087 55.5263 13.6808C55.6532 13.5058 55.7956 13.3414 55.952 13.1894C56.2009 12.9592 56.5327 12.8273 56.8802 12.8206C57.2277 12.8138 57.5649 12.9327 57.8235 13.1531C58.6263 13.7748 59.0034 15.0495 59.6619 15.9268C60.6177 17.2016 62.0478 17.5116 63.3788 17.7589C64.371 17.942 65.3638 18.1261 66.3572 18.3114C67.0194 19.4805 67.597 20.6909 68.0861 21.9344C66.4041 22.6121 64.8523 23.8803 63.6342 25.587Z" fill="#1A2D6D"/>
<path d="M66.8419 45.4286C66.0975 46.8631 65.2316 48.238 64.2528 49.5397C63.6272 49.2857 62.9548 49.7392 62.3692 50.1646C61.7575 50.6099 61.0225 51.0436 60.3952 50.6379C59.754 50.2224 59.5472 49.0598 59.7505 48.1379C59.9538 47.2178 60.4612 46.4856 60.953 45.7897C61.4743 45.0509 62.0321 44.2841 62.7567 43.9972C63.483 43.7102 64.4161 44.1159 64.6281 45.0954L65.1425 45.0789C64.854 44.703 65.0052 43.9246 65.3927 43.7877C65.8393 43.6278 66.2268 44.2099 66.4909 44.7244C66.6091 44.9569 66.729 45.1911 66.8419 45.4286Z" fill="#1A2D6D"/>
<path d="M47.1425 38.463C46.0369 38.529 45.1612 37.2374 44.5793 35.9668C43.9974 34.6961 43.4664 33.243 42.4689 32.5963C41.8989 32.2267 41.249 32.176 40.6308 31.9969C40.0125 31.8179 39.3654 31.4473 39.0699 30.6927L38.3685 30.4238C37.4424 30.9181 36.504 31.4213 35.7059 32.2256C34.8108 33.1279 34.2533 34.2846 34.1193 35.5173C33.9853 36.8495 34.48 38.3349 35.4044 38.8353C36.1348 39.2308 36.9851 38.9815 37.725 39.3435C38.6493 39.7958 39.1981 41.1096 39.4058 42.4069C39.6136 43.7041 39.5609 45.0522 39.7095 46.3642C39.8582 47.6761 40.2678 49.0413 41.1155 49.7136C42.1763 50.5549 43.7328 49.8558 44.2087 48.3243C44.4422 47.5731 44.4342 46.7254 44.6088 45.9456C44.9162 44.5723 45.746 43.5534 46.4041 42.4269C47.0622 41.3004 47.5802 39.7704 47.1425 38.463Z" fill="#1A2D6D"/>
<path d="M36.218 24.9686C36.3211 25.0587 36.4173 25.1556 36.5059 25.2586C36.5976 25.4087 36.6444 25.5796 36.6413 25.753C36.6381 25.9264 36.5852 26.0957 36.4882 26.2427C36.6214 26.2355 36.7515 26.2021 36.8704 26.1448C36.9893 26.0874 37.0944 26.0073 37.179 25.9095C37.3808 25.6914 37.5583 25.4541 37.7087 25.2014C37.8215 25.0269 37.9414 24.791 37.8649 24.5837C37.8127 24.4423 37.6892 24.3819 37.6026 24.2755C37.4653 24.1069 37.4313 23.8391 37.3603 23.6077C37.2069 23.1078 36.8394 22.7403 36.4405 22.6877L36.4959 22.6978C36.3292 22.752 36.2129 23.0031 36.2497 23.2291C36.2833 23.4349 36.4226 23.6057 36.4088 23.8156C36.3888 24.1174 36.071 24.259 36.0514 24.5608C36.0483 24.7123 36.1081 24.8587 36.218 24.9686Z" fill="#1A2D6D"/>
<path d="M34.3237 19.8399C34.3254 19.8395 34.327 19.8394 34.3287 19.839C34.3627 19.8096 34.3942 19.7777 34.423 19.7437L34.3237 19.8399Z" fill="#E6E6E6"/>
<path d="M34.6555 21.2566C34.9 21.1074 35.0365 20.6949 34.9557 20.3496C34.8754 20.0064 34.5911 19.7757 34.3289 19.8391C34.2529 19.9123 34.1584 19.9659 34.0545 19.9949C33.9506 20.024 33.8407 20.0274 33.7349 20.005C33.5728 19.9654 33.3949 19.8635 33.2543 19.9794C33.1739 20.0659 33.1176 20.1702 33.0906 20.2827C33.0385 20.4343 32.9865 20.5859 32.9345 20.7375C32.9098 20.7918 32.9033 20.8519 32.916 20.9098C32.926 20.933 32.9421 20.9534 32.9627 20.969C32.9834 20.9846 33.0079 20.9948 33.034 20.9988C33.3462 21.0862 33.6584 21.1735 33.9706 21.2609C34.1982 21.3245 34.4438 21.3858 34.6555 21.2566Z" fill="#1A2D6D"/>
<path d="M58.2257 40.8142C58.0813 40.5899 57.937 40.3657 57.7927 40.1414C57.6509 39.8818 57.4571 39.6508 57.2222 39.4616C57.1705 39.4205 57.1107 39.3897 57.0463 39.3709C56.9819 39.352 56.9142 39.3456 56.8471 39.352C56.7801 39.3584 56.715 39.3774 56.6558 39.408C56.5966 39.4386 56.5445 39.4801 56.5024 39.53L56.52 39.6581C56.849 40.0498 57.197 40.4849 57.2805 41.0662C57.3134 41.2954 57.3019 41.5325 57.3308 41.7627C57.3596 41.9929 57.4416 42.2315 57.5982 42.3308C57.8254 42.4749 58.0923 42.2624 58.254 42.0032C58.3986 41.7903 58.4635 41.5374 58.4381 41.2852C58.4021 41.1161 58.3298 40.9557 58.2257 40.8142Z" fill="#1A2D6D"/>
<path d="M64.6485 32.2504C64.6902 31.9907 64.7319 31.7309 64.7737 31.4712C64.8414 31.1858 64.8499 30.8907 64.7985 30.6024C64.7868 30.5394 64.762 30.4792 64.7255 30.4255C64.689 30.3717 64.6416 30.3254 64.5859 30.2893C64.5303 30.2532 64.4677 30.228 64.4016 30.2152C64.3356 30.2025 64.2675 30.2023 64.2015 30.2149L64.128 30.3236C64.1139 30.8243 64.0849 31.3699 63.7543 31.8656C63.624 32.061 63.4543 32.2355 63.3202 32.4292C63.1861 32.6229 63.0868 32.8556 63.1393 33.0272C63.2154 33.2763 63.5637 33.2769 63.8633 33.1774C64.1184 33.1029 64.3396 32.9491 64.4913 32.7407C64.5786 32.5892 64.6321 32.4223 64.6485 32.2504Z" fill="#E6E6E6"/>
<path d="M60.4893 41.106C60.5599 40.9136 60.458 40.6928 60.4365 40.48C60.4262 40.2052 60.5029 39.9338 60.6569 39.7008C60.8098 39.4811 60.9256 39.24 61.0002 38.9864C61.0317 38.8708 61.026 38.749 60.9838 38.6365C60.936 38.5347 60.8203 38.4882 60.7539 38.5689L60.896 38.6557C60.7042 38.6232 60.5071 38.6323 60.3195 38.6822C60.2125 38.7211 60.117 38.7838 60.0409 38.8652C59.9649 38.9465 59.9106 39.0441 59.8827 39.1495C59.8592 39.314 59.8209 39.4762 59.7681 39.6344C59.6834 39.7997 59.5194 39.8546 59.4163 39.9997C59.3461 40.1283 59.3106 40.2715 59.3131 40.4163C59.3156 40.5612 59.3561 40.7031 59.4308 40.8295C59.5603 41.0361 59.766 41.1896 60.0081 41.2603C60.1816 41.3193 60.41 41.3224 60.4893 41.106Z" fill="#1A2D6D"/>
<path d="M64.5213 42.2605C64.584 42.4154 64.668 42.5617 64.7711 42.6957C64.9641 42.8802 65.2265 42.7668 65.4606 42.7219C65.6731 42.6901 65.8907 42.7134 66.0904 42.7894C66.2901 42.8654 66.4643 42.9913 66.5947 43.1536C66.5039 42.7238 66.3057 42.321 66.0168 41.979C65.7279 41.6369 65.3568 41.3656 64.9345 41.188C64.3825 40.9744 63.8011 40.9538 63.2271 40.9346L63.1279 40.9587C63.3806 41.6567 64.174 41.6411 64.5213 42.2605Z" fill="#1A2D6D"/>
<path d="M47.4453 43.6885L47.4468 43.6915C47.4565 43.6738 47.4662 43.6561 47.4759 43.6384L47.4453 43.6885Z" fill="#E6E6E6"/>
<path d="M46.8336 44.8117C46.7002 45.0415 46.5855 45.2806 46.4904 45.527C46.3646 45.9261 46.2813 46.3361 46.2417 46.751C46.2107 46.9869 46.2011 47.2882 46.3568 47.4032C46.4015 47.4313 46.4555 47.4431 46.5087 47.4362C46.5619 47.4294 46.6106 47.4044 46.6458 47.3659C46.7323 47.279 46.8031 47.1792 46.8553 47.0704C47.1614 46.5701 47.399 46.0348 47.5625 45.4775C47.7115 44.8905 47.7102 44.1994 47.4467 43.6912C47.2423 44.0647 47.0379 44.4382 46.8336 44.8117Z" fill="#1A2D6D"/>
<path d="M40.9331 14.8785C41.0303 14.9686 41.1531 15.0298 41.2865 15.0545C41.4198 15.0792 41.5579 15.0664 41.6836 15.0175C41.944 14.9095 42.1828 14.7598 42.3897 14.5749C42.561 14.4546 42.7064 14.3041 42.8178 14.1317C42.8792 14.0287 42.9185 13.9152 42.9335 13.7977C42.9485 13.6802 42.939 13.5611 42.9053 13.4471C42.8086 13.1787 42.5633 13.0887 42.3468 13.0278C42.0003 12.9303 41.6537 12.8327 41.3072 12.7352L41.5578 12.5208C41.2999 12.3894 41.0146 12.6332 40.8534 12.9351C40.75 13.1322 40.6779 13.3427 40.6395 13.5598C40.5532 14.0336 40.6376 14.5977 40.9331 14.8785Z" fill="#E6E6E6"/>
<path d="M47.0513 12.9293C47.149 13.0315 47.284 13.0946 47.4289 13.1058C47.5738 13.1169 47.7177 13.0754 47.8315 12.9895C47.9295 12.9197 48.0108 12.8311 48.0703 12.7295C48.1298 12.6278 48.166 12.5155 48.1766 12.3996C48.2012 12.141 48.0664 11.8534 47.8739 11.8311L47.9179 11.5889C47.5471 11.5253 47.0908 11.5126 46.8921 11.94C46.8251 12.1037 46.8045 12.2812 46.8324 12.4548C46.8604 12.6284 46.9358 12.792 47.0513 12.9293Z" fill="#E6E6E6"/>
<path d="M46.2341 0.0493603C44.0602 -0.183359 41.8779 0.413018 40.1672 1.70729C38.4566 3.00156 37.3579 4.88771 37.1126 6.95081C36.602 11.247 38.9869 20.5763 43.3352 24.4382C45.3826 17.039 52.5571 12.6503 53.5064 8.70574C54.5207 4.49086 50.7611 0.533973 46.2341 0.0493603Z" fill="#FFC800"/>
<path d="M44.7303 9.60024C46.216 9.60024 47.4205 8.4572 47.4205 7.04719C47.4205 5.63718 46.216 4.49414 44.7303 4.49414C43.2445 4.49414 42.04 5.63718 42.04 7.04719C42.04 8.4572 43.2445 9.60024 44.7303 9.60024Z" fill="#1A2D6D"/>
<path d="M41.9017 28.1193C42.8748 28.1193 43.6637 27.3706 43.6637 26.4471C43.6637 25.5236 42.8748 24.7749 41.9017 24.7749C40.9285 24.7749 40.1396 25.5236 40.1396 26.4471C40.1396 27.3706 40.9285 28.1193 41.9017 28.1193Z" fill="#FFC800"/>
<path opacity="0.2" d="M46.9563 5.21802C47.2591 5.3907 47.5231 5.6183 47.7332 5.88781C47.9433 6.15732 48.0955 6.46347 48.1809 6.78878C48.2664 7.11409 48.2835 7.45218 48.2313 7.78376C48.1791 8.11534 48.0585 8.43392 47.8766 8.72129C47.6946 9.00866 47.4548 9.25921 47.1708 9.45863C46.8868 9.65805 46.5642 9.80243 46.2214 9.88353C45.5291 10.0473 44.7966 9.94341 44.1851 9.59466C44.8086 9.7263 45.4612 9.64305 46.0259 9.3598C46.5907 9.07656 47.0308 8.61182 47.2675 8.04875C47.5042 7.48569 47.522 6.86107 47.3178 6.28668C47.1135 5.71229 46.7005 5.22564 46.1527 4.91382C46.4361 4.97342 46.7075 5.07615 46.9563 5.21802Z" fill="#231F20"/>
<path opacity="0.2" d="M53.5169 8.71388C52.5676 12.6584 45.3932 17.0472 43.3458 24.4463C42.9368 24.0796 42.557 23.6847 42.2095 23.2649C44.5102 16.3099 51.2381 12.0838 52.1553 8.27268C52.9762 4.86163 50.6702 1.6199 47.3614 0.250488C51.3667 1.20601 54.4465 4.85134 53.5169 8.71388Z" fill="#231F20"/>
<path d="M21.0237 10.0109C19.3911 9.83618 17.7523 10.284 16.4677 11.256C15.1831 12.2279 14.3579 13.6444 14.1738 15.1937C13.7903 18.42 15.5813 25.4259 18.8467 28.3261C20.3843 22.7696 25.772 19.4738 26.4849 16.5116C27.2467 13.3464 24.4233 10.3749 21.0237 10.0109Z" fill="#FFC800"/>
<path d="M19.8948 17.1834C21.0105 17.1834 21.915 16.325 21.915 15.2661C21.915 14.2073 21.0105 13.3489 19.8948 13.3489C18.779 13.3489 17.8745 14.2073 17.8745 15.2661C17.8745 16.325 18.779 17.1834 19.8948 17.1834Z" fill="#1A2D6D"/>
<path d="M17.7705 31.0906C18.5013 31.0906 19.0937 30.5284 19.0937 29.8349C19.0937 29.1413 18.5013 28.5791 17.7705 28.5791C17.0397 28.5791 16.4473 29.1413 16.4473 29.8349C16.4473 30.5284 17.0397 31.0906 17.7705 31.0906Z" fill="#FFC800"/>
<path opacity="0.2" d="M21.5664 13.8925C21.7938 14.0222 21.9921 14.1931 22.1499 14.3955C22.3077 14.5979 22.4219 14.8278 22.4861 15.0721C22.5503 15.3164 22.5631 15.5703 22.5239 15.8193C22.4847 16.0683 22.3942 16.3075 22.2575 16.5233C22.1209 16.7392 21.9408 16.9273 21.7275 17.0771C21.5143 17.2268 21.272 17.3352 21.0146 17.3961C20.7572 17.457 20.4896 17.4692 20.2272 17.432C19.9648 17.3948 19.7128 17.3089 19.4854 17.1792C19.9536 17.2781 20.4437 17.2155 20.8678 17.0028C21.2919 16.7901 21.6224 16.4411 21.8001 16.0183C21.9779 15.5954 21.9913 15.1264 21.8379 14.695C21.6845 14.2637 21.3744 13.8982 20.963 13.6641C21.1758 13.7088 21.3796 13.786 21.5664 13.8925Z" fill="#231F20"/>
<path opacity="0.2" d="M26.493 16.5178C25.7801 19.4801 20.3923 22.7759 18.8548 28.3324C18.5477 28.057 18.2625 27.7604 18.0015 27.4451C19.7292 22.2222 24.7816 19.0485 25.4704 16.1865C26.0869 13.6249 24.3552 11.1905 21.8704 10.1621C24.8782 10.8797 27.1911 13.6172 26.493 16.5178Z" fill="#231F20"/>
<path d="M71.3302 8.85927C70.7478 8.63987 70.1255 8.53148 69.499 8.54029C68.8724 8.54911 68.2538 8.67496 67.6785 8.91065C67.1032 9.14634 66.5824 9.48727 66.1459 9.91395C65.7095 10.3406 65.3658 10.8447 65.1346 11.3975C64.1623 13.722 64.0012 19.2731 65.8106 22.0553C68.1371 18.2201 72.8439 16.804 74.0048 14.7389C75.2452 12.5324 73.7796 9.782 71.3302 8.85927Z" fill="#FFC800"/>
<path d="M69.3716 14.0255C70.2311 14.0255 70.9279 13.3643 70.9279 12.5486C70.9279 11.733 70.2311 11.0718 69.3716 11.0718C68.5122 11.0718 67.8154 11.733 67.8154 12.5486C67.8154 13.3643 68.5122 14.0255 69.3716 14.0255Z" fill="#1A2D6D"/>
<path d="M64.6892 23.9373C65.2521 23.9373 65.7085 23.5042 65.7085 22.97C65.7085 22.4358 65.2521 22.0027 64.6892 22.0027C64.1263 22.0027 63.6699 22.4358 63.6699 22.97C63.6699 23.5042 64.1263 23.9373 64.6892 23.9373Z" fill="#FFC800"/>
<path opacity="0.2" d="M70.9067 11.8483C71.1918 12.1312 71.3469 12.5099 71.3379 12.9012C71.3289 13.2925 71.1566 13.6645 70.8589 13.9353C70.5611 14.2062 70.1622 14.3538 69.7498 14.3456C69.3375 14.3375 68.9454 14.1744 68.6597 13.8921C68.9867 14.0554 69.3642 14.1029 69.7248 14.0262C70.0854 13.9494 70.4054 13.7534 70.6276 13.4732C70.8498 13.193 70.9596 12.847 70.9375 12.4969C70.9154 12.1469 70.7627 11.8157 70.5068 11.5627C70.6554 11.6368 70.7905 11.7333 70.9067 11.8483Z" fill="#231F20"/>
<path opacity="0.2" d="M74.0096 14.7451C72.8487 16.8101 68.1419 18.2263 65.8154 22.0615C65.6458 21.7979 65.497 21.5227 65.3701 21.2383C67.7669 17.6875 72.1984 16.2978 73.3201 14.3026C74.324 12.5169 73.5554 10.3751 71.9275 9.13403C74.0104 10.2445 75.1464 12.723 74.0096 14.7451Z" fill="#231F20"/>
<path d="M68.9682 51.2812C67.7291 51.2812 66.3709 51.2145 64.8937 51.0811C57.2533 50.3898 47.3566 47.9864 37.0266 44.3139C26.6967 40.6414 17.1677 36.1381 10.1951 31.6341C6.79849 29.44 4.19162 27.3631 2.44698 25.461C0.59986 23.4474 -0.208095 21.6922 0.0454626 20.2443C0.539511 17.4237 4.91407 16.8066 8.49688 16.7856L8.4981 17.1958C3.57795 17.2246 0.67531 18.3426 0.324844 20.3437C-0.121589 22.8924 3.51933 26.8714 10.314 31.2605C17.2713 35.7547 26.7828 40.2492 37.0964 43.916C47.4099 47.5826 57.2884 49.9819 64.912 50.6717C72.3571 51.3454 76.8835 50.27 77.3299 47.7212C77.7005 45.6051 75.2571 42.4878 70.4499 38.9433L70.5822 38.579C74.0752 41.1545 78.1298 44.8484 77.6092 47.8206C77.3556 49.2684 76.0636 50.277 73.769 50.8181C72.461 51.1266 70.8544 51.2812 68.9682 51.2812Z" fill="#FFC800"/>
<path d="M87.4909 35.96C89.9237 35.96 91.8594 36.4572 93.2979 37.4514C94.7364 38.4246 95.4557 39.8843 95.4557 41.8305C95.4557 43.269 95.0961 44.4749 94.3768 45.448C93.6787 46.4 92.7161 47.1192 91.4892 47.6058C90.2833 48.0712 88.8977 48.3039 87.3322 48.3039L86.6024 45.8288C88.5275 45.8288 90.2304 46.0932 91.7113 46.6221C93.2133 47.151 94.398 47.9125 95.2653 48.9068C96.1327 49.8799 96.5663 51.054 96.5663 52.4291C96.5663 53.6984 96.3336 54.7773 95.8682 55.6658C95.424 56.5331 94.8105 57.2418 94.0277 57.7918C93.2662 58.3207 92.3988 58.7121 91.4257 58.9659C90.4526 59.1986 89.4477 59.315 88.4111 59.315H80.6367V35.96H87.4909ZM88.0303 45.5114C88.94 45.5114 89.6064 45.2364 90.0295 44.6864C90.4737 44.1364 90.6959 43.5123 90.6959 42.8142C90.6959 42.0103 90.4208 41.4074 89.8708 41.0055C89.3419 40.6035 88.6227 40.4026 87.713 40.4026H85.2379V45.5114H88.0303ZM88.189 55.0311C88.866 55.0311 89.4794 54.9465 90.0295 54.7773C90.5795 54.5869 91.0132 54.3013 91.3305 53.9205C91.6478 53.5186 91.8065 53.0214 91.8065 52.4291C91.8065 51.7521 91.6161 51.2444 91.2353 50.9059C90.8545 50.5463 90.3574 50.303 89.7439 50.1761C89.1515 50.028 88.5275 49.954 87.8717 49.954H85.2379V55.0311H88.189Z" fill="#F8F9FA"/>
<path d="M122.094 60.267L104.387 44.2739L105.752 45.0355L105.847 59.315H101.182V35.0398H101.373L118.698 50.9694L117.683 50.5252L117.588 35.96H122.221V60.267H122.094Z" fill="#F8F9FA"/>
<path d="M125.697 57.0303C125.697 56.3745 125.929 55.8244 126.395 55.3802C126.881 54.9359 127.41 54.7138 127.981 54.7138C128.51 54.7138 129.007 54.9359 129.473 55.3802C129.959 55.8244 130.203 56.3745 130.203 57.0303C130.203 57.7284 129.959 58.289 129.473 58.7121C129.007 59.114 128.51 59.315 127.981 59.315C127.41 59.315 126.881 59.114 126.395 58.7121C125.929 58.289 125.697 57.7284 125.697 57.0303Z" fill="#F8F9FA"/>
</svg>
