<svg width="53" height="51" viewBox="0 0 53 51" fill="none" xmlns="http://www.w3.org/2000/svg">
<path d="M26.5409 0.513428C12.1592 0.513428 0.500977 11.694 0.500977 25.4864C0.500977 39.2788 12.1592 50.4594 26.5409 50.4594C40.9225 50.4594 52.5807 39.2788 52.5807 25.4864C52.5807 11.694 40.9225 0.513428 26.5409 0.513428ZM37.1331 20.9705C37.144 21.1838 37.1467 21.3971 37.1467 21.6052C37.1467 28.1086 31.9902 35.6031 22.5562 35.6031C19.7686 35.6075 17.0389 34.8397 14.6954 33.3919C15.0942 33.4387 15.5037 33.4569 15.9188 33.4569C18.322 33.4569 20.5327 32.6739 22.2877 31.3524C21.2182 31.3323 20.1819 30.9927 19.3232 30.3809C18.4646 29.7691 17.8263 28.9156 17.4974 27.9395C18.2655 28.0795 19.0567 28.0502 19.8112 27.8536C18.6504 27.6285 17.6065 27.0253 16.8565 26.1463C16.1065 25.2672 15.6966 24.1665 15.6963 23.0307V22.9709C16.388 23.3377 17.1801 23.5614 18.0209 23.5874C16.9327 22.8927 16.1623 21.8254 15.8673 20.604C15.5724 19.3826 15.7751 18.0992 16.4341 17.0164C17.7224 18.5356 19.3291 19.7784 21.15 20.6643C22.9709 21.5502 24.9655 22.0595 27.0047 22.1593C26.7454 21.1039 26.857 19.996 27.3221 19.0077C27.7871 18.0195 28.5796 17.2063 29.5763 16.6945C30.573 16.1828 31.7181 16.0012 32.8335 16.1779C33.949 16.3547 34.9723 16.8799 35.7443 17.6719C36.8922 17.4541 37.9929 17.0504 38.9993 16.4779C38.6167 17.6177 37.8158 18.5855 36.7452 19.2015C37.762 19.0841 38.7548 18.8219 39.691 18.4237C39.0033 19.412 38.1371 20.2744 37.1331 20.9705Z" fill="#EBF2FA"/>
</svg>
