<svg width="651" height="572" viewBox="0 0 651 572" fill="none" xmlns="http://www.w3.org/2000/svg">
<g clip-path="url(#clip0_47_831)">
<path d="M602.175 530.126L619.694 524.495C621.878 514.967 621.733 505.044 619.272 495.586C612.234 511.444 591.584 515.329 579.818 527.986C576.178 531.962 573.468 536.717 571.889 541.899C570.309 547.081 569.901 552.556 570.693 557.92L567.007 570.59C575.616 569.844 583.963 567.217 591.473 562.888C598.983 558.559 605.478 552.632 610.51 545.515C613.293 541.494 615.566 537.134 617.275 532.538C609.803 531.78 602.175 530.126 602.175 530.126Z" fill="#F2F2F2"/>
<path d="M583.454 506.698L596.656 493.74C594.417 484.226 589.92 475.41 583.555 468.056C584.235 485.43 567.462 498.24 562.502 514.886C560.994 520.089 560.662 525.57 561.529 530.922C562.395 536.273 564.44 541.359 567.51 545.801L569.787 558.807C577.164 554.249 583.479 548.126 588.295 540.857C593.112 533.589 596.316 525.349 597.687 516.705C598.409 511.848 598.524 506.918 598.031 502.032C591.01 504.73 583.454 506.698 583.454 506.698Z" fill="#F2F2F2"/>
<path d="M495.693 37.9789H1.92098C1.4074 37.9679 0.918537 37.7534 0.559168 37.3815C0.199798 37.0096 -0.00146484 36.5098 -0.00146484 35.9893C-0.00146484 35.4687 0.199798 34.9689 0.559168 34.597C0.918537 34.2251 1.4074 34.0106 1.92098 33.9996H495.693C496.206 34.0106 496.695 34.2251 497.054 34.597C497.414 34.9689 497.615 35.4687 497.615 35.9893C497.615 36.5098 497.414 37.0096 497.054 37.3815C496.695 37.7534 496.206 37.9679 495.693 37.9789Z" fill="#3F3D56"/>
<path d="M35.5325 23.8407C41.8879 23.8407 47.0401 18.5038 47.0401 11.9203C47.0401 5.33692 41.8879 0 35.5325 0C29.177 0 24.0249 5.33692 24.0249 11.9203C24.0249 18.5038 29.177 23.8407 35.5325 23.8407Z" fill="#3F3D56"/>
<path d="M75.2859 23.8407C81.6414 23.8407 86.7935 18.5038 86.7935 11.9203C86.7935 5.33692 81.6414 0 75.2859 0C68.9304 0 63.7783 5.33692 63.7783 11.9203C63.7783 18.5038 68.9304 23.8407 75.2859 23.8407Z" fill="#3F3D56"/>
<path d="M115.039 23.8407C121.395 23.8407 126.547 18.5038 126.547 11.9203C126.547 5.33692 121.395 0 115.039 0C108.684 0 103.532 5.33692 103.532 11.9203C103.532 18.5038 108.684 23.8407 115.039 23.8407Z" fill="#3F3D56"/>
<path d="M471.757 2.95459H443.518C442.959 2.96588 442.426 3.19911 442.034 3.60419C441.642 4.00928 441.422 4.55392 441.422 5.12118C441.422 5.68844 441.642 6.23308 442.034 6.63816C442.426 7.04325 442.959 7.27647 443.518 7.28777H471.757C472.317 7.27647 472.85 7.04325 473.242 6.63816C473.634 6.23308 473.853 5.68844 473.853 5.12118C473.853 4.55392 473.634 4.00928 473.242 3.60419C472.85 3.19911 472.317 2.96588 471.757 2.95459Z" fill="#3F3D56"/>
<path d="M471.757 11.0873H443.519C442.959 11.0985 442.426 11.3317 442.034 11.7368C441.642 12.1419 441.422 12.6866 441.422 13.2539C441.422 13.8212 441.642 14.3659 442.034 14.771C442.426 15.1761 442.959 15.4093 443.519 15.4205H471.757C472.317 15.4093 472.85 15.1761 473.242 14.771C473.634 14.3659 473.854 13.8212 473.854 13.2539C473.854 12.6866 473.634 12.1419 473.242 11.7368C472.85 11.3317 472.317 11.0985 471.757 11.0873Z" fill="#3F3D56"/>
<path d="M471.757 19.2094H443.519C442.959 19.2206 442.426 19.4538 442.034 19.8589C441.642 20.2639 441.422 20.8086 441.422 21.3759C441.422 21.9432 441.642 22.4879 442.034 22.893C442.426 23.2981 442.959 23.5313 443.519 23.5425H471.757C472.317 23.5313 472.85 23.2981 473.242 22.893C473.634 22.4879 473.854 21.9432 473.854 21.3759C473.854 20.8086 473.634 20.2639 473.242 19.8589C472.85 19.4538 472.317 19.2206 471.757 19.2094Z" fill="#3F3D56"/>
<path d="M38.2517 118.818C46.109 118.818 52.4786 112.364 52.4786 104.402C52.4786 96.4404 46.109 89.9862 38.2517 89.9862C30.3945 89.9862 24.0249 96.4404 24.0249 104.402C24.0249 112.364 30.3945 118.818 38.2517 118.818Z" fill="#E6E7E8"/>
<path d="M400.54 136.324H28.2614C27.1378 136.324 26.0602 135.872 25.2657 135.067C24.4712 134.261 24.0249 133.17 24.0249 132.031C24.0249 130.893 24.4712 129.801 25.2657 128.996C26.0602 128.191 27.1378 127.738 28.2614 127.738H400.54C401.664 127.738 402.741 128.191 403.536 128.996C404.33 129.801 404.777 130.893 404.777 132.031C404.777 133.17 404.33 134.261 403.536 135.067C402.741 135.872 401.664 136.324 400.54 136.324Z" fill="#E6E7E8"/>
<path d="M302.904 153.287H28.2616C27.138 153.287 26.0603 152.834 25.2658 152.029C24.4713 151.224 24.0249 150.132 24.0249 148.994C24.0249 147.855 24.4713 146.763 25.2658 145.958C26.0603 145.153 27.138 144.701 28.2616 144.701H302.904C304.027 144.701 305.105 145.153 305.899 145.958C306.694 146.763 307.14 147.855 307.14 148.994C307.14 150.132 306.694 151.224 305.899 152.029C305.105 152.834 304.027 153.287 302.904 153.287Z" fill="#E6E7E8"/>
<path d="M38.2517 343.828C46.109 343.828 52.4786 337.373 52.4786 329.412C52.4786 321.45 46.109 314.996 38.2517 314.996C30.3945 314.996 24.0249 321.45 24.0249 329.412C24.0249 337.373 30.3945 343.828 38.2517 343.828Z" fill="#E6E7E8"/>
<path d="M400.54 361.333H28.2613C27.7044 361.334 27.1528 361.224 26.638 361.009C26.1232 360.793 25.6554 360.477 25.2613 360.079C24.8672 359.68 24.5545 359.206 24.3412 358.685C24.1279 358.164 24.0181 357.605 24.0181 357.041C24.0181 356.476 24.1279 355.918 24.3412 355.396C24.5545 354.875 24.8672 354.401 25.2613 354.003C25.6554 353.604 26.1232 353.288 26.638 353.073C27.1528 352.857 27.7044 352.747 28.2613 352.748H400.54C401.72 352.815 402.834 353.326 403.661 354.181C404.488 355.037 404.97 356.175 405.012 357.372C404.977 357.93 404.834 358.476 404.59 358.978C404.346 359.48 404.006 359.928 403.59 360.296C403.175 360.664 402.691 360.946 402.168 361.124C401.644 361.302 401.091 361.373 400.54 361.333Z" fill="#E6E7E8"/>
<path d="M302.904 378.296H28.2616C27.138 378.296 26.0603 377.844 25.2658 377.039C24.4713 376.234 24.0249 375.142 24.0249 374.003C24.0249 372.865 24.4713 371.773 25.2658 370.968C26.0603 370.163 27.138 369.71 28.2616 369.71H302.904C304.027 369.71 305.105 370.163 305.899 370.968C306.694 371.773 307.14 372.865 307.14 374.003C307.14 375.142 306.694 376.234 305.899 377.039C305.105 377.844 304.027 378.296 302.904 378.296Z" fill="#E6E7E8"/>
<path d="M38.2517 222.841C46.109 222.841 52.4786 216.387 52.4786 208.425C52.4786 200.464 46.109 194.01 38.2517 194.01C30.3945 194.01 24.0249 200.464 24.0249 208.425C24.0249 216.387 30.3945 222.841 38.2517 222.841Z" fill="#E6E7E8"/>
<path d="M400.54 240.347H28.2614C27.1378 240.347 26.0602 239.895 25.2657 239.09C24.4712 238.285 24.0249 237.193 24.0249 236.054C24.0249 234.916 24.4712 233.824 25.2657 233.019C26.0602 232.214 27.1378 231.762 28.2614 231.762H400.54C401.664 231.762 402.741 232.214 403.536 233.019C404.33 233.824 404.777 234.916 404.777 236.054C404.777 237.193 404.33 238.285 403.536 239.09C402.741 239.895 401.664 240.347 400.54 240.347Z" fill="#E6E7E8"/>
<path d="M348.698 257.31H28.2616C27.138 257.31 26.0603 256.858 25.2658 256.053C24.4713 255.248 24.0249 254.156 24.0249 253.017C24.0249 251.879 24.4713 250.787 25.2658 249.981C26.0603 249.176 27.138 248.724 28.2616 248.724H348.698C349.822 248.724 350.899 249.176 351.694 249.981C352.488 250.787 352.935 251.879 352.935 253.017C352.935 254.156 352.488 255.248 351.694 256.053C350.899 256.858 349.822 257.31 348.698 257.31Z" fill="#E6E7E8"/>
<path d="M326.949 274.273H28.2616C27.138 274.273 26.0603 273.821 25.2658 273.016C24.4713 272.21 24.0249 271.119 24.0249 269.98C24.0249 268.841 24.4713 267.749 25.2658 266.944C26.0603 266.139 27.138 265.687 28.2616 265.687H326.949C328.073 265.687 329.15 266.139 329.945 266.944C330.739 267.749 331.186 268.841 331.186 269.98C331.186 271.119 330.739 272.21 329.945 273.016C329.15 273.821 328.073 274.273 326.949 274.273Z" fill="#E6E7E8"/>
<path d="M333.129 464.056C391.316 464.056 438.486 416.259 438.486 357.299C438.486 298.338 391.316 250.542 333.129 250.542C274.942 250.542 227.772 298.338 227.772 357.299C227.772 416.259 274.942 464.056 333.129 464.056Z" fill="#F9A826"/>
<path d="M332.985 394.546C341.297 394.546 348.036 387.718 348.036 379.295C348.036 370.872 341.297 364.044 332.985 364.044C324.672 364.044 317.934 370.872 317.934 379.295C317.934 387.718 324.672 394.546 332.985 394.546Z" fill="#3F3D56"/>
<path d="M332.985 386.334C336.821 386.334 339.931 383.183 339.931 379.295C339.931 375.408 336.821 372.256 332.985 372.256C329.148 372.256 326.038 375.408 326.038 379.295C326.038 383.183 329.148 386.334 332.985 386.334Z" fill="#F9A826"/>
<path d="M360.924 413.245H305.335C299.831 413.238 294.554 411.02 290.662 407.076C286.769 403.133 284.58 397.786 284.574 392.208V366.383C284.58 360.805 286.769 355.458 290.662 351.514C294.554 347.57 299.831 345.352 305.335 345.345H360.924C366.428 345.352 371.705 347.57 375.597 351.514C379.489 355.458 381.678 360.805 381.685 366.383V392.208C381.678 397.786 379.489 403.133 375.597 407.076C371.705 411.02 366.428 413.238 360.924 413.245ZM305.335 347.548C300.407 347.554 295.683 349.54 292.198 353.071C288.713 356.602 286.753 361.389 286.748 366.383V392.208C286.753 397.202 288.713 401.989 292.198 405.52C295.683 409.05 300.407 411.036 305.335 411.042H360.924C365.851 411.036 370.576 409.05 374.061 405.52C377.545 401.989 379.505 397.202 379.511 392.208V366.383C379.505 361.389 377.545 356.602 374.061 353.071C370.576 349.54 365.852 347.554 360.924 347.548L305.335 347.548Z" fill="white"/>
<path d="M302.043 399.226H351.383C353.944 399.226 356.48 398.715 358.846 397.722C361.213 396.729 363.362 395.273 365.173 393.438C366.984 391.603 368.421 389.425 369.401 387.027C370.381 384.63 370.885 382.06 370.885 379.465V357.853C370.881 355.456 370.446 353.08 369.599 350.842C372.006 352.679 373.959 355.057 375.304 357.789C376.649 360.521 377.349 363.533 377.349 366.586V388.198C377.349 390.793 376.845 393.363 375.865 395.761C374.885 398.158 373.448 400.337 371.638 402.171C369.827 404.006 367.677 405.462 365.311 406.455C362.945 407.448 360.409 407.959 357.848 407.959H308.507C304.553 407.957 300.693 406.736 297.44 404.459C294.186 402.182 291.693 398.955 290.292 395.209C293.669 397.815 297.798 399.227 302.043 399.226Z" fill="#3F3D56"/>
<path d="M453.139 557.877L441.015 557.876L435.247 510.488L453.142 510.489L453.139 557.877Z" fill="#A0616A"/>
<path d="M453.567 570.692L416.283 570.691V570.213C416.283 566.313 417.812 562.573 420.534 559.816C423.255 557.058 426.946 555.509 430.795 555.509H430.796L437.606 550.273L450.313 555.51L453.567 555.51L453.567 570.692Z" fill="#2F2E41"/>
<path d="M538.927 557.877L551.051 557.876L556.82 510.488L538.925 510.489L538.927 557.877Z" fill="#A0616A"/>
<path d="M538.5 570.692L575.783 570.691V570.213C575.783 566.313 574.254 562.573 571.533 559.816C568.811 557.058 565.12 555.509 561.272 555.509H561.271L554.46 550.273L541.754 555.51L538.499 555.51L538.5 570.692Z" fill="#2F2E41"/>
<path d="M434.714 475.666C434.893 472.962 436.317 458.008 436.317 458.008L439.727 426.296L445.737 342.232L446.129 336.729L477.614 330.604L499.132 320.152L524.708 328.436L544.624 336.004C544.624 336.004 544.658 339.243 544.811 343.157C545.016 348.279 545.374 354.56 546.226 356.192C547.65 359.078 547.292 374.567 547.292 374.567C547.292 374.567 548.707 406.081 550.489 409.537C552.271 412.992 552.629 420.188 552.092 421.631C551.555 423.073 553.874 460.92 553.874 460.92C553.874 460.92 559.825 527.893 556.091 537.992C552.357 548.091 538.247 541.476 538.247 541.476C538.247 541.476 538.929 538.78 534.836 537.51C530.744 536.241 518.28 441.275 518.28 441.275C518.28 441.275 515.961 421.803 513.83 416.223C511.698 410.642 509.738 394.963 509.738 394.963C509.738 394.963 496.574 369.012 496.404 363.242C496.404 363.242 494.682 357.842 493.053 363.786C491.425 369.729 486.625 383.966 486.625 383.966L481.945 401.451L476.437 427.574L472.874 449.568C472.874 449.568 467.537 478.759 466.684 480.02C465.832 481.281 466.684 507.949 466.684 507.949C466.684 507.949 462.558 530.66 456.726 534.625C450.895 538.59 435.445 534.688 435.445 534.688C435.445 534.688 434.535 478.37 434.714 475.666Z" fill="#2F2E41"/>
<path d="M448.145 260.06L455.145 281.424L446.508 291.842L450.312 295.808L447.506 301.413L440.191 360.175L480.295 375.586L493.8 358.429L504.448 375.586L550.852 364.096L539.018 289.164V284.266L535.677 274.806V254.781L544.5 195.175L518.165 185.827L505.573 175.729L501.498 189.931L484.149 186.804L483.697 176.135L470.422 188.843L459.245 192.073L445.861 195.175L444.155 199.494L447.565 198.631L447.012 254.826L448.145 260.06Z" fill="#2F2E41"/>
<path d="M436.159 338.227L442.894 272.167L444.672 244.978L425.82 241.524C425.82 241.524 426.567 260.965 424.097 271.933C421.66 282.757 423.774 336.777 423.924 338.221C422.54 339.476 421.564 341.127 421.125 342.955C420.687 344.784 420.807 346.705 421.469 348.463C422.131 350.221 423.305 351.734 424.834 352.802C426.363 353.87 428.177 354.442 430.034 354.443C431.891 354.444 433.705 353.874 435.235 352.807C436.766 351.741 437.94 350.229 438.604 348.471C439.268 346.714 439.39 344.793 438.953 342.964C438.516 341.135 437.542 339.483 436.159 338.227Z" fill="#A0616A"/>
<path d="M417.769 285.855L423.013 286.953L441.001 290.728L441.999 290.935L444.122 282.383L446.585 279.722L451.274 254.825L451.522 253.529L458.606 238.187L463.508 192.073L445.28 195.391C445.187 195.486 445.101 195.589 445.016 195.693C442.399 198.699 440.532 202.88 437.48 207.088C427.548 220.78 419.926 254.048 420.225 272.275C420.233 272.569 419.935 272.889 419.577 273.217C417.887 274.791 416.784 276.908 416.455 279.21C416.125 281.513 416.59 283.86 417.769 285.855Z" fill="#2F2E41"/>
<path d="M553.35 338.227L546.615 272.167L544.837 244.978L563.689 241.524C563.689 241.524 562.942 260.965 565.412 271.933C567.849 282.757 565.735 336.777 565.585 338.221C566.969 339.476 567.945 341.127 568.384 342.955C568.822 344.784 568.702 346.705 568.04 348.463C567.378 350.221 566.204 351.734 564.675 352.802C563.146 353.87 561.332 354.442 559.475 354.443C557.618 354.444 555.804 353.874 554.274 352.807C552.743 351.741 551.569 350.229 550.905 348.471C550.241 346.714 550.119 344.793 550.556 342.964C550.993 341.135 551.967 339.483 553.35 338.227Z" fill="#A0616A"/>
<path d="M571.739 285.855L566.496 286.953L548.507 290.728L547.51 290.935L545.387 282.383L542.923 279.722L538.234 254.825L537.987 253.529L530.902 238.187L532.522 192.073L544.228 195.391C544.322 195.486 544.407 195.589 544.492 195.693C547.11 198.699 548.977 202.88 552.029 207.087C561.961 220.78 569.582 254.048 569.284 272.275C569.275 272.569 569.574 272.889 569.932 273.217C571.622 274.791 572.725 276.908 573.054 279.21C573.383 281.513 572.919 283.86 571.739 285.855Z" fill="#2F2E41"/>
<path d="M475.132 198.896L483.697 176.135L505.573 175.729L512.832 198.896L538.924 346.59C538.924 346.59 458.989 369.147 459.8 342.033C460.653 313.525 464.499 275.657 464.499 275.657L475.132 198.896Z" fill="#F9A826"/>
<path d="M494.146 169.769C508.379 169.769 519.916 158.077 519.916 143.656C519.916 129.234 508.379 117.543 494.146 117.543C479.913 117.543 468.375 129.234 468.375 143.656C468.375 158.077 479.913 169.769 494.146 169.769Z" fill="#A0616A"/>
<path d="M466.856 124.712C471.051 120.085 476.299 111.615 492.194 108.058C511.835 103.664 521.116 121.642 516.163 121.937C530.646 126.381 521.342 156.751 517.19 154.204C517.154 154.179 517.12 154.152 517.087 154.123C514.854 152.456 512.98 150.346 511.579 147.921C510.178 145.496 509.279 142.807 508.938 140.018L508.15 132.831C508.038 138.679 502.139 139.452 496.114 137.299C496.47 136.017 497.15 134.851 498.087 133.917C499.023 132.982 500.184 132.311 501.455 131.97C497.254 135.829 491.919 138.181 486.269 138.665C486.565 137.201 487.167 135.818 488.034 134.609C488.901 133.401 490.013 132.394 491.296 131.656L491.058 131.419C488.705 133.43 486.004 134.98 483.091 135.99C479.77 136.955 475.79 136.433 473.514 133.799C472.901 133.072 472.438 132.227 472.153 131.316C472.645 135.947 469.579 141.233 467.198 140.325C465.218 139.935 464.063 127.793 466.856 124.712Z" fill="#2F2E41"/>
<path d="M650.383 570.689C650.383 570.862 650.35 571.032 650.285 571.192C650.221 571.351 650.125 571.496 650.005 571.617C649.885 571.739 649.742 571.836 649.585 571.901C649.428 571.967 649.259 572.001 649.089 572H344.442C344.099 572 343.77 571.862 343.527 571.616C343.285 571.37 343.148 571.037 343.148 570.689C343.148 570.342 343.285 570.008 343.527 569.763C343.77 569.517 344.099 569.379 344.442 569.379H649.089C649.259 569.378 649.428 569.412 649.585 569.478C649.742 569.543 649.885 569.64 650.005 569.762C650.125 569.883 650.221 570.028 650.285 570.187C650.35 570.346 650.383 570.517 650.383 570.689Z" fill="#CCCCCC"/>
<path d="M333.985 299.414C323.68 299.414 314.622 304.141 309.494 311.237C314.976 307.193 321.596 305.041 328.376 305.097C344.334 305.097 357.316 316.424 357.316 330.346V341.919H362.925V324.663C362.925 310.741 349.942 299.414 333.985 299.414Z" fill="#3F3D56"/>
<path d="M366.779 347.842H299.48V327.777C299.48 311.59 314.575 298.42 333.129 298.42C351.684 298.42 366.779 311.59 366.779 327.777V347.842ZM301.654 345.639H364.605V327.777C364.605 312.804 350.485 300.622 333.129 300.622C315.773 300.622 301.654 312.804 301.654 327.777V345.639Z" fill="white"/>
<path d="M350.365 340.182H315.894C314.343 340.18 312.856 339.555 311.76 338.444C310.663 337.332 310.047 335.826 310.045 334.254V326.27C310.045 315.137 320.401 306.08 333.129 306.08C345.858 306.08 356.214 315.137 356.214 326.27V334.254C356.212 335.826 355.595 337.332 354.499 338.444C353.402 339.555 351.916 340.18 350.365 340.182ZM333.129 308.282C321.599 308.282 312.219 316.351 312.219 326.27V334.254C312.22 335.242 312.607 336.188 313.296 336.887C313.985 337.585 314.919 337.978 315.894 337.979H350.365C351.339 337.978 352.274 337.585 352.963 336.887C353.652 336.188 354.039 335.242 354.04 334.254V326.27C354.04 316.351 344.66 308.282 333.129 308.282Z" fill="white"/>
</g>
<defs>
<clipPath id="clip0_47_831">
<rect width="650.383" height="572" fill="white"/>
</clipPath>
</defs>
</svg>
