<svg width="672" height="447" viewBox="0 0 672 447" fill="none" xmlns="http://www.w3.org/2000/svg">
<g clip-path="url(#clip0_104_566)">
<path d="M241.047 257.253C264.076 216.704 308.005 185.569 354.508 188.569C320.206 225.904 300.204 274.181 298.041 324.857C297.277 344.404 298.461 366.224 285.495 380.861C277.427 389.968 265.095 394.378 252.97 395.304C240.844 396.229 228.721 394.036 216.758 391.852L213.856 392.744C212.751 346.115 218.017 297.801 241.047 257.253Z" fill="#F0F0F0"/>
<path d="M354.578 189.545C320.189 206.115 290.867 233.788 272.867 267.537C268.975 274.834 265.662 282.575 264.217 290.759C262.771 298.947 263.781 306.742 266.575 314.519C269.129 321.629 272.565 328.605 273.348 336.213C274.174 344.231 271.226 351.729 265.92 357.679C259.428 364.96 250.709 369.471 242.03 373.587C232.394 378.156 222.312 382.749 215.487 391.277C214.66 392.311 213.106 390.966 213.932 389.934C225.807 375.097 246.134 372.308 260.23 360.356C266.807 354.779 271.745 347.184 271.434 338.285C271.161 330.503 267.624 323.306 264.976 316.129C262.195 308.594 260.808 301.017 261.805 292.983C262.825 284.765 265.843 276.878 269.532 269.514C277.849 252.906 289.232 237.659 302.272 224.478C317.258 209.328 334.724 196.855 353.912 187.6C355.1 187.027 355.758 188.976 354.578 189.545Z" fill="white"/>
<path d="M278.14 256.258C272.868 252.4 269.138 246.792 267.616 240.435C266.094 234.078 266.879 227.387 269.831 221.556C270.433 220.378 272.289 221.258 271.687 222.437C268.928 227.862 268.198 234.095 269.627 240.012C271.056 245.928 274.551 251.138 279.482 254.702C280.552 255.478 279.204 257.029 278.14 256.258Z" fill="white"/>
<path d="M264.806 311.085C278.016 309.153 290.013 302.308 298.405 291.916C299.235 290.885 300.789 292.23 299.959 293.259C291.206 304.057 278.707 311.155 264.956 313.135C263.645 313.323 263.502 311.271 264.806 311.085V311.085Z" fill="white"/>
<path d="M318.273 211.857C320.002 213.776 322.18 215.234 324.611 216.102C327.043 216.969 329.651 217.219 332.203 216.828C333.51 216.624 333.652 218.675 332.353 218.878C329.532 219.297 326.652 219.018 323.963 218.065C321.275 217.113 318.861 215.516 316.931 213.414C316.733 213.231 316.611 212.979 316.591 212.71C316.572 212.441 316.655 212.174 316.825 211.964C317.003 211.759 317.256 211.633 317.527 211.613C317.798 211.593 318.066 211.681 318.273 211.857Z" fill="white"/>
<path d="M447.035 316.485C446.222 316.635 445.409 316.786 444.589 316.953C433.669 319.038 422.937 322.007 412.499 325.832C411.687 326.114 410.868 326.413 410.066 326.719C385.015 336.201 361.94 350.257 342.015 368.17C334.092 375.306 326.724 383.034 319.973 391.289C310.651 402.689 301.449 415.792 289.267 423.226C288.005 424.015 286.695 424.726 285.345 425.354L215.168 396.219C215.042 396.072 214.908 395.942 214.781 395.795L211.926 394.76C212.244 394.31 212.584 393.85 212.903 393.4C213.086 393.138 213.286 392.883 213.469 392.621C213.597 392.448 213.725 392.276 213.83 392.113C213.872 392.056 213.915 391.998 213.951 391.957C214.056 391.794 214.171 391.654 214.269 391.507C216.162 388.93 218.077 386.363 220.013 383.805C220.019 383.789 220.019 383.789 220.042 383.779C234.842 364.322 251.396 345.932 270.212 330.64C270.778 330.18 271.35 329.704 271.948 329.257C280.468 322.412 289.532 316.275 299.051 310.907C304.272 307.985 309.638 305.329 315.128 302.95C329.325 296.83 344.395 292.983 359.786 291.55C390.468 288.698 421.72 295.7 445.252 314.993C445.853 315.487 446.44 315.975 447.035 316.485Z" fill="#F0F0F0"/>
<path d="M446.508 317.311C409.084 309.818 369.026 314.243 334.353 330.343C326.856 333.824 319.555 338.007 313.478 343.671C307.398 349.338 303.516 356.17 301.069 364.063C298.832 371.279 297.378 378.92 293.428 385.466C289.263 392.366 282.4 396.576 274.584 398.13C265.021 400.031 255.346 398.379 245.941 396.434C235.498 394.276 224.685 391.868 214.106 394.564C212.824 394.89 212.393 392.88 213.672 392.554C232.079 387.864 249.987 397.886 268.431 396.838C277.037 396.348 285.548 393.26 290.652 385.967C295.116 379.589 296.621 371.711 298.823 364.385C301.135 356.693 304.585 349.808 310.214 343.994C315.972 338.047 323.126 333.569 330.5 329.911C347.132 321.663 365.392 316.349 383.732 313.683C404.811 310.617 426.259 311.183 447.147 315.357C448.44 315.616 447.792 317.568 446.508 317.311V317.311Z" fill="white"/>
<path d="M345.347 324.514C343.459 318.257 343.854 311.531 346.463 305.539C349.071 299.546 353.723 294.676 359.587 291.8C360.776 291.222 361.729 293.043 360.539 293.622C355.073 296.291 350.74 300.827 348.323 306.412C345.905 311.998 345.562 318.264 347.355 324.081C347.743 325.345 345.733 325.772 345.347 324.514Z" fill="white"/>
<path d="M301.721 360.255C313.431 366.673 327.127 368.438 340.079 365.197C341.362 364.875 341.794 366.885 340.512 367.207C327.028 370.553 312.779 368.688 300.608 361.982C299.449 361.343 300.568 359.618 301.721 360.255Z" fill="white"/>
<path d="M404.099 313.248C404.326 315.822 405.187 318.299 406.607 320.457C408.026 322.614 409.959 324.386 412.231 325.611C413.398 326.236 412.277 327.96 411.118 327.339C408.614 325.973 406.482 324.014 404.908 321.634C403.335 319.253 402.368 316.523 402.091 313.682C402.043 313.416 402.097 313.142 402.244 312.915C402.39 312.688 402.617 312.526 402.879 312.46C403.145 312.404 403.422 312.456 403.651 312.603C403.879 312.751 404.04 312.982 404.099 313.248Z" fill="white"/>
<path d="M313.352 364.552C303.524 316.988 291.239 301.13 291.239 301.13L286.546 297.487L280.902 293.099L280.929 292.535L279.59 292.079L279.276 291.835L278.76 291.439L278.678 291.528L278.503 291.709L252.963 283.02L220.561 272.004L205.557 252.484C203.114 249.305 199.968 246.735 196.366 244.977C192.764 243.218 188.804 242.319 184.797 242.348L136.879 242.703C130.4 242.751 124.173 245.223 119.423 249.634L87.9272 278.875L38.8509 302.335L38.7681 302.252L38.2527 302.62L30.67 306.249L30.9829 307.88L26.2896 311.269C26.2896 311.269 14.0045 326.025 4.17631 370.283C1.67613 381.544 0.445457 405.701 0.00124832 435.469C-0.0210642 436.975 0.255936 438.47 0.816135 439.868C1.37633 441.266 2.20856 442.538 3.26442 443.611C4.32028 444.684 5.57871 445.536 6.96655 446.118C8.35438 446.7 9.84392 446.999 11.3486 447H273.475V447H306.192C307.695 446.999 309.184 446.7 310.571 446.118C311.958 445.537 313.215 444.686 314.271 443.615C315.327 442.543 316.159 441.272 316.72 439.876C317.281 438.479 317.56 436.986 317.539 435.481C317.105 403.089 315.875 376.764 313.352 364.552Z" fill="#FFC800"/>
<path d="M346.984 41.4799C336.786 41.4799 327.005 45.5349 319.794 52.7527C312.583 59.9706 308.532 69.7601 308.532 79.9677C308.532 90.1753 312.583 99.9648 319.794 107.183C327.005 114.401 336.786 118.456 346.984 118.456H633.548C643.746 118.456 653.526 114.401 660.738 107.183C667.949 99.9648 672 90.1753 672 79.9677C672 69.7601 667.949 59.9706 660.738 52.7527C653.526 45.5349 643.746 41.4799 633.548 41.4799H346.984Z" fill="#E5E5E5"/>
<path d="M346.984 49.2691C338.85 49.2691 331.049 52.5034 325.297 58.2605C319.545 64.0176 316.314 71.8259 316.314 79.9677C316.314 88.1095 319.545 95.9178 325.297 101.675C331.049 107.432 338.85 110.666 346.984 110.666H633.547C641.682 110.666 649.483 107.432 655.235 101.675C660.987 95.9178 664.218 88.1095 664.218 79.9677C664.218 71.8259 660.987 64.0176 655.235 58.2605C649.483 52.5034 641.682 49.2691 633.547 49.2691H346.984Z" fill="white"/>
<path d="M168.363 224.33C203.034 224.33 231.14 196.198 231.14 161.495C231.14 126.793 203.034 98.6607 168.363 98.6607C133.692 98.6607 105.586 126.793 105.586 161.495C105.586 196.198 133.692 224.33 168.363 224.33Z" fill="#9E616A"/>
<path d="M152.304 221.253C152.035 220.662 151.768 220.069 151.501 219.474C151.604 219.477 151.706 219.492 151.809 219.495L152.304 221.253Z" fill="#2F2E41"/>
<path d="M103.84 101.518C107.015 98.9829 110.726 96.6503 114.786 96.7814C118.845 96.9124 122.962 100.582 122.121 104.559C129.577 91.3451 141.445 81.1818 155.642 75.8534C169.839 70.5251 185.458 70.3721 199.756 75.4214C209.845 78.9843 219.74 86.1121 222.057 96.5665C222.652 99.2502 222.78 102.193 224.454 104.372C226.565 107.12 230.603 107.741 233.929 106.775C233.962 106.765 233.995 106.755 234.028 106.745C234.59 106.553 235.197 106.534 235.769 106.691C236.342 106.848 236.854 107.173 237.24 107.624C237.626 108.076 237.868 108.633 237.935 109.223C238.001 109.813 237.889 110.41 237.612 110.936L234.758 116.265C238.356 117.068 242.096 116.989 245.657 116.033C246.248 115.878 246.873 115.91 247.446 116.124C248.019 116.338 248.512 116.725 248.857 117.231C249.201 117.736 249.381 118.336 249.372 118.948C249.362 119.56 249.164 120.155 248.804 120.649C239.391 133.585 223.664 141.938 207.615 141.84C196.209 141.77 184.685 137.836 173.585 140.461C169.29 141.477 165.277 143.442 161.84 146.212C158.404 148.983 155.63 152.488 153.723 156.471C151.817 160.455 150.825 164.815 150.822 169.231C150.818 173.648 151.802 178.01 153.702 181.996C150.292 178.263 143.7 179.147 140.211 182.807C136.723 186.468 135.82 191.932 136.171 196.978C136.709 204.697 139.73 211.97 142.915 219.048C116.211 218.207 90.9525 199.457 82.4505 174.097C73.9129 148.63 82.8606 118.269 103.84 101.518Z" fill="#2F2E41"/>
<path opacity="0.2" d="M61.7888 350.192L79.3964 446.079L89.9613 447L61.7888 350.192Z" fill="black"/>
<path opacity="0.2" d="M255.74 342.96L238.132 446.01L227.567 447L255.74 342.96Z" fill="black"/>
<path d="M118.858 69.2475C115.482 70.6585 111.959 69.1121 110.482 65.5708C108.982 61.9754 110.383 58.3256 113.813 56.892C117.244 55.4582 120.704 57.0084 122.228 60.6618C123.729 64.2604 122.343 67.7908 118.858 69.2475ZM112.391 49.815L109.707 50.9369C109.036 51.2139 108.286 51.2288 107.605 50.9788C106.924 50.7288 106.362 50.232 106.029 49.5867L105.896 49.3268C103.008 44.1131 102.677 37.7766 104.918 30.5032C106.995 23.9786 107.857 19.3899 106.123 15.2328C104.118 10.4263 99.8359 8.92071 94.3757 11.1018C92.258 11.9869 91.5841 11.9728 89.9175 13.6275C89.555 13.9918 89.1229 14.2794 88.647 14.4729C88.1711 14.6665 87.6611 14.7622 87.1474 14.7542C86.6508 14.7484 86.1605 14.6425 85.7057 14.4429C85.2509 14.2433 84.841 13.9541 84.5002 13.5925C83.8438 12.8956 83.4761 11.9754 83.4712 11.0176C83.4664 10.0599 83.8249 9.13602 84.4742 8.43255C87.2754 5.49756 90.654 3.17561 94.3968 1.61322C106.128 -3.28999 112.034 3.9489 114.737 10.427C117.38 16.7634 115.893 22.6425 113.504 30.2564C111.502 36.5832 111.618 41.2713 113.893 45.9326C114.057 46.285 114.148 46.667 114.161 47.0556C114.174 47.4443 114.109 47.8315 113.969 48.1941C113.828 48.5567 113.616 48.8872 113.345 49.1658C113.074 49.4443 112.75 49.6651 112.391 49.815L112.391 49.815Z" fill="#FFC800"/>
<path d="M410.282 98.3238H353.267C353.086 98.325 352.906 98.2904 352.739 98.2218C352.571 98.1533 352.418 98.0523 352.29 97.9245C352.161 97.7967 352.059 97.6448 351.99 97.4774C351.92 97.31 351.884 97.1305 351.884 96.9492C351.884 96.7679 351.92 96.5884 351.99 96.421C352.059 96.2536 352.161 96.1017 352.29 95.9739C352.418 95.8462 352.571 95.7451 352.739 95.6766C352.906 95.6081 353.086 95.5734 353.267 95.5746H410.282C410.645 95.5771 410.992 95.723 411.247 95.9805C411.503 96.238 411.646 96.5863 411.646 96.9492C411.646 97.3121 411.503 97.6604 411.247 97.9179C410.992 98.1754 410.645 98.3213 410.282 98.3238Z" fill="#FFC800"/>
<path d="M482.61 98.7819H425.594C425.413 98.7832 425.234 98.7485 425.066 98.68C424.898 98.6115 424.746 98.5104 424.617 98.3826C424.489 98.2549 424.387 98.1029 424.317 97.9356C424.247 97.7682 424.212 97.5887 424.212 97.4074C424.212 97.2261 424.247 97.0465 424.317 96.8792C424.387 96.7118 424.489 96.5598 424.617 96.4321C424.746 96.3043 424.898 96.2033 425.066 96.1347C425.234 96.0662 425.413 96.0316 425.594 96.0328H482.61C482.791 96.0316 482.971 96.0662 483.138 96.1347C483.306 96.2033 483.458 96.3043 483.587 96.4321C483.715 96.5598 483.817 96.7118 483.887 96.8792C483.957 97.0465 483.992 97.2261 483.992 97.4074C483.992 97.5887 483.957 97.7682 483.887 97.9356C483.817 98.1029 483.715 98.2549 483.587 98.3826C483.458 98.5104 483.306 98.6115 483.138 98.68C482.971 98.7485 482.791 98.7832 482.61 98.7819Z" fill="#FFC800"/>
<path d="M554.937 99.2401H497.922C497.559 99.2377 497.212 99.0917 496.957 98.8342C496.701 98.5767 496.558 98.2285 496.558 97.8656C496.558 97.5026 496.701 97.1544 496.957 96.8969C497.212 96.6394 497.559 96.4935 497.922 96.491H554.937C555.118 96.4898 555.298 96.5244 555.466 96.5929C555.633 96.6615 555.786 96.7625 555.914 96.8903C556.043 97.018 556.145 97.17 556.215 97.3374C556.284 97.5048 556.32 97.6843 556.32 97.8656C556.32 98.0469 556.284 98.2264 556.215 98.3938C556.145 98.5611 556.043 98.7131 555.914 98.8409C555.786 98.9686 555.633 99.0697 555.466 99.1382C555.298 99.2067 555.118 99.2414 554.937 99.2401H554.937Z" fill="#FFC800"/>
<path d="M627.265 99.6983H570.249C569.887 99.6958 569.54 99.5499 569.284 99.2924C569.029 99.0349 568.885 98.6867 568.885 98.3237C568.885 97.9608 569.029 97.6126 569.284 97.3551C569.54 97.0975 569.887 96.9516 570.249 96.9492H627.265C627.627 96.9516 627.974 97.0975 628.23 97.3551C628.485 97.6126 628.629 97.9608 628.629 98.3237C628.629 98.6867 628.485 99.0349 628.23 99.2924C627.974 99.5499 627.627 99.6958 627.265 99.6983Z" fill="#FFC800"/>
<path d="M381.649 85.6735C387.502 85.6735 392.246 80.9248 392.246 75.067C392.246 69.2092 387.502 64.4605 381.649 64.4605C375.797 64.4605 371.052 69.2092 371.052 75.067C371.052 80.9248 375.797 85.6735 381.649 85.6735Z" fill="#FFC800"/>
<path d="M454.413 85.6735C460.266 85.6735 465.01 80.9248 465.01 75.067C465.01 69.2092 460.266 64.4605 454.413 64.4605C448.561 64.4605 443.817 69.2092 443.817 75.067C443.817 80.9248 448.561 85.6735 454.413 85.6735Z" fill="#FFC800"/>
<path d="M527.178 85.6735C533.03 85.6735 537.775 80.9248 537.775 75.067C537.775 69.2092 533.03 64.4605 527.178 64.4605C521.325 64.4605 516.581 69.2092 516.581 75.067C516.581 80.9248 521.325 85.6735 527.178 85.6735Z" fill="#FFC800"/>
<path d="M599.942 85.6735C605.795 85.6735 610.539 80.9248 610.539 75.067C610.539 69.2092 605.795 64.4605 599.942 64.4605C594.09 64.4605 589.345 69.2092 589.345 75.067C589.345 80.9248 594.09 85.6735 599.942 85.6735Z" fill="#FFC800"/>
</g>
<defs>
<clipPath id="clip0_104_566">
<rect width="672" height="447" fill="white"/>
</clipPath>
</defs>
</svg>
