<svg width="18" height="17" viewBox="0 0 18 17" fill="none" xmlns="http://www.w3.org/2000/svg">
<path opacity="0.2" d="M4.59375 7.37816V10.6466C4.59375 10.82 4.66289 10.9862 4.78596 11.1088C4.90903 11.2314 5.07595 11.3003 5.25 11.3003H13.1578L16.4062 13.915V3.45603C16.4062 3.28266 16.3371 3.11639 16.214 2.9938C16.091 2.87121 15.924 2.80234 15.75 2.80234H12.4688V6.72447C12.4688 6.89784 12.3996 7.06411 12.2765 7.1867C12.1535 7.30929 11.9865 7.37816 11.8125 7.37816H4.59375Z" fill="#F8F9FA"/>
<path d="M17.0625 5.25C17.0625 4.9019 16.9242 4.56806 16.6781 4.32192C16.4319 4.07578 16.0981 3.9375 15.75 3.9375H13.125V1.3125C13.125 0.964403 12.9867 0.630564 12.7406 0.384422C12.4944 0.138281 12.1606 0 11.8125 0H1.3125C0.964406 0 0.630566 0.138281 0.384425 0.384422C0.138283 0.630564 2.56953e-06 0.964403 2.56953e-06 1.3125V11.8125C-0.000347294 11.9368 0.0350375 12.0585 0.10194 12.1632C0.168843 12.2679 0.264442 12.3512 0.377346 12.4031C0.464436 12.445 0.559618 12.4674 0.656253 12.4688C0.806162 12.4698 0.951544 12.4174 1.06641 12.3211L3.9375 10.0078V12.4688C3.9375 12.8168 4.07578 13.1507 4.32193 13.3968C4.56807 13.643 4.90191 13.7812 5.25 13.7812H12.9281L15.9961 16.2586C16.111 16.3549 16.2563 16.4073 16.4063 16.4062C16.5055 16.4051 16.6034 16.3827 16.6934 16.3406C16.8041 16.2867 16.8975 16.2028 16.9628 16.0983C17.028 15.9939 17.0626 15.8732 17.0625 15.75V5.25ZM3.49453 8.67891L1.3125 10.4344V1.3125H11.8125V8.53125H3.90469C3.75478 8.53024 3.6094 8.58257 3.49453 8.67891ZM13.5762 12.6164C13.4584 12.5195 13.3103 12.4672 13.1578 12.4688H5.25V9.84375H11.8125C12.1606 9.84375 12.4944 9.70547 12.7406 9.45933C12.9867 9.21319 13.125 8.87935 13.125 8.53125V5.25H15.75V14.3719L13.5762 12.6164Z" fill="#F8F9FA"/>
</svg>
