<svg width="131" height="62" viewBox="0 0 131 62" fill="none" xmlns="http://www.w3.org/2000/svg">
<path d="M70.053 32.3169C70.0539 36.2152 69.2454 40.0754 67.6738 43.6771C66.1022 47.2787 63.7984 50.5513 60.8938 53.3078C57.9892 56.0643 54.5408 58.2507 50.7456 59.7421C46.9504 61.2336 42.8828 62.0008 38.7751 62C21.5009 62 7.49708 48.7102 7.49708 32.3169C7.4941 29.1282 8.03274 25.9598 9.09227 22.9337C11.1724 17.0239 15.1576 11.8841 20.4842 8.24123C25.8109 4.59837 32.2094 2.63676 38.7751 2.63379C44.4375 2.63192 49.9942 4.08936 54.852 6.85053C59.7098 9.6117 63.6863 13.5729 66.357 18.3114C67.0192 19.4805 67.5969 20.691 68.086 21.9344C68.1537 22.1075 68.2198 22.2807 68.2841 22.4555V22.4572C68.5708 23.2256 68.8234 24.0084 69.0417 24.8054C69.7153 27.258 70.0552 29.7824 70.053 32.3169Z" fill="#F8F9FA"/>
<path d="M35.3527 12.2902C33.9471 11.5688 32.3865 11.1616 30.7898 11.0996C29.1932 11.0376 27.6027 11.3225 26.1397 11.9325C24.8515 12.4645 23.4952 13.4189 23.0654 15.1423C24.8034 14.1689 27.0532 15.7069 27.5004 18.1741L27.396 18.2014C27.1598 19.9103 27.6871 21.7708 28.708 22.8304C28.842 21.7298 29.6046 20.9807 30.3547 20.5128C31.1048 20.0448 31.9346 19.7049 32.5071 18.9006C33.1858 17.947 33.3581 16.5534 33.6278 15.2821C33.8974 14.0108 34.4089 12.6444 35.3527 12.2902Z" fill="#1A2D6D"/>
<path d="M25.6249 26.8319C25.1436 27.5179 24.5006 27.9484 23.9237 28.4843C23.3486 29.0219 22.8012 29.7475 22.6865 30.6792C22.6135 31.2761 22.7265 31.883 22.7108 32.4866C22.6952 33.0901 22.4832 33.7695 22.0505 33.9196C21.3676 34.1538 20.8463 32.95 20.1443 32.8658C19.5865 32.7999 19.0843 33.6327 19.2459 34.355C19.4076 35.0772 20.1669 35.3972 20.6031 34.9255C20.9975 35.5538 20.7195 36.6933 20.1269 36.8863C20.0644 37.282 20.0018 37.6762 19.941 38.0719C18.4431 37.0775 16.9296 36.0667 15.6559 34.6105C14.2394 33.0048 13.3607 31.034 13.1328 28.951C12.9678 27.2772 13.2128 25.3626 12.403 24.0747C11.7549 23.0441 10.6428 22.8165 9.64186 22.8808C9.45942 22.8923 9.27523 22.9121 9.09277 22.9336C9.68304 21.2511 10.4327 19.6229 11.3326 18.0688C11.5363 17.9859 11.7255 17.8741 11.8939 17.7374C12.8253 16.9871 13.2388 15.4683 13.9947 14.4178C14.0434 14.3502 14.0938 14.2842 14.1459 14.2199C14.9192 13.2618 15.9548 12.7687 16.9557 12.3103C19.1712 11.2895 21.451 10.2556 23.7899 10.3974L23.1244 10.4584C22.3477 12.523 21.5704 14.5876 20.7925 16.6523C20.6743 16.9689 20.555 17.2861 20.4345 17.6038C19.9931 18.7779 19.5379 20.0279 19.6057 21.3422C19.6456 22.1206 19.9306 22.9517 20.4727 23.2188C20.9784 23.4662 21.531 23.1628 22.0192 22.8626C22.226 22.7373 22.4311 22.612 22.6379 22.485C23.3799 22.0315 24.2018 21.5665 24.9855 21.8699C25.7031 22.1469 26.2331 23.0721 26.3339 24.0698C26.4263 25.0396 26.1769 26.0111 25.6249 26.8319Z" fill="#1A2D6D"/>
<path d="M30.0377 40.9277C27.8707 39.6614 25.7037 38.3952 23.5366 37.129L23.5734 37.0391C22.226 37.5261 21.6667 39.799 21.8893 41.6577C22.112 43.5165 22.867 45.178 23.2485 46.9892C23.7628 49.4676 23.5686 52.0315 22.6863 54.4147C25.5358 51.3804 28.0576 48.0827 30.2138 44.5709C30.5151 44.1283 30.7446 43.6453 30.8948 43.138C31.0324 42.5984 31.0113 41.9496 30.7356 41.5168C30.5582 41.2684 30.3183 41.066 30.0377 40.9277Z" fill="#1A2D6D"/>
<path d="M21.4845 17.891C21.2544 18.382 21.1659 19.0367 21.3747 19.5448C21.588 20.0636 22.0388 20.2981 22.4539 20.4933L23.6513 21.0566C24.0496 21.2439 24.479 21.4332 24.8851 21.279C25.3749 21.0931 25.7145 20.3644 25.6266 19.6879C25.5331 18.968 25.055 18.4728 24.6128 18.0511C23.9939 17.461 23.3751 16.8709 22.7562 16.2808L22.4074 16.6862C22.0302 17.0353 21.7181 17.4427 21.4845 17.891Z" fill="#1A2D6D"/>
<path d="M63.6337 25.587C64.1724 25.7074 64.7111 25.8278 65.2498 25.9482C65.1559 27.6748 64.2541 29.2727 63.0447 29.8515C62.5408 30.0923 61.9795 30.1813 61.5625 30.6315C61.1854 31.0405 60.9942 31.677 60.8187 32.2855C60.5112 33.3475 60.2036 34.4095 59.896 35.4715C59.5659 36.616 59.1419 37.8874 58.2835 38.2997C57.5467 38.6542 56.7039 38.2205 56.1375 37.4933C55.571 36.766 55.2252 35.7881 54.8898 34.835C54.9107 35.8739 54.4015 36.893 53.6804 37.2541C52.9575 37.6153 52.0783 37.2888 51.5952 36.4824C51.2477 35.9036 51.1035 35.14 50.7629 34.553C50.4223 33.9659 49.7081 33.6295 49.3362 34.1803C49.0912 34.5464 49.1225 35.1071 49.0009 35.5721C48.8115 36.2944 48.238 36.7479 47.6698 36.7875C47.1033 36.827 46.5508 36.517 46.0764 36.0965C45.0981 35.2258 44.3769 33.8439 44.0972 32.3086C43.9738 31.6243 43.9391 30.8789 44.1528 30.2374C44.3665 29.5959 44.8826 29.1012 45.3952 29.2232C45.7323 28.5471 45.0668 27.65 44.4673 27.7292C43.8661 27.8083 43.3952 28.4201 42.9017 28.8901C42.4099 29.3601 41.7218 29.7014 41.2266 29.2348C41.23 29.6685 40.8582 29.9554 40.5367 29.9191C40.217 29.8845 39.932 29.6404 39.6383 29.4673C38.5036 28.7961 37.0631 29.2414 36.2568 30.5111C36.7608 28.4762 37.4993 26.1411 39.0475 25.6629C39.68 25.4667 40.3699 25.6283 40.9676 25.2885C42.0259 24.6867 42.2396 22.4126 41.3256 21.4743C41.442 22.3615 41.4195 23.3971 40.9259 24.0039C40.4325 24.6108 39.3968 24.215 39.4594 23.3179C39.3169 23.9363 38.6079 24.0303 38.2812 23.5554C37.9528 23.0805 37.9806 22.3038 38.2134 21.7365C38.4463 21.1692 38.8425 20.7619 39.2265 20.371C40.0519 19.5317 40.8895 18.6824 41.8452 18.1547C42.8026 17.627 43.9078 17.4489 44.867 17.9733C45.3726 18.2503 45.8175 18.7121 46.3335 18.9562C46.8497 19.2019 47.5047 19.1705 47.8471 18.5966C48.2311 17.9568 48.0504 17.0069 48.1929 16.2072C48.4483 14.7939 49.9375 14.1326 50.7629 15.066C50.146 14.9159 49.5083 15.6085 49.4318 16.4479C49.3536 17.2873 49.8002 18.1349 50.398 18.3889C51.4023 18.811 52.3858 17.749 53.1452 16.7662C53.9376 15.7372 54.7311 14.7087 55.5258 13.6808C55.6527 13.5058 55.7951 13.3414 55.9515 13.1894C56.2004 12.9592 56.5322 12.8273 56.8797 12.8206C57.2272 12.8138 57.5644 12.9327 57.823 13.1531C58.6258 13.7748 59.0029 15.0495 59.6615 15.9268C60.6172 17.2016 62.0473 17.5116 63.3783 17.7589C64.3705 17.942 65.3633 18.1261 66.3567 18.3114C67.0189 19.4805 67.5965 20.6909 68.0857 21.9344C66.4036 22.6121 64.8518 23.8803 63.6337 25.587Z" fill="#1A2D6D"/>
<path d="M66.8414 45.4286C66.097 46.8631 65.2311 48.238 64.2523 49.5397C63.6268 49.2857 62.9543 49.7392 62.3687 50.1646C61.757 50.6099 61.022 51.0436 60.3947 50.6379C59.7535 50.2224 59.5467 49.0598 59.75 48.1379C59.9533 47.2178 60.4607 46.4856 60.9525 45.7897C61.4738 45.0509 62.0316 44.2841 62.7562 43.9972C63.4825 43.7102 64.4156 44.1159 64.6277 45.0954L65.142 45.0789C64.8535 44.703 65.0047 43.9246 65.3922 43.7877C65.8388 43.6278 66.2263 44.2099 66.4904 44.7244C66.6086 44.9569 66.7285 45.1911 66.8414 45.4286Z" fill="#1A2D6D"/>
<path d="M47.1425 38.463C46.0369 38.529 45.1612 37.2374 44.5793 35.9668C43.9974 34.6961 43.4664 33.243 42.4689 32.5963C41.8989 32.2267 41.249 32.176 40.6308 31.9969C40.0125 31.8179 39.3654 31.4473 39.0699 30.6927L38.3685 30.4238C37.4424 30.9181 36.504 31.4213 35.7059 32.2256C34.8108 33.1279 34.2533 34.2846 34.1193 35.5173C33.9853 36.8495 34.48 38.3349 35.4044 38.8353C36.1348 39.2308 36.9851 38.9815 37.725 39.3435C38.6493 39.7958 39.1981 41.1096 39.4058 42.4069C39.6136 43.7041 39.5609 45.0522 39.7095 46.3642C39.8582 47.6761 40.2678 49.0413 41.1155 49.7136C42.1763 50.5549 43.7328 49.8558 44.2087 48.3243C44.4422 47.5731 44.4342 46.7254 44.6088 45.9456C44.9162 44.5723 45.746 43.5534 46.4041 42.4269C47.0622 41.3004 47.5802 39.7704 47.1425 38.463Z" fill="#1A2D6D"/>
<path d="M36.2185 24.9684C36.3216 25.0584 36.4178 25.1553 36.5064 25.2584C36.5981 25.4084 36.6449 25.5793 36.6417 25.7527C36.6386 25.9262 36.5857 26.0955 36.4887 26.2424C36.6219 26.2352 36.752 26.2019 36.8709 26.1446C36.9898 26.0872 37.0949 26.0071 37.1795 25.9092C37.3813 25.6911 37.5588 25.4538 37.7092 25.2011C37.822 25.0266 37.9419 24.7907 37.8654 24.5835C37.8132 24.442 37.6896 24.3817 37.6031 24.2753C37.4658 24.1067 37.4318 23.8389 37.3608 23.6074C37.2074 23.1076 36.8399 22.7401 36.441 22.6875L36.4964 22.6976C36.3297 22.7517 36.2134 23.0029 36.2502 23.2288C36.2838 23.4346 36.4231 23.6055 36.4092 23.8153C36.3893 24.1171 36.0715 24.2588 36.0519 24.5606C36.0488 24.712 36.1086 24.8585 36.2185 24.9684Z" fill="#1A2D6D"/>
<path d="M34.3242 19.8399C34.3259 19.8395 34.3275 19.8394 34.3292 19.839C34.3632 19.8096 34.3947 19.7777 34.4235 19.7437L34.3242 19.8399Z" fill="#E6E6E6"/>
<path d="M34.6551 21.2566C34.8995 21.1074 35.036 20.6949 34.9552 20.3496C34.8749 20.0064 34.5906 19.7757 34.3284 19.8391C34.2524 19.9123 34.1579 19.9659 34.054 19.9949C33.9501 20.024 33.8402 20.0274 33.7345 20.005C33.5724 19.9654 33.3944 19.8635 33.2538 19.9794C33.1734 20.0659 33.1171 20.1702 33.0901 20.2827C33.0381 20.4343 32.986 20.5859 32.934 20.7375C32.9093 20.7918 32.9028 20.8519 32.9155 20.9098C32.9255 20.933 32.9416 20.9534 32.9622 20.969C32.9829 20.9846 33.0074 20.9948 33.0335 20.9988C33.3457 21.0862 33.6579 21.1735 33.9702 21.2609C34.1977 21.3245 34.4433 21.3858 34.6551 21.2566Z" fill="#1A2D6D"/>
<path d="M58.2252 40.8142C58.0809 40.5899 57.9365 40.3657 57.7922 40.1414C57.6505 39.8818 57.4566 39.6508 57.2217 39.4616C57.17 39.4205 57.1102 39.3897 57.0458 39.3709C56.9814 39.352 56.9137 39.3456 56.8466 39.352C56.7796 39.3584 56.7145 39.3774 56.6553 39.408C56.5962 39.4386 56.544 39.4801 56.502 39.53L56.5195 39.6581C56.8485 40.0498 57.1965 40.4849 57.28 41.0662C57.3129 41.2954 57.3014 41.5325 57.3303 41.7627C57.3591 41.9929 57.4412 42.2315 57.5977 42.3308C57.8249 42.4749 58.0918 42.2624 58.2535 42.0032C58.3981 41.7903 58.463 41.5374 58.4377 41.2852C58.4016 41.1161 58.3293 40.9557 58.2252 40.8142Z" fill="#1A2D6D"/>
<path d="M64.6485 32.2504C64.6902 31.9907 64.7319 31.7309 64.7737 31.4712C64.8414 31.1858 64.8499 30.8907 64.7985 30.6024C64.7868 30.5394 64.762 30.4792 64.7255 30.4255C64.689 30.3717 64.6416 30.3254 64.5859 30.2893C64.5303 30.2532 64.4677 30.228 64.4016 30.2152C64.3356 30.2025 64.2675 30.2023 64.2015 30.2149L64.128 30.3236C64.1139 30.8243 64.0849 31.3699 63.7543 31.8656C63.624 32.061 63.4543 32.2355 63.3202 32.4292C63.1861 32.6229 63.0868 32.8556 63.1393 33.0272C63.2154 33.2763 63.5637 33.2769 63.8633 33.1774C64.1184 33.1029 64.3396 32.9491 64.4913 32.7407C64.5786 32.5892 64.6321 32.4223 64.6485 32.2504Z" fill="#E6E6E6"/>
<path d="M60.4898 41.106C60.5604 40.9136 60.4585 40.6928 60.437 40.48C60.4266 40.2052 60.5034 39.9338 60.6574 39.7008C60.8103 39.4811 60.9261 39.24 61.0007 38.9864C61.0322 38.8708 61.0264 38.749 60.9843 38.6365C60.9365 38.5347 60.8208 38.4882 60.7544 38.5689L60.8964 38.6557C60.7047 38.6232 60.5076 38.6323 60.32 38.6822C60.213 38.7211 60.1174 38.7838 60.0414 38.8652C59.9654 38.9465 59.9111 39.0441 59.8832 39.1495C59.8597 39.314 59.8214 39.4762 59.7686 39.6344C59.6839 39.7997 59.5199 39.8546 59.4168 39.9997C59.3465 40.1283 59.3111 40.2715 59.3136 40.4163C59.3161 40.5612 59.3566 40.7031 59.4313 40.8295C59.5608 41.0361 59.7665 41.1896 60.0086 41.2603C60.182 41.3193 60.4104 41.3224 60.4898 41.106Z" fill="#1A2D6D"/>
<path d="M64.5213 42.2605C64.584 42.4154 64.668 42.5617 64.7711 42.6957C64.9641 42.8802 65.2265 42.7668 65.4606 42.7219C65.6731 42.6901 65.8907 42.7134 66.0904 42.7894C66.2901 42.8654 66.4643 42.9913 66.5947 43.1536C66.5039 42.7238 66.3057 42.321 66.0168 41.979C65.7279 41.6369 65.3568 41.3656 64.9345 41.188C64.3825 40.9744 63.8011 40.9538 63.2271 40.9346L63.1279 40.9587C63.3806 41.6567 64.174 41.6411 64.5213 42.2605Z" fill="#1A2D6D"/>
<path d="M47.4453 43.6887L47.4468 43.6918C47.4565 43.6741 47.4662 43.6564 47.4759 43.6387L47.4453 43.6887Z" fill="#E6E6E6"/>
<path d="M46.8331 44.8119C46.6997 45.0417 46.585 45.2809 46.4899 45.5272C46.3641 45.9263 46.2808 46.3364 46.2412 46.7513C46.2102 46.9872 46.2006 47.2884 46.3563 47.4034C46.401 47.4316 46.455 47.4433 46.5082 47.4365C46.5614 47.4296 46.6101 47.4046 46.6453 47.3662C46.7318 47.2793 46.8026 47.1794 46.8548 47.0706C47.1609 46.5703 47.3985 46.0351 47.562 45.4778C47.7111 44.8907 47.7097 44.1996 47.4462 43.6914C47.2418 44.0649 47.0375 44.4384 46.8331 44.8119Z" fill="#1A2D6D"/>
<path d="M40.9331 14.8785C41.0303 14.9686 41.1531 15.0298 41.2865 15.0545C41.4198 15.0792 41.5579 15.0664 41.6836 15.0175C41.944 14.9095 42.1828 14.7598 42.3897 14.5749C42.561 14.4546 42.7064 14.3041 42.8178 14.1317C42.8792 14.0287 42.9185 13.9152 42.9335 13.7977C42.9485 13.6802 42.939 13.5611 42.9053 13.4471C42.8086 13.1787 42.5633 13.0887 42.3468 13.0278C42.0003 12.9303 41.6537 12.8327 41.3072 12.7352L41.5578 12.5208C41.2999 12.3894 41.0146 12.6332 40.8534 12.9351C40.75 13.1322 40.6779 13.3427 40.6395 13.5598C40.5532 14.0336 40.6376 14.5977 40.9331 14.8785Z" fill="#E6E6E6"/>
<path d="M47.0513 12.9295C47.149 13.0317 47.284 13.0948 47.4289 13.106C47.5738 13.1172 47.7177 13.0756 47.8315 12.9898C47.9295 12.92 48.0108 12.8314 48.0703 12.7297C48.1298 12.6281 48.166 12.5157 48.1766 12.3999C48.2012 12.1412 48.0664 11.8537 47.8739 11.8313L47.9179 11.5891C47.5471 11.5256 47.0908 11.5129 46.8921 11.9402C46.8251 12.1039 46.8045 12.2814 46.8324 12.4551C46.8604 12.6287 46.9358 12.7923 47.0513 12.9295Z" fill="#E6E6E6"/>
<path d="M46.2336 0.0493603C44.0597 -0.183359 41.8774 0.413018 40.1668 1.70729C38.4561 3.00156 37.3574 4.88771 37.1121 6.95081C36.6015 11.247 38.9865 20.5763 43.3347 24.4382C45.3821 17.039 52.5566 12.6503 53.5059 8.70574C54.5203 4.49086 50.7606 0.533973 46.2336 0.0493603Z" fill="#FFC800"/>
<path d="M44.7303 9.60024C46.216 9.60024 47.4205 8.4572 47.4205 7.04719C47.4205 5.63718 46.216 4.49414 44.7303 4.49414C43.2445 4.49414 42.04 5.63718 42.04 7.04719C42.04 8.4572 43.2445 9.60024 44.7303 9.60024Z" fill="#1A2D6D"/>
<path d="M41.9017 28.1193C42.8748 28.1193 43.6637 27.3706 43.6637 26.4471C43.6637 25.5236 42.8748 24.7749 41.9017 24.7749C40.9285 24.7749 40.1396 25.5236 40.1396 26.4471C40.1396 27.3706 40.9285 28.1193 41.9017 28.1193Z" fill="#FFC800"/>
<path opacity="0.2" d="M46.9567 5.21827C47.2596 5.39095 47.5236 5.61854 47.7337 5.88805C47.9438 6.15756 48.096 6.46371 48.1814 6.78902C48.2669 7.11433 48.284 7.45242 48.2318 7.78401C48.1795 8.11559 48.059 8.43416 47.877 8.72153C47.6951 9.00891 47.4553 9.25946 47.1713 9.45887C46.8873 9.65829 46.5647 9.80267 46.2219 9.88377C45.5296 10.0476 44.7971 9.94365 44.1855 9.59491C44.8091 9.72654 45.4617 9.64329 46.0264 9.36005C46.5912 9.07681 47.0313 8.61206 47.268 8.049C47.5047 7.48594 47.5225 6.86131 47.3183 6.28693C47.114 5.71254 46.701 5.22588 46.1532 4.91406C46.4366 4.97366 46.708 5.07639 46.9567 5.21827Z" fill="#231F20"/>
<path opacity="0.2" d="M53.5164 8.71388C52.5671 12.6584 45.3927 17.0472 43.3453 24.4463C42.9363 24.0796 42.5565 23.6847 42.209 23.2649C44.5097 16.3099 51.2376 12.0838 52.1548 8.27268C52.9757 4.86163 50.6697 1.6199 47.3609 0.250488C51.3662 1.20601 54.446 4.85134 53.5164 8.71388Z" fill="#231F20"/>
<path d="M21.0242 10.0112C19.3916 9.83643 17.7528 10.2843 16.4682 11.2562C15.1836 12.2282 14.3584 13.6446 14.1743 15.1939C13.7908 18.4202 15.5818 25.4262 18.8472 28.3264C20.3847 22.7699 25.7725 19.4741 26.4854 16.5118C27.2472 13.3466 24.4238 10.3751 21.0242 10.0112Z" fill="#FFC800"/>
<path d="M19.8943 17.1831C21.0101 17.1831 21.9146 16.3248 21.9146 15.2659C21.9146 14.207 21.0101 13.3486 19.8943 13.3486C18.7785 13.3486 17.874 14.207 17.874 15.2659C17.874 16.3248 18.7785 17.1831 19.8943 17.1831Z" fill="#1A2D6D"/>
<path d="M17.7705 31.0906C18.5013 31.0906 19.0937 30.5284 19.0937 29.8349C19.0937 29.1413 18.5013 28.5791 17.7705 28.5791C17.0397 28.5791 16.4473 29.1413 16.4473 29.8349C16.4473 30.5284 17.0397 31.0906 17.7705 31.0906Z" fill="#FFC800"/>
<path opacity="0.2" d="M21.5664 13.8925C21.7938 14.0222 21.9921 14.1931 22.1499 14.3955C22.3077 14.5979 22.4219 14.8278 22.4861 15.0721C22.5503 15.3164 22.5631 15.5703 22.5239 15.8193C22.4847 16.0683 22.3942 16.3075 22.2575 16.5233C22.1209 16.7392 21.9408 16.9273 21.7275 17.0771C21.5143 17.2268 21.272 17.3352 21.0146 17.3961C20.7572 17.457 20.4896 17.4692 20.2272 17.432C19.9648 17.3948 19.7128 17.3089 19.4854 17.1792C19.9536 17.2781 20.4437 17.2155 20.8678 17.0028C21.2919 16.7901 21.6224 16.4411 21.8001 16.0183C21.9779 15.5954 21.9913 15.1264 21.8379 14.695C21.6845 14.2637 21.3744 13.8982 20.963 13.6641C21.1758 13.7088 21.3796 13.786 21.5664 13.8925Z" fill="#231F20"/>
<path opacity="0.2" d="M26.4925 16.5178C25.7796 19.4801 20.3918 22.7759 18.8543 28.3324C18.5472 28.057 18.262 27.7604 18.001 27.4451C19.7287 22.2222 24.7811 19.0485 25.4699 16.1865C26.0864 13.6249 24.3547 11.1905 21.8699 10.1621C24.8778 10.8797 27.1906 13.6172 26.4925 16.5178Z" fill="#231F20"/>
<path d="M71.3307 8.85903C70.7483 8.63962 70.126 8.53123 69.4994 8.54005C68.8729 8.54886 68.2543 8.67471 67.679 8.91041C67.1037 9.1461 66.5829 9.48702 66.1464 9.91371C65.7099 10.3404 65.3663 10.8445 65.1351 11.3972C64.1628 13.7218 64.0017 19.2729 65.8111 22.0551C68.1375 18.2199 72.8443 16.8037 74.0052 14.7387C75.2457 12.5321 73.7801 9.78175 71.3307 8.85903Z" fill="#FFC800"/>
<path d="M69.3716 14.0255C70.2311 14.0255 70.9279 13.3643 70.9279 12.5486C70.9279 11.733 70.2311 11.0718 69.3716 11.0718C68.5122 11.0718 67.8154 11.733 67.8154 12.5486C67.8154 13.3643 68.5122 14.0255 69.3716 14.0255Z" fill="#1A2D6D"/>
<path d="M64.6892 23.9376C65.2521 23.9376 65.7085 23.5045 65.7085 22.9702C65.7085 22.436 65.2521 22.0029 64.6892 22.0029C64.1263 22.0029 63.6699 22.436 63.6699 22.9702C63.6699 23.5045 64.1263 23.9376 64.6892 23.9376Z" fill="#FFC800"/>
<path opacity="0.2" d="M70.9072 11.8486C71.1922 12.1314 71.3474 12.5101 71.3384 12.9015C71.3294 13.2928 71.1571 13.6647 70.8594 13.9356C70.5616 14.2064 70.1627 14.354 69.7503 14.3459C69.338 14.3378 68.9458 14.1746 68.6602 13.8923C68.9872 14.0556 69.3647 14.1032 69.7253 14.0264C70.0858 13.9497 70.4059 13.7537 70.628 13.4735C70.8502 13.1933 70.9601 12.8472 70.938 12.4972C70.9158 12.1471 70.7632 11.816 70.5073 11.563C70.6559 11.6371 70.791 11.7335 70.9072 11.8486Z" fill="#231F20"/>
<path opacity="0.2" d="M74.0096 14.7448C72.8487 16.8099 68.1419 18.226 65.8154 22.0612C65.6458 21.7976 65.497 21.5225 65.3701 21.238C67.7669 17.6873 72.1984 16.2976 73.3201 14.3024C74.324 12.5166 73.5554 10.3749 71.9275 9.13379C74.0104 10.2442 75.1464 12.7227 74.0096 14.7448Z" fill="#231F20"/>
<path d="M68.9682 51.2812C67.7291 51.2812 66.3709 51.2145 64.8937 51.0811C57.2533 50.3898 47.3566 47.9864 37.0266 44.3139C26.6967 40.6414 17.1677 36.1381 10.1951 31.6341C6.79849 29.44 4.19162 27.3631 2.44698 25.461C0.59986 23.4474 -0.208095 21.6922 0.0454626 20.2443C0.539511 17.4237 4.91407 16.8066 8.49688 16.7856L8.4981 17.1958C3.57795 17.2246 0.67531 18.3426 0.324844 20.3437C-0.121589 22.8924 3.51933 26.8714 10.314 31.2605C17.2713 35.7547 26.7828 40.2492 37.0964 43.916C47.4099 47.5826 57.2884 49.9819 64.912 50.6717C72.3571 51.3454 76.8835 50.27 77.3299 47.7212C77.7005 45.6051 75.2571 42.4878 70.4499 38.9433L70.5822 38.579C74.0752 41.1545 78.1298 44.8484 77.6092 47.8206C77.3556 49.2684 76.0636 50.277 73.769 50.8181C72.461 51.1266 70.8544 51.2812 68.9682 51.2812Z" fill="#FFC800"/>
<path d="M87.4909 35.9603C89.9237 35.9603 91.8594 36.4574 93.2979 37.4517C94.7364 38.4248 95.4557 39.8845 95.4557 41.8307C95.4557 43.2693 95.0961 44.4751 94.3768 45.4482C93.6787 46.4002 92.7161 47.1195 91.4892 47.606C90.2833 48.0714 88.8977 48.3041 87.3322 48.3041L86.6024 45.829C88.5275 45.829 90.2304 46.0935 91.7113 46.6223C93.2133 47.1512 94.398 47.9128 95.2653 48.907C96.1327 49.8802 96.5663 51.0543 96.5663 52.4293C96.5663 53.6986 96.3336 54.7775 95.8682 55.666C95.424 56.5334 94.8105 57.2421 94.0277 57.7921C93.2662 58.321 92.3988 58.7123 91.4257 58.9662C90.4526 59.1989 89.4477 59.3152 88.4111 59.3152H80.6367V35.9603H87.4909ZM88.0303 45.5117C88.94 45.5117 89.6064 45.2367 90.0295 44.6867C90.4737 44.1366 90.6959 43.5126 90.6959 42.8144C90.6959 42.0106 90.4208 41.4077 89.8708 41.0057C89.3419 40.6038 88.6227 40.4028 87.713 40.4028H85.2379V45.5117H88.0303ZM88.189 55.0314C88.866 55.0314 89.4794 54.9468 90.0295 54.7775C90.5795 54.5871 91.0132 54.3015 91.3305 53.9207C91.6478 53.5188 91.8065 53.0217 91.8065 52.4293C91.8065 51.7524 91.6161 51.2447 91.2353 50.9062C90.8545 50.5466 90.3574 50.3033 89.7439 50.1763C89.1515 50.0283 88.5275 49.9542 87.8717 49.9542H85.2379V55.0314H88.189Z" fill="#F8F9FA"/>
<path d="M122.094 60.2672L104.387 44.2741L105.752 45.0357L105.847 59.3152H101.182V35.04H101.373L118.698 50.9696L117.683 50.5254L117.588 35.9603H122.221V60.2672H122.094Z" fill="#F8F9FA"/>
<path d="M125.697 57.0305C125.697 56.3747 125.929 55.8247 126.395 55.3804C126.881 54.9362 127.41 54.7141 127.981 54.7141C128.51 54.7141 129.007 54.9362 129.473 55.3804C129.959 55.8247 130.203 56.3747 130.203 57.0305C130.203 57.7286 129.959 58.2892 129.473 58.7123C129.007 59.1143 128.51 59.3152 127.981 59.3152C127.41 59.3152 126.881 59.1143 126.395 58.7123C125.929 58.2892 125.697 57.7286 125.697 57.0305Z" fill="#F8F9FA"/>
</svg>
