<svg width="20" height="18" viewBox="0 0 20 18" fill="none" xmlns="http://www.w3.org/2000/svg">
<path d="M0.785713 6.156C1.28769 4.95835 2.01542 3.87024 2.92857 2.952C3.83952 2.03154 4.91899 1.29799 6.10714 0.792C7.34152 0.2655 8.64955 0 10 0C11.3504 0 12.6585 0.2655 13.8929 0.792C15.081 1.29799 16.1605 2.03154 17.0714 2.952C17.9846 3.87024 18.7123 4.95835 19.2143 6.156C19.7366 7.40025 20 8.71875 20 10.08C20 13.0658 18.6987 15.8782 16.4308 17.7997L16.3929 17.8313C16.2634 17.9393 16.1004 18 15.933 18H4.06473C3.89732 18 3.73438 17.9393 3.60491 17.8313L3.56696 17.7997C1.30134 15.8782 0 13.0658 0 10.08C0 8.71875 0.265623 7.40025 0.785713 6.156ZM10.6696 2.7C10.6696 2.601 10.5893 2.52 10.4911 2.52H9.50893C9.41071 2.52 9.33036 2.601 9.33036 2.7V4.5C9.33036 4.599 9.41071 4.68 9.50893 4.68H10.4911C10.5893 4.68 10.6696 4.599 10.6696 4.5V2.7ZM15.4018 10.575C15.4018 10.674 15.4821 10.755 15.5804 10.755H17.3661C17.4643 10.755 17.5446 10.674 17.5446 10.575V9.585C17.5446 9.486 17.4643 9.405 17.3661 9.405H15.5804C15.4821 9.405 15.4018 9.486 15.4018 9.585V10.575ZM13.3772 5.97375L14.0714 6.6735C14.105 6.707 14.1503 6.72579 14.1975 6.72579C14.2448 6.72579 14.2901 6.707 14.3237 6.6735L15.5871 5.4C15.6203 5.36617 15.6389 5.32048 15.6389 5.27288C15.6389 5.22527 15.6203 5.17958 15.5871 5.14575L14.8929 4.446C14.8237 4.37625 14.7098 4.37625 14.6406 4.446L13.3772 5.7195C13.308 5.78925 13.308 5.904 13.3772 5.97375ZM6.87946 7.85475L8.76562 9.756C8.65402 10.1767 8.76116 10.6425 9.08929 10.9733C9.20529 11.0904 9.34307 11.1833 9.49474 11.2468C9.64642 11.3102 9.80901 11.3428 9.97321 11.3428C10.1374 11.3428 10.3 11.3102 10.4517 11.2468C10.6034 11.1833 10.7411 11.0904 10.8571 10.9733C10.9734 10.8563 11.0656 10.7174 11.1285 10.5646C11.1914 10.4117 11.2238 10.2478 11.2238 10.0822C11.2238 9.91673 11.1914 9.75284 11.1285 9.59995C11.0656 9.44706 10.9734 9.30818 10.8571 9.19125C10.7022 9.03455 10.5089 8.92186 10.2968 8.86457C10.0848 8.80729 9.86152 8.80744 9.64955 8.865L7.76339 6.96375C7.6942 6.894 7.58036 6.894 7.51116 6.96375L6.87946 7.6005C6.81027 7.67025 6.81027 7.78275 6.87946 7.85475ZM5.91964 6.67575L6.61384 5.976C6.64707 5.94217 6.66571 5.89648 6.66571 5.84888C6.66571 5.80127 6.64707 5.75558 6.61384 5.72175L5.35045 4.44825C5.28125 4.3785 5.16741 4.3785 5.09821 4.44825L4.40402 5.148C4.33482 5.21775 4.33482 5.3325 4.40402 5.40225L5.66741 6.67575C5.70097 6.70925 5.74629 6.72804 5.79353 6.72804C5.84076 6.72804 5.88608 6.70925 5.91964 6.67575ZM2.54464 10.575C2.54464 10.674 2.625 10.755 2.72321 10.755H4.50893C4.60714 10.755 4.6875 10.674 4.6875 10.575V9.585C4.6875 9.486 4.60714 9.405 4.50893 9.405H2.72321C2.625 9.405 2.54464 9.486 2.54464 9.585V10.575Z" fill="#F8F9FA"/>
</svg>
