<svg width="58" height="55" viewBox="0 0 58 55" fill="none" xmlns="http://www.w3.org/2000/svg">
<ellipse cx="28.9503" cy="27.2432" rx="28.4806" ry="27.2432" fill="#EBF2FA"/>
<path d="M40.8598 12.4658L38.6262 14.286L29.1162 21.6578L19.6062 14.2132L17.3727 12.393C16.8465 11.939 16.2041 11.6559 15.5252 11.5789C14.8463 11.502 14.1607 11.6344 13.5533 11.96C12.9459 12.2855 12.4434 12.7897 12.108 13.4103C11.7727 14.0308 11.6192 14.7403 11.6666 15.4509V36.5469C11.6666 37.2034 11.9167 37.8331 12.3617 38.2973C12.8068 38.7615 13.4104 39.0223 14.0398 39.0223H19.6062V24.9705L29.1162 32.4151L38.6262 24.9705V39.0223H44.1926C44.822 39.0223 45.4257 38.7615 45.8707 38.2973C46.3158 37.8331 46.5658 37.2034 46.5658 36.5469V15.4509C46.5986 14.7464 46.4344 14.0472 46.0933 13.4382C45.7523 12.8292 45.2489 12.3367 44.6445 12.0205C44.0401 11.7043 43.3607 11.578 42.6888 11.6571C42.0169 11.7362 41.3815 12.0171 40.8598 12.4658V12.4658Z" fill="#00095E" stroke="#00095E"/>
</svg>
