<svg width="57" height="55" viewBox="0 0 57 55" fill="none" xmlns="http://www.w3.org/2000/svg">
<ellipse cx="28.5167" cy="27.7567" rx="28.483" ry="27.2432" fill="#EBF2FA"/>
<path d="M24.2272 40.0921H18.8439V21.7518H24.2272V40.0921ZM21.5323 19.25C19.8112 19.25 18.4146 17.7411 18.4146 15.9202C18.4146 15.0454 18.743 14.2065 19.3277 13.5879C19.9124 12.9693 20.7054 12.6218 21.5323 12.6218C22.3592 12.6218 23.1522 12.9693 23.7369 13.5879C24.3216 14.2065 24.6501 15.0454 24.6501 15.9202C24.6501 17.7411 23.2535 19.25 21.5323 19.25ZM44.375 40.0921H39.0038V31.1643C39.0038 29.0363 38.963 26.3079 36.205 26.3079C33.4062 26.3079 32.9769 28.6193 32.9769 31.0112V40.0921H27.5991V21.7518H32.7617V24.2535H32.8368C33.5555 22.8123 35.311 21.2916 37.9299 21.2916C43.3781 21.2916 44.3797 25.0874 44.3797 30.0174V40.0921H44.375Z" fill="#00095E"/>
</svg>
