<svg width="131" height="62" viewBox="0 0 131 62" fill="none" xmlns="http://www.w3.org/2000/svg">
<path d="M70.0531 32.3169C70.0539 36.2152 69.2455 40.0754 67.6739 43.6771C66.1023 47.2787 63.7984 50.5513 60.8938 53.3078C57.9892 56.0643 54.5408 58.2507 50.7457 59.7421C46.9505 61.2336 42.8828 62.0008 38.7751 62C21.501 62 7.49714 48.7102 7.49714 32.3169C7.49416 29.1282 8.0328 25.9598 9.09233 22.9337C11.1725 17.0239 15.1577 11.8841 20.4843 8.24123C25.8109 4.59837 32.2095 2.63676 38.7751 2.63379C44.4376 2.63192 49.9943 4.08936 54.8521 6.85053C59.7099 9.6117 63.6864 13.5729 66.3571 18.3114C67.0193 19.4805 67.5969 20.691 68.0861 21.9344C68.1538 22.1075 68.2199 22.2807 68.2841 22.4555V22.4572C68.5709 23.2256 68.8234 24.0084 69.0418 24.8054C69.7154 27.258 70.0553 29.7824 70.0531 32.3169Z" fill="#00095E"/>
<path d="M35.353 12.2901C33.9474 11.5687 32.3868 11.1615 30.7901 11.0995C29.1935 11.0375 27.603 11.3224 26.14 11.9324C24.8518 12.4644 23.4955 13.4188 23.0657 15.1422C24.8037 14.1688 27.0535 15.7068 27.5007 18.174L27.3963 18.2013C27.1601 19.9102 27.6874 21.7707 28.7083 22.8303C28.8423 21.7297 29.6049 20.9806 30.355 20.5126C31.1051 20.0447 31.9349 19.7048 32.5074 18.9005C33.1861 17.9469 33.3584 16.5533 33.6281 15.282C33.8977 14.0107 34.4092 12.6443 35.353 12.2901Z" fill="white"/>
<path d="M25.6245 26.8321C25.1431 27.5181 24.5002 27.9485 23.9233 28.4845C23.3482 29.0221 22.8008 29.7476 22.6861 30.6794C22.6131 31.2763 22.7261 31.8832 22.7104 32.4868C22.6948 33.0903 22.4828 33.7697 22.0501 33.9198C21.3672 34.1539 20.8459 32.9501 20.1439 32.866C19.5861 32.8001 19.0839 33.6329 19.2455 34.3551C19.4071 35.0774 20.1665 35.3973 20.6026 34.9257C20.9971 35.554 20.7191 36.6935 20.1265 36.8864C20.0639 37.2822 20.0014 37.6764 19.9406 38.0721C18.4427 37.0777 16.9292 36.0669 15.6555 34.6107C14.2389 33.005 13.3603 31.0342 13.1324 28.9512C12.9673 27.2774 13.2123 25.3628 12.4026 24.0749C11.7544 23.0442 10.6423 22.8166 9.64143 22.881C9.45899 22.8925 9.2748 22.9123 9.09235 22.9337C9.68261 21.2513 10.4323 19.6231 11.3322 18.069C11.5358 17.986 11.7251 17.8743 11.8934 17.7375C12.8248 16.9872 13.2384 15.4684 13.9943 14.418C14.043 14.3504 14.0933 14.2844 14.1455 14.2201C14.9187 13.262 15.9544 12.7689 16.9553 12.3105C19.1708 11.2897 21.4506 10.2557 23.7895 10.3976L23.124 10.4586C22.3473 12.5232 21.5699 14.5878 20.792 16.6525C20.6739 16.9691 20.5546 17.2862 20.4341 17.604C19.9927 18.7781 19.5375 20.0281 19.6052 21.3424C19.6452 22.1207 19.9301 22.9519 20.4723 23.219C20.978 23.4664 21.5305 23.163 22.0188 22.8628C22.2256 22.7375 22.4307 22.6122 22.6374 22.4852C23.3794 22.0317 24.2013 21.5667 24.985 21.8701C25.7027 22.1471 26.2327 23.0722 26.3335 24.0699C26.4259 25.0398 26.1765 26.0113 25.6245 26.8321Z" fill="white"/>
<path d="M30.0374 40.9278C27.8703 39.6616 25.7033 38.3953 23.5363 37.1291L23.573 37.0392C22.2257 37.5262 21.6663 39.7991 21.889 41.6578C22.1116 43.5166 22.8667 45.1782 23.2481 46.9893C23.7624 49.4677 23.5683 52.0317 22.6859 54.4149C25.5354 51.3806 28.0572 48.0828 30.2135 44.571C30.5147 44.1284 30.7442 43.6454 30.8944 43.1382C31.0321 42.5985 31.0109 41.9497 30.7352 41.5169C30.5578 41.2686 30.318 41.0661 30.0374 40.9278Z" fill="white"/>
<path d="M21.4848 17.8912C21.2547 18.3822 21.1662 19.0369 21.375 19.5449C21.5883 20.0638 22.0391 20.2983 22.4542 20.4935L23.6516 21.0567C24.0499 21.2441 24.4793 21.4334 24.8854 21.2792C25.3752 21.0933 25.7148 20.3646 25.6269 19.6881C25.5334 18.9682 25.0553 18.473 24.6131 18.0513C23.9942 17.4612 23.3754 16.8711 22.7565 16.2809L22.4077 16.6863C22.0305 17.0355 21.7184 17.4429 21.4848 17.8912Z" fill="white"/>
<path d="M63.6342 25.587C64.1728 25.7074 64.7115 25.8278 65.2502 25.9482C65.1563 27.6748 64.2545 29.2727 63.0451 29.8515C62.5412 30.0923 61.9799 30.1813 61.5629 30.6315C61.1858 31.0405 60.9947 31.677 60.8192 32.2855C60.5116 33.3475 60.204 34.4095 59.8964 35.4715C59.5663 36.616 59.1423 37.8874 58.2839 38.2997C57.5471 38.6542 56.7044 38.2205 56.1379 37.4933C55.5714 36.766 55.2256 35.7881 54.8902 34.835C54.9111 35.8739 54.402 36.893 53.6808 37.2541C52.958 37.6153 52.0787 37.2888 51.5956 36.4824C51.2481 35.9036 51.1039 35.14 50.7633 34.553C50.4227 33.9659 49.7085 33.6295 49.3367 34.1803C49.0917 34.5464 49.1229 35.1071 49.0013 35.5721C48.8119 36.2944 48.2385 36.7479 47.6703 36.7875C47.1038 36.827 46.5512 36.517 46.0768 36.0965C45.0985 35.2258 44.3774 33.8439 44.0976 32.3086C43.9742 31.6243 43.9395 30.8789 44.1532 30.2374C44.367 29.5959 44.883 29.1012 45.3956 29.2232C45.7328 28.5471 45.0672 27.65 44.4677 27.7292C43.8665 27.8083 43.3956 28.4201 42.9021 28.8901C42.4103 29.3601 41.7222 29.7014 41.227 29.2348C41.2305 29.6685 40.8586 29.9554 40.5371 29.9191C40.2174 29.8845 39.9324 29.6404 39.6388 29.4673C38.5041 28.7961 37.0635 29.2414 36.2573 30.5111C36.7612 28.4762 37.4997 26.1411 39.0479 25.6629C39.6805 25.4667 40.3703 25.6283 40.9681 25.2885C42.0263 24.6867 42.24 22.4126 41.326 21.4743C41.4424 22.3615 41.4199 23.3971 40.9264 24.0039C40.4329 24.6108 39.3972 24.215 39.4598 23.3179C39.3173 23.9363 38.6083 24.0303 38.2816 23.5554C37.9532 23.0805 37.981 22.3038 38.2139 21.7365C38.4467 21.1692 38.8429 20.7619 39.2269 20.371C40.0523 19.5317 40.8899 18.6824 41.8456 18.1547C42.803 17.627 43.9082 17.4489 44.8674 17.9733C45.3731 18.2503 45.8179 18.7121 46.334 18.9562C46.8501 19.2019 47.5052 19.1705 47.8475 18.5966C48.2315 17.9568 48.0508 17.0069 48.1933 16.2072C48.4487 14.7939 49.9379 14.1326 50.7633 15.066C50.1464 14.9159 49.5087 15.6085 49.4322 16.4479C49.354 17.2873 49.8006 18.1349 50.3984 18.3889C51.4028 18.811 52.3863 17.749 53.1456 16.7662C53.938 15.7372 54.7315 14.7087 55.5262 13.6808C55.6531 13.5058 55.7956 13.3414 55.952 13.1894C56.2008 12.9592 56.5326 12.8273 56.8801 12.8206C57.2276 12.8138 57.5648 12.9327 57.8234 13.1531C58.6262 13.7748 59.0033 15.0495 59.6619 15.9268C60.6176 17.2016 62.0477 17.5116 63.3787 17.7589C64.3709 17.942 65.3637 18.1261 66.3571 18.3114C67.0193 19.4805 67.5969 20.6909 68.0861 21.9344C66.404 22.6121 64.8523 23.8803 63.6342 25.587Z" fill="white"/>
<path d="M66.8419 45.4286C66.0975 46.8631 65.2316 48.238 64.2528 49.5397C63.6272 49.2857 62.9548 49.7392 62.3692 50.1647C61.7575 50.6099 61.0225 51.0436 60.3952 50.638C59.754 50.2224 59.5472 49.0598 59.7505 48.138C59.9538 47.2178 60.4612 46.4856 60.953 45.7897C61.4743 45.0509 62.0321 44.2841 62.7567 43.9972C63.483 43.7102 64.4161 44.1159 64.6281 45.0955L65.1425 45.079C64.854 44.703 65.0052 43.9246 65.3927 43.7877C65.8393 43.6278 66.2268 44.2099 66.4909 44.7244C66.6091 44.9569 66.729 45.1911 66.8419 45.4286Z" fill="white"/>
<path d="M47.1428 38.4631C46.0372 38.5291 45.1615 37.2375 44.5795 35.9668C43.9976 34.6962 43.4667 33.2431 42.4691 32.5963C41.8991 32.2268 41.2493 32.1761 40.631 31.997C40.0128 31.8179 39.3656 31.4474 39.0701 30.6928L38.3688 30.4239C37.4426 30.9181 36.5042 31.4214 35.7061 32.2256C34.811 33.128 34.2535 34.2846 34.1196 35.5174C33.9856 36.8495 34.4803 38.335 35.4046 38.8354C36.135 39.2308 36.9854 38.9816 37.7252 39.3436C38.6496 39.7959 39.1983 41.1097 39.4061 42.4069C39.6138 43.7042 39.5612 45.0523 39.7098 46.3642C39.8584 47.6762 40.268 49.0413 41.1157 49.7137C42.1765 50.555 43.7331 49.8559 44.209 48.3244C44.4425 47.5731 44.4344 46.7254 44.609 45.9456C44.9165 44.5723 45.7462 43.5535 46.4043 42.4269C47.0624 41.3004 47.5804 39.7704 47.1428 38.4631Z" fill="white"/>
<path d="M36.2182 24.9685C36.3213 25.0586 36.4175 25.1555 36.5061 25.2586C36.5978 25.4086 36.6446 25.5795 36.6414 25.7529C36.6383 25.9263 36.5854 26.0956 36.4884 26.2426C36.6216 26.2354 36.7517 26.2021 36.8706 26.1447C36.9895 26.0874 37.0946 26.0073 37.1792 25.9094C37.381 25.6913 37.5585 25.454 37.7089 25.2013C37.8217 25.0268 37.9416 24.7909 37.8651 24.5837C37.8128 24.4422 37.6893 24.3819 37.6028 24.2755C37.4655 24.1069 37.4315 23.8391 37.3605 23.6076C37.2071 23.1078 36.8396 22.7402 36.4407 22.6877L36.4961 22.6977C36.3294 22.7519 36.2131 23.0031 36.2499 23.229C36.2835 23.4348 36.4228 23.6056 36.4089 23.8155C36.389 24.1173 36.0712 24.2589 36.0516 24.5608C36.0485 24.7122 36.1083 24.8587 36.2182 24.9685Z" fill="white"/>
<path d="M34.3239 19.8399C34.3256 19.8395 34.3272 19.8394 34.3289 19.839C34.3629 19.8096 34.3944 19.7777 34.4232 19.7437L34.3239 19.8399Z" fill="#E6E6E6"/>
<path d="M34.6555 21.2566C34.9 21.1074 35.0365 20.6948 34.9557 20.3495C34.8754 20.0064 34.5911 19.7757 34.3289 19.839C34.2529 19.9122 34.1584 19.9658 34.0545 19.9949C33.9506 20.0239 33.8407 20.0274 33.7349 20.005C33.5728 19.9654 33.3949 19.8634 33.2543 19.9793C33.1739 20.0658 33.1176 20.1701 33.0906 20.2827C33.0385 20.4343 32.9865 20.5858 32.9345 20.7374C32.9098 20.7917 32.9033 20.8519 32.916 20.9098C32.926 20.9329 32.9421 20.9533 32.9627 20.9689C32.9834 20.9845 33.0079 20.9948 33.034 20.9988C33.3462 21.0861 33.6584 21.1735 33.9706 21.2608C34.1982 21.3245 34.4438 21.3858 34.6555 21.2566Z" fill="white"/>
<path d="M58.2255 40.8142C58.0812 40.59 57.9368 40.3658 57.7925 40.1415C57.6508 39.8818 57.457 39.6509 57.222 39.4617C57.1703 39.4206 57.1105 39.3897 57.0461 39.3709C56.9817 39.3521 56.914 39.3457 56.8469 39.3521C56.7799 39.3584 56.7148 39.3775 56.6557 39.408C56.5965 39.4386 56.5443 39.4801 56.5023 39.5301L56.5198 39.6582C56.8488 40.0499 57.1968 40.485 57.2803 41.0663C57.3132 41.2954 57.3017 41.5326 57.3306 41.7628C57.3594 41.9929 57.4415 42.2316 57.598 42.3308C57.8252 42.4749 58.0921 42.2625 58.2538 42.0033C58.3984 41.7904 58.4633 41.5375 58.438 41.2853C58.4019 41.1161 58.3296 40.9558 58.2255 40.8142Z" fill="white"/>
<path d="M64.6486 32.2503C64.6903 31.9905 64.7321 31.7308 64.7738 31.471C64.8416 31.1857 64.85 30.8906 64.7986 30.6022C64.787 30.5393 64.7622 30.4791 64.7257 30.4253C64.6892 30.3716 64.6417 30.3253 64.5861 30.2892C64.5304 30.2531 64.4678 30.2279 64.4017 30.2151C64.3357 30.2023 64.2677 30.2022 64.2016 30.2148L64.1281 30.3235C64.114 30.8242 64.085 31.3698 63.7544 31.8655C63.6241 32.0609 63.4544 32.2354 63.3203 32.4291C63.1862 32.6228 63.087 32.8555 63.1394 33.0271C63.2155 33.2762 63.5638 33.2768 63.8634 33.1773C64.1185 33.1028 64.3397 32.9489 64.4915 32.7406C64.5787 32.5891 64.6322 32.4222 64.6486 32.2503Z" fill="#E6E6E6"/>
<path d="M60.4895 41.106C60.5601 40.9136 60.4582 40.6928 60.4367 40.48C60.4263 40.2052 60.5031 39.9338 60.657 39.7008C60.8099 39.4811 60.9258 39.24 61.0004 38.9864C61.0319 38.8708 61.0261 38.749 60.984 38.6365C60.9362 38.5347 60.8205 38.4882 60.7541 38.5689L60.8961 38.6557C60.7043 38.6232 60.5073 38.6323 60.3197 38.6822C60.2127 38.7211 60.1171 38.7838 60.0411 38.8652C59.9651 38.9465 59.9108 39.0441 59.8829 39.1495C59.8594 39.314 59.8211 39.4762 59.7683 39.6344C59.6836 39.7997 59.5196 39.8546 59.4165 39.9997C59.3462 40.1283 59.3108 40.2715 59.3133 40.4163C59.3158 40.5612 59.3563 40.7031 59.431 40.8295C59.5604 41.0361 59.7662 41.1896 60.0083 41.2603C60.1817 41.3193 60.4101 41.3224 60.4895 41.106Z" fill="white"/>
<path d="M64.5212 42.2605C64.5839 42.4153 64.668 42.5616 64.7711 42.6956C64.9641 42.8801 65.2264 42.7667 65.4606 42.7219C65.6731 42.69 65.8907 42.7134 66.0903 42.7894C66.29 42.8654 66.4643 42.9912 66.5947 43.1536C66.5039 42.7238 66.3057 42.3209 66.0168 41.9789C65.7279 41.6368 65.3567 41.3656 64.9345 41.1879C64.3824 40.9743 63.8011 40.9537 63.227 40.9345L63.1279 40.9586C63.3805 41.6566 64.1739 41.641 64.5212 42.2605Z" fill="white"/>
<path d="M47.4451 43.6885L47.4466 43.6916C47.4563 43.6739 47.466 43.6562 47.4758 43.6385L47.4451 43.6885Z" fill="#E6E6E6"/>
<path d="M46.8335 44.8117C46.7001 45.0415 46.5854 45.2806 46.4904 45.527C46.3645 45.9261 46.2812 46.3361 46.2417 46.751C46.2106 46.9869 46.201 47.2882 46.3567 47.4032C46.4015 47.4313 46.4555 47.4431 46.5086 47.4362C46.5618 47.4294 46.6106 47.4044 46.6457 47.3659C46.7322 47.279 46.803 47.1792 46.8552 47.0704C47.1613 46.5701 47.399 46.0348 47.5624 45.4775C47.7115 44.8905 47.7101 44.1994 47.4466 43.6912C47.2423 44.0647 47.0379 44.4382 46.8335 44.8117Z" fill="white"/>
<path d="M40.933 14.8786C41.0301 14.9687 41.1529 15.0299 41.2863 15.0546C41.4196 15.0793 41.5577 15.0664 41.6834 15.0176C41.9438 14.9095 42.1827 14.7598 42.3895 14.5749C42.5609 14.4546 42.7062 14.3042 42.8176 14.1318C42.879 14.0288 42.9183 13.9152 42.9333 13.7978C42.9484 13.6803 42.9388 13.5611 42.9052 13.4471C42.8084 13.1787 42.5631 13.0888 42.3466 13.0279C42.0001 12.9303 41.6535 12.8328 41.307 12.7353L41.5577 12.5209C41.2997 12.3895 41.0144 12.6333 40.8532 12.9351C40.7498 13.1322 40.6777 13.3427 40.6393 13.5599C40.553 14.0336 40.6374 14.5978 40.933 14.8786Z" fill="#E6E6E6"/>
<path d="M47.0513 12.9294C47.149 13.0315 47.284 13.0946 47.4289 13.1058C47.5738 13.117 47.7177 13.0755 47.8315 12.9896C47.9295 12.9198 48.0108 12.8312 48.0703 12.7295C48.1298 12.6279 48.166 12.5155 48.1766 12.3997C48.2012 12.141 48.0664 11.8535 47.8739 11.8312L47.9179 11.589C47.5471 11.5254 47.0908 11.5127 46.8921 11.94C46.8251 12.1037 46.8045 12.2813 46.8324 12.4549C46.8604 12.6285 46.9358 12.7921 47.0513 12.9294Z" fill="#E6E6E6"/>
<path d="M46.2339 0.0493603C44.06 -0.183359 41.8777 0.413018 40.1671 1.70729C38.4564 3.00156 37.3577 4.88771 37.1124 6.95081C36.6018 11.247 38.9868 20.5763 43.335 24.4382C45.3824 17.039 52.5569 12.6503 53.5062 8.70574C54.5206 4.49086 50.7609 0.533973 46.2339 0.0493603Z" fill="#FFC800"/>
<path d="M44.7304 9.60024C46.2162 9.60024 47.4206 8.4572 47.4206 7.04719C47.4206 5.63718 46.2162 4.49414 44.7304 4.49414C43.2446 4.49414 42.0402 5.63718 42.0402 7.04719C42.0402 8.4572 43.2446 9.60024 44.7304 9.60024Z" fill="white"/>
<path d="M41.9017 28.1194C42.8749 28.1194 43.6638 27.3707 43.6638 26.4472C43.6638 25.5236 42.8749 24.775 41.9017 24.775C40.9286 24.775 40.1397 25.5236 40.1397 26.4472C40.1397 27.3707 40.9286 28.1194 41.9017 28.1194Z" fill="#FFC800"/>
<path opacity="0.2" d="M46.9563 5.21802C47.2591 5.3907 47.5231 5.6183 47.7333 5.88781C47.9434 6.15732 48.0955 6.46347 48.181 6.78878C48.2665 7.11409 48.2836 7.45218 48.2313 7.78376C48.1791 8.11534 48.0586 8.43392 47.8766 8.72129C47.6947 9.00866 47.4548 9.25921 47.1708 9.45863C46.8869 9.65805 46.5643 9.80243 46.2215 9.88353C45.5292 10.0473 44.7967 9.94341 44.1851 9.59466C44.8087 9.7263 45.4612 9.64305 46.026 9.3598C46.5908 9.07656 47.0309 8.61182 47.2676 8.04875C47.5043 7.48569 47.5221 6.86107 47.3178 6.28668C47.1136 5.71229 46.7006 5.22564 46.1528 4.91382C46.4362 4.97342 46.7075 5.07615 46.9563 5.21802Z" fill="#231F20"/>
<path opacity="0.2" d="M53.5167 8.714C52.5674 12.6586 45.393 17.0473 43.3456 24.4464C42.9367 24.0798 42.5569 23.6849 42.2093 23.265C44.51 16.31 51.2379 12.0839 52.1551 8.2728C52.976 4.86175 50.67 1.62002 47.3612 0.25061C51.3665 1.20613 54.4463 4.85146 53.5167 8.714Z" fill="#231F20"/>
<path d="M21.0238 10.0109C19.3913 9.83618 17.7524 10.284 16.4678 11.256C15.1832 12.2279 14.358 13.6444 14.1739 15.1937C13.7904 18.42 15.5814 25.4259 18.8469 28.3261C20.3844 22.7696 25.7721 19.4738 26.485 16.5116C27.2468 13.3464 24.4235 10.3749 21.0238 10.0109Z" fill="#FFC800"/>
<path d="M19.8947 17.1833C21.0105 17.1833 21.915 16.3249 21.915 15.2661C21.915 14.2072 21.0105 13.3488 19.8947 13.3488C18.779 13.3488 17.8745 14.2072 17.8745 15.2661C17.8745 16.3249 18.779 17.1833 19.8947 17.1833Z" fill="white"/>
<path d="M17.7705 31.0906C18.5013 31.0906 19.0937 30.5283 19.0937 29.8348C19.0937 29.1413 18.5013 28.579 17.7705 28.579C17.0397 28.579 16.4473 29.1413 16.4473 29.8348C16.4473 30.5283 17.0397 31.0906 17.7705 31.0906Z" fill="#FFC800"/>
<path opacity="0.2" d="M21.5663 13.8925C21.7937 14.0221 21.992 14.193 22.1498 14.3954C22.3076 14.5978 22.4218 14.8277 22.486 15.072C22.5502 15.3163 22.563 15.5702 22.5238 15.8192C22.4846 16.0682 22.3941 16.3075 22.2574 16.5233C22.1208 16.7391 21.9407 16.9272 21.7274 17.077C21.5141 17.2268 21.2719 17.3352 21.0145 17.3961C20.757 17.457 20.4895 17.4692 20.2271 17.432C19.9647 17.3947 19.7126 17.3088 19.4852 17.1792C19.9535 17.278 20.4435 17.2155 20.8676 17.0028C21.2918 16.7901 21.6223 16.4411 21.8 16.0182C21.9778 15.5954 21.9912 15.1263 21.8378 14.695C21.6844 14.2636 21.3743 13.8982 20.9629 13.664C21.1757 13.7088 21.3795 13.7859 21.5663 13.8925Z" fill="#231F20"/>
<path opacity="0.2" d="M26.493 16.5178C25.7801 19.4801 20.3923 22.7759 18.8548 28.3324C18.5477 28.057 18.2625 27.7604 18.0015 27.4451C19.7292 22.2222 24.7816 19.0485 25.4704 16.1865C26.0869 13.6249 24.3552 11.1905 21.8704 10.1621C24.8782 10.8797 27.1911 13.6172 26.493 16.5178Z" fill="#231F20"/>
<path d="M71.3303 8.85915C70.7479 8.63975 70.1256 8.53135 69.4991 8.54017C68.8725 8.54899 68.2539 8.67483 67.6786 8.91053C67.1033 9.14622 66.5825 9.48714 66.1461 9.91383C65.7096 10.3405 65.3659 10.8446 65.1347 11.3973C64.1624 13.7219 64.0013 19.273 65.8107 22.0552C68.1372 18.22 72.844 16.8039 74.0049 14.7388C75.2454 12.5322 73.7797 9.78187 71.3303 8.85915Z" fill="#FFC800"/>
<path d="M69.3716 14.0256C70.2311 14.0256 70.9278 13.3643 70.9278 12.5487C70.9278 11.7331 70.2311 11.0718 69.3716 11.0718C68.5121 11.0718 67.8154 11.7331 67.8154 12.5487C67.8154 13.3643 68.5121 14.0256 69.3716 14.0256Z" fill="white"/>
<path d="M64.6893 23.9374C65.2522 23.9374 65.7086 23.5044 65.7086 22.9701C65.7086 22.4359 65.2522 22.0028 64.6893 22.0028C64.1263 22.0028 63.67 22.4359 63.67 22.9701C63.67 23.5044 64.1263 23.9374 64.6893 23.9374Z" fill="#FFC800"/>
<path opacity="0.2" d="M70.9067 11.8484C71.1918 12.1312 71.3469 12.5099 71.3379 12.9013C71.3289 13.2926 71.1566 13.6646 70.8589 13.9354C70.5611 14.2062 70.1622 14.3538 69.7498 14.3457C69.3375 14.3376 68.9454 14.1745 68.6597 13.8921C68.9867 14.0554 69.3642 14.103 69.7248 14.0262C70.0854 13.9495 70.4054 13.7535 70.6276 13.4733C70.8498 13.1931 70.9596 12.847 70.9375 12.497C70.9154 12.1469 70.7627 11.8158 70.5068 11.5628C70.6554 11.6369 70.7905 11.7333 70.9067 11.8484Z" fill="#231F20"/>
<path opacity="0.2" d="M74.0094 14.745C72.8485 16.81 68.1417 18.2262 65.8152 22.0613C65.6456 21.7977 65.4968 21.5226 65.3699 21.2382C67.7667 17.6874 72.1983 16.2977 73.3199 14.3025C74.3238 12.5168 73.5552 10.375 71.9273 9.13391C74.0102 10.2443 75.1462 12.7228 74.0094 14.745Z" fill="#231F20"/>
<path d="M68.9682 51.2811C67.7291 51.2811 66.3709 51.2144 64.8937 51.0809C57.2533 50.3897 47.3566 47.9863 37.0266 44.3138C26.6967 40.6412 17.1677 36.138 10.1951 31.634C6.79849 29.4399 4.19162 27.363 2.44698 25.4609C0.59986 23.4473 -0.208095 21.692 0.0454626 20.2442C0.539511 17.4236 4.91407 16.8065 8.49688 16.7855L8.4981 17.1957C3.57795 17.2245 0.67531 18.3425 0.324844 20.3436C-0.121589 22.8923 3.51933 26.8712 10.314 31.2604C17.2713 35.7545 26.7828 40.2491 37.0964 43.9159C47.4099 47.5825 57.2884 49.9817 64.912 50.6715C72.3571 51.3453 76.8835 50.2699 77.3299 47.7211C77.7005 45.605 75.2571 42.4876 70.4499 38.9432L70.5822 38.5789C74.0752 41.1544 78.1298 44.8483 77.6092 47.8205C77.3556 49.2683 76.0636 50.2768 73.769 50.818C72.461 51.1265 70.8544 51.2811 68.9682 51.2811Z" fill="#FFC800"/>
<path d="M87.4908 35.96C89.9236 35.96 91.8592 36.4572 93.2978 37.4514C94.7363 38.4246 95.4556 39.8843 95.4556 41.8305C95.4556 43.269 95.0959 44.4749 94.3767 45.448C93.6786 46.4 92.716 47.1192 91.489 47.6058C90.2832 48.0712 88.8976 48.3039 87.3321 48.3039L86.6023 45.8288C88.5274 45.8288 90.2303 46.0932 91.7112 46.6221C93.2132 47.151 94.3978 47.9125 95.2652 48.9068C96.1325 49.8799 96.5662 51.054 96.5662 52.4291C96.5662 53.6984 96.3335 54.7773 95.8681 55.6658C95.4238 56.5331 94.8104 57.2418 94.0276 57.7918C93.266 58.3207 92.3987 58.7121 91.4256 58.9659C90.4525 59.1986 89.4476 59.315 88.411 59.315H80.6366V35.96H87.4908ZM88.0302 45.5114C88.9399 45.5114 89.6063 45.2364 90.0294 44.6864C90.4736 44.1364 90.6957 43.5123 90.6957 42.8142C90.6957 42.0103 90.4207 41.4074 89.8707 41.0055C89.3418 40.6035 88.6226 40.4026 87.7129 40.4026H85.2378V45.5114H88.0302ZM88.1889 55.0311C88.8658 55.0311 89.4793 54.9465 90.0294 54.7773C90.5794 54.5869 91.0131 54.3013 91.3304 53.9205C91.6477 53.5186 91.8064 53.0214 91.8064 52.4291C91.8064 51.7521 91.616 51.2444 91.2352 50.9059C90.8544 50.5463 90.3573 50.303 89.7438 50.1761C89.1514 50.028 88.5274 49.954 87.8716 49.954H85.2378V55.0311H88.1889Z" fill="#00095E"/>
<path d="M122.094 60.267L104.387 44.2739L105.751 45.0355L105.847 59.315H101.182V35.0398H101.372L118.698 50.9694L117.683 50.5252L117.588 35.96H122.221V60.267H122.094Z" fill="#00095E"/>
<path d="M125.696 57.0303C125.696 56.3745 125.929 55.8244 126.395 55.3802C126.881 54.9359 127.41 54.7138 127.981 54.7138C128.51 54.7138 129.007 54.9359 129.473 55.3802C129.959 55.8244 130.202 56.3745 130.202 57.0303C130.202 57.7284 129.959 58.289 129.473 58.7121C129.007 59.114 128.51 59.315 127.981 59.315C127.41 59.315 126.881 59.114 126.395 58.7121C125.929 58.289 125.696 57.7284 125.696 57.0303Z" fill="#00095E"/>
</svg>
