<svg width="17" height="18" viewBox="0 0 17 18" fill="none" xmlns="http://www.w3.org/2000/svg">
<path d="M15.9561 11.3543L14.2759 9.67407V7.44828C14.2739 5.91011 13.7017 4.42728 12.6699 3.28654C11.6381 2.1458 10.2199 1.42816 8.68966 1.27241V0H7.44828V1.27241C5.91801 1.42816 4.49985 2.1458 3.46802 3.28654C2.43619 4.42728 1.86399 5.91011 1.86207 7.44828V9.67407L0.181862 11.3543C0.0654521 11.4706 3.51543e-05 11.6285 0 11.7931V13.6552C0 13.8198 0.0653939 13.9777 0.181796 14.0941C0.298198 14.2105 0.456073 14.2759 0.62069 14.2759H4.96552V14.8966C4.96552 15.7196 5.29249 16.509 5.8745 17.091C6.45651 17.673 7.24588 18 8.06897 18C8.89205 18 9.68143 17.673 10.2634 17.091C10.8454 16.509 11.1724 15.7196 11.1724 14.8966V14.2759H15.5172C15.6819 14.2759 15.8397 14.2105 15.9561 14.0941C16.0725 13.9777 16.1379 13.8198 16.1379 13.6552V11.7931C16.1379 11.6285 16.0725 11.4706 15.9561 11.3543ZM9.93104 14.8966C9.93104 15.3904 9.73485 15.864 9.38565 16.2132C9.03644 16.5624 8.56282 16.7586 8.06897 16.7586C7.57511 16.7586 7.10149 16.5624 6.75228 16.2132C6.40308 15.864 6.2069 15.3904 6.2069 14.8966V14.2759H9.93104V14.8966Z" fill="#F8F9FA"/>
</svg>
