<svg width="22" height="22" viewBox="0 0 22 22" fill="none" xmlns="http://www.w3.org/2000/svg">
<path d="M15.1237 11H6.8737C6.36953 11 5.95703 11.4125 5.95703 11.9167V12.8333H16.0404V11.9167C16.0404 11.4125 15.6279 11 15.1237 11ZM6.64453 7.79167H10.3112V9.62501H6.64453V7.79167ZM11.6862 7.79167H15.3529V9.62501H11.6862V7.79167Z" fill="#F8F9FA"/>
<path d="M18.332 1.83333H3.66536C2.65703 1.83333 1.83203 2.65833 1.83203 3.66666V18.3333C1.83203 19.3417 2.65703 20.1667 3.66536 20.1667H18.332C19.3404 20.1667 20.1654 19.3417 20.1654 18.3333V3.66666C20.1654 2.65833 19.3404 1.83333 18.332 1.83333ZM17.4154 15.5833H16.0404V14.2083H5.95703V15.5833H4.58203V12.0725C4.58203 11.4675 4.8112 10.9175 5.17786 10.4958V8.25C5.17786 7.24166 6.00286 6.41666 7.0112 6.41666H10.082C10.4212 6.41666 10.742 6.52666 10.9987 6.71C11.2554 6.52666 11.5762 6.41666 11.9154 6.41666H14.9862C15.9945 6.41666 16.8195 7.24166 16.8195 8.25V10.4958C17.1862 10.9175 17.4154 11.4675 17.4154 12.0725V15.5833Z" fill="#F8F9FA"/>
</svg>
