<svg width="725" height="505" viewBox="0 0 725 505" fill="none" xmlns="http://www.w3.org/2000/svg">
<path d="M144.451 505C224.23 505 288.903 500.082 288.903 494.016C288.903 487.95 224.23 483.033 144.451 483.033C64.6731 483.033 0 487.95 0 494.016C0 500.082 64.6731 505 144.451 505Z" fill="#E6E6E6"/>
<path d="M110.416 112.051C135.555 101.346 166.866 108.128 197.444 112.836C197.729 107.135 201.178 100.197 197.565 96.2203C193.175 91.3886 193.58 86.3119 196.221 81.2059C202.975 68.1491 193.298 54.256 183.527 42.7041C181.325 40.1062 178.542 38.065 175.403 36.7463C172.265 35.4276 168.86 34.8685 165.466 35.1146L147.366 36.4089C142.962 36.7239 138.758 38.378 135.319 41.1499C131.879 43.9218 129.367 47.6794 128.118 51.9197C123.797 57.8043 121.483 63.6727 122.94 69.5105C116.466 73.9394 115.379 79.2857 118.288 85.3126C120.754 89.1073 120.728 92.8012 118.175 96.3928C114.823 100.972 112.255 106.078 110.578 111.501L110.416 112.051Z" fill="#2F2E41"/>
<path d="M707.82 436.564H195.458C190.902 436.564 186.532 434.752 183.311 431.527C180.089 428.301 178.279 423.926 178.279 419.365C364.01 397.755 546.25 397.755 725 419.365C725 423.926 723.19 428.301 719.968 431.527C716.746 434.752 712.377 436.564 707.82 436.564Z" fill="#2F2E41"/>
<path d="M725 420.377L178.279 419.365L241.642 312.627L241.945 312.121V76.8819C241.945 74.0266 242.506 71.1992 243.598 68.5612C244.689 65.9232 246.289 63.5263 248.305 61.5073C250.322 59.4883 252.716 57.8868 255.351 56.7942C257.986 55.7016 260.81 55.1394 263.662 55.1397H636.585C639.437 55.1394 642.261 55.7016 644.896 56.7942C647.531 57.8868 649.925 59.4883 651.942 61.5073C653.958 63.5263 655.558 65.9232 656.649 68.5612C657.741 71.1992 658.302 74.0266 658.302 76.8819V313.74L725 420.377Z" fill="#3F3D56"/>
<path d="M263.167 70.3157C261.292 70.3178 259.493 71.0646 258.167 72.3924C256.841 73.7201 256.095 75.5202 256.093 77.3979V291.886C256.095 293.764 256.841 295.564 258.167 296.891C259.494 298.219 261.292 298.966 263.167 298.968H640.112C641.987 298.966 643.785 298.219 645.111 296.891C646.437 295.564 647.183 293.764 647.186 291.886V77.3979C647.184 75.5202 646.438 73.7201 645.111 72.3924C643.785 71.0648 641.987 70.3179 640.112 70.3157H263.167Z" fill="white"/>
<path d="M264.747 327.297C264.167 327.298 263.6 327.465 263.112 327.778C262.624 328.091 262.235 328.537 261.992 329.063L242.468 371.556C242.255 372.019 242.163 372.527 242.198 373.035C242.233 373.543 242.395 374.034 242.669 374.462C242.944 374.891 243.321 375.244 243.767 375.488C244.213 375.732 244.713 375.86 245.222 375.86H655.804C656.321 375.86 656.829 375.728 657.281 375.476C657.732 375.224 658.111 374.861 658.383 374.421C658.655 373.98 658.809 373.478 658.833 372.961C658.856 372.444 658.746 371.93 658.515 371.467L637.293 328.975C637.043 328.469 636.656 328.044 636.177 327.748C635.698 327.451 635.145 327.295 634.582 327.297H264.747Z" fill="#2F2E41"/>
<path d="M450.124 66.7746C452.635 66.7746 454.671 64.7363 454.671 62.2218C454.671 59.7074 452.635 57.669 450.124 57.669C447.612 57.669 445.576 59.7074 445.576 62.2218C445.576 64.7363 447.612 66.7746 450.124 66.7746Z" fill="white"/>
<path d="M409.767 383.954C409.1 383.955 408.453 384.175 407.924 384.581C407.395 384.987 407.014 385.556 406.84 386.2L401.942 404.411C401.821 404.861 401.805 405.333 401.895 405.79C401.986 406.247 402.18 406.677 402.463 407.047C402.746 407.417 403.11 407.716 403.527 407.922C403.945 408.129 404.404 408.236 404.869 408.236H498.007C498.491 408.236 498.967 408.12 499.397 407.898C499.826 407.677 500.197 407.355 500.477 406.961C500.757 406.567 500.939 406.111 501.008 405.632C501.076 405.153 501.03 404.665 500.871 404.208L494.575 385.996C494.369 385.4 493.982 384.883 493.468 384.517C492.955 384.151 492.34 383.954 491.71 383.954H409.767Z" fill="#2F2E41"/>
<path d="M658.302 308.58V312.626H241.642L241.955 312.121V308.58H658.302Z" fill="#2F2E41"/>
<path d="M646.68 141.643C685.749 141.643 717.421 109.935 717.421 70.8216C717.421 31.7079 685.749 0 646.68 0C607.612 0 575.94 31.7079 575.94 70.8216C575.94 109.935 607.612 141.643 646.68 141.643Z" fill="#FFC800"/>
<path d="M675.987 101.68H617.374C616.302 101.679 615.274 101.252 614.517 100.493C613.759 99.7344 613.332 98.7056 613.331 97.6326V62.2218C613.333 61.1488 613.759 60.1202 614.517 59.3615C615.274 58.6028 616.302 58.176 617.374 58.1749H675.987C677.059 58.176 678.086 58.6028 678.844 59.3615C679.602 60.1202 680.028 61.1488 680.029 62.2218V97.6326C680.028 98.7056 679.602 99.7343 678.844 100.493C678.086 101.252 677.059 101.679 675.987 101.68ZM617.374 62.2218V97.6326H675.99L675.987 62.2218L617.374 62.2218Z" fill="white"/>
<path d="M664.871 62.2218H628.49V46.034C628.49 34.3091 636.14 25.7993 646.68 25.7993C657.22 25.7993 664.871 34.3091 664.871 46.034L664.871 62.2218ZM632.532 58.1749H660.828V46.034C660.828 36.503 655.011 29.8462 646.68 29.8462C638.35 29.8462 632.532 36.5031 632.532 46.034L632.532 58.1749Z" fill="white"/>
<path d="M646.68 82.9624C648.913 82.9624 650.723 81.1505 650.723 78.9155C650.723 76.6804 648.913 74.8685 646.68 74.8685C644.448 74.8685 642.638 76.6804 642.638 78.9155C642.638 81.1505 644.448 82.9624 646.68 82.9624Z" fill="white"/>
<path d="M597.298 226.216H305.981C304.551 226.214 303.18 225.645 302.168 224.632C301.157 223.62 300.588 222.247 300.586 220.815V148.469C300.588 147.037 301.157 145.664 302.168 144.652C303.18 143.639 304.551 143.07 305.981 143.068H597.298C598.728 143.07 600.099 143.639 601.11 144.652C602.122 145.664 602.691 147.037 602.692 148.469V220.815C602.691 222.247 602.122 223.62 601.11 224.632C600.099 225.645 598.728 226.214 597.298 226.216ZM305.981 145.228C305.123 145.229 304.3 145.571 303.693 146.178C303.087 146.786 302.745 147.61 302.744 148.469V220.815C302.745 221.674 303.087 222.498 303.693 223.105C304.3 223.713 305.123 224.055 305.981 224.056H597.298C598.156 224.055 598.978 223.713 599.585 223.105C600.192 222.498 600.533 221.674 600.534 220.815V148.469C600.533 147.61 600.192 146.786 599.585 146.178C598.978 145.571 598.156 145.229 597.298 145.228L305.981 145.228Z" fill="#E6E6E6"/>
<path d="M351.246 203.867C363.382 203.867 373.221 194.017 373.221 181.866C373.221 169.715 363.382 159.865 351.246 159.865C339.109 159.865 329.271 169.715 329.271 181.866C329.271 194.017 339.109 203.867 351.246 203.867Z" fill="#E6E6E6"/>
<path d="M401.998 167.199C401.517 167.198 401.04 167.292 400.595 167.476C400.15 167.66 399.746 167.93 399.405 168.271C399.064 168.611 398.794 169.016 398.609 169.461C398.425 169.906 398.33 170.384 398.33 170.866C398.33 171.348 398.425 171.825 398.609 172.27C398.794 172.716 399.064 173.12 399.405 173.461C399.746 173.801 400.15 174.071 400.595 174.255C401.04 174.439 401.517 174.533 401.998 174.532H574.662C575.633 174.532 576.564 174.146 577.251 173.459C577.938 172.771 578.324 171.838 578.324 170.866C578.324 169.893 577.938 168.961 577.251 168.273C576.564 167.585 575.633 167.199 574.662 167.199H401.998Z" fill="#E6E6E6"/>
<path d="M401.998 189.2C401.027 189.2 400.095 189.586 399.409 190.273C398.722 190.961 398.336 191.894 398.336 192.866C398.336 193.839 398.722 194.771 399.409 195.459C400.095 196.147 401.027 196.533 401.998 196.533H476.296C477.267 196.533 478.199 196.147 478.886 195.459C479.572 194.771 479.958 193.839 479.958 192.866C479.958 191.894 479.572 190.961 478.886 190.273C478.199 189.586 477.267 189.2 476.296 189.2H401.998Z" fill="#E6E6E6"/>
<path d="M240.925 190.683L187.073 219.346L186.391 195.46C203.968 192.522 220.691 187.408 236.153 179.081L241.785 165.15C242.399 163.632 243.397 162.3 244.68 161.285C245.963 160.269 247.488 159.605 249.105 159.358C250.722 159.111 252.376 159.289 253.903 159.875C255.431 160.46 256.78 161.434 257.818 162.699C259.337 164.551 260.097 166.911 259.942 169.302C259.788 171.693 258.732 173.936 256.988 175.576L240.925 190.683Z" fill="#FFB8B8"/>
<path d="M109.343 356.173C108.95 354.731 108.866 353.222 109.098 351.744C109.329 350.267 109.871 348.856 110.686 347.603L122.516 329.428C125.314 325.128 129.607 322.023 134.563 320.714C139.518 319.405 144.783 319.986 149.335 322.344C144.364 330.816 145.057 338.249 151.052 344.708C141.745 349.257 133.142 355.128 125.512 362.14C124.119 363.09 122.519 363.694 120.846 363.901C119.172 364.107 117.474 363.91 115.892 363.327C114.31 362.743 112.89 361.789 111.751 360.545C110.612 359.301 109.786 357.802 109.343 356.173Z" fill="#2F2E41"/>
<path d="M243.378 332.408C241.587 335.395 239.061 337.871 236.039 339.599C233.018 341.327 229.604 342.248 226.125 342.274L147.536 342.87L144.127 323.079L178.893 312.842L149.581 290.321L181.619 252.786L239.811 307.086C243.213 310.259 245.422 314.506 246.072 319.115C246.721 323.724 245.77 328.417 243.378 332.408Z" fill="#2F2E41"/>
<path d="M135.266 467.76H116.861C100.335 354.356 83.5143 240.635 133.221 198.19L191.844 207.744L184.346 257.563L151.626 295.098L135.266 467.76Z" fill="#2F2E41"/>
<path d="M151.445 493.449C150.004 493.842 148.496 493.926 147.021 493.694C145.545 493.463 144.136 492.921 142.884 492.105L122.9 489.415C118.606 486.615 115.504 482.316 114.196 477.355C112.889 472.394 113.468 467.123 115.823 462.566C124.286 467.543 131.71 466.848 138.161 460.845C142.72 470.06 150.23 469.498 157.403 477.261C158.353 478.656 158.956 480.257 159.162 481.933C159.369 483.608 159.172 485.308 158.589 486.892C158.006 488.476 157.054 489.897 155.811 491.038C154.568 492.178 153.071 493.005 151.445 493.449Z" fill="#2F2E41"/>
<path d="M178.893 122.437L144.809 114.248C150.47 102.647 150.936 89.7395 148.217 76.0303L171.394 75.3478C172.12 92.3957 174.318 108.323 178.893 122.437Z" fill="#FFB8B8"/>
<path d="M188.26 228.293C163.448 245.219 145.917 228.872 132.539 203.649C134.398 188.216 131.388 169.746 125.813 149.678C123.334 140.826 124.259 131.365 128.407 123.163C132.555 114.962 139.624 108.615 148.217 105.376L177.529 117.66C202.419 137.971 207.317 159.972 197.979 183.176L188.26 228.293Z" fill="#FFC800"/>
<path d="M116.861 139.499L89.5936 153.83L137.992 182.493L144.727 199.124C145.176 200.234 145.395 201.424 145.37 202.621C145.345 203.819 145.077 204.999 144.582 206.089C144.087 207.179 143.375 208.157 142.49 208.963C141.605 209.769 140.565 210.386 139.434 210.776C138.148 211.22 136.777 211.36 135.429 211.185C134.08 211.01 132.79 210.525 131.66 209.767C130.53 209.01 129.591 208.001 128.915 206.819C128.24 205.637 127.847 204.315 127.767 202.956L127.086 191.365L65.5714 171.042C63.4988 170.358 61.6091 169.21 60.0453 167.685C58.4815 166.161 57.2846 164.301 56.5453 162.245C55.4678 159.248 55.4129 155.978 56.3894 152.947C57.3658 149.916 59.3185 147.294 61.9418 145.493L111.407 111.518L116.861 139.499Z" fill="#FFB8B8"/>
<path d="M144.127 142.229C132.755 137.239 122.415 142.659 109.362 147.006L107.317 110.836C120.278 103.92 132.635 102.055 144.127 107.423L144.127 142.229Z" fill="#FFC800"/>
<path d="M157.731 93.2642C169.749 93.2642 179.492 83.5102 179.492 71.4781C179.492 59.446 169.749 49.692 157.731 49.692C145.713 49.692 135.97 59.446 135.97 71.4781C135.97 83.5102 145.713 93.2642 157.731 93.2642Z" fill="#FFB8B8"/>
<path d="M183.764 68.7292C162.219 70.8419 145.801 67.3141 135.309 57.2696V49.1805H181.936L183.764 68.7292Z" fill="#2F2E41"/>
</svg>
