<svg width="20" height="20" viewBox="0 0 20 20" fill="none" xmlns="http://www.w3.org/2000/svg">
<path d="M12.844 18H4.5C3.121 18 2 16.879 2 15.5C2 14.121 3.121 13 4.5 13H11.5C13.43 13 15 11.43 15 9.5C15 7.57 13.43 6 11.5 6H6.639C6.27175 6.71988 5.81697 7.39164 5.285 8H11.5C12.327 8 13 8.673 13 9.5C13 10.327 12.327 11 11.5 11H4.5C2.019 11 0 13.019 0 15.5C0 17.981 2.019 20 4.5 20H14.093C13.6023 19.3828 13.1833 18.7118 12.844 18ZM3 0C1.346 0 0 1.346 0 3C0 6.188 3 8 3 8C3 8 6 6.187 6 3C6 1.346 4.654 0 3 0ZM3 4.5C2.80295 4.49993 2.60785 4.46106 2.42582 4.38559C2.2438 4.31012 2.07842 4.19954 1.93913 4.06016C1.79984 3.92078 1.68937 3.75533 1.61403 3.57325C1.53868 3.39118 1.49993 3.19605 1.5 2.999C1.50007 2.80195 1.53894 2.60685 1.61441 2.42482C1.68988 2.2428 1.80046 2.07742 1.93984 1.93813C2.07922 1.79884 2.24467 1.68837 2.42675 1.61303C2.60882 1.53768 2.80395 1.49893 3.001 1.499C3.39896 1.49913 3.78056 1.65735 4.06187 1.93884C4.34317 2.22033 4.50113 2.60204 4.501 3C4.50087 3.39796 4.34265 3.77956 4.06116 4.06087C3.77967 4.34217 3.39796 4.50013 3 4.5Z" fill="#F8F9FA"/>
<path d="M17 11.0039C15.346 11.0039 14 12.3446 14 13.9922C14 17.1677 17 18.9727 17 18.9727C17 18.9727 20 17.1667 20 13.9922C20 12.3446 18.654 11.0039 17 11.0039ZM17 15.4863C16.803 15.4863 16.6078 15.4475 16.4258 15.3724C16.2438 15.2972 16.0784 15.187 15.9391 15.0482C15.7998 14.9094 15.6894 14.7446 15.614 14.5632C15.5387 14.3818 15.4999 14.1875 15.5 13.9912C15.5001 13.7949 15.5389 13.6006 15.6144 13.4193C15.6899 13.2379 15.8005 13.0732 15.9398 12.9345C16.0792 12.7957 16.2447 12.6857 16.4267 12.6106C16.6088 12.5356 16.804 12.497 17.001 12.4971C17.399 12.4972 17.7806 12.6548 18.0619 12.9352C18.3432 13.2156 18.5011 13.5958 18.501 13.9922C18.5009 14.3886 18.3427 14.7687 18.0612 15.0489C17.7797 15.3291 17.398 15.4865 17 15.4863Z" fill="#F8F9FA"/>
</svg>
